<svg xmlns="http://www.w3.org/2000/svg" xmlns:xlink="http://www.w3.org/1999/xlink" width="80" height="80" viewBox="0 0 80 80">
  <defs>
    <clipPath id="clip-path">
      <rect id="사각형_408" data-name="사각형 408" width="80" height="80" transform="translate(1180 3276)" fill="#530e0e"/>
    </clipPath>
  </defs>
  <g id="ico_web" transform="translate(-1180 -3276)" clip-path="url(#clip-path)">
    <path id="website" d="M59.269,46.068,55.511,35.6a1.332,1.332,0,1,1,2.508-.9l2.508,6.974L63.035,34.7a1.332,1.332,0,0,1,2.508,0l2.508,6.974L70.558,34.7a1.332,1.332,0,1,1,2.508.9L69.3,46.068a1.332,1.332,0,0,1-2.508,0l-2.508-6.976-2.508,6.976a1.332,1.332,0,0,1-2.508,0ZM25.039,73.845a40.669,40.669,0,0,1-3.876-6.93,49.416,49.416,0,0,0-8.042,3.063,39.96,39.96,0,0,0,16.635,9.073,27.075,27.075,0,0,1-4.717-5.206Zm13.553,6.45c-4.112-.509-8.019-3.245-11.376-7.991a37.38,37.38,0,0,1-3.443-6.077A69.478,69.478,0,0,1,38.593,64.4ZM52.783,72.3a37.38,37.38,0,0,0,3.443-6.077A69.547,69.547,0,0,0,41.258,64.4V80.313c4.167-.462,8.129-3.207,11.525-8.01Zm14.1-2.325a39.96,39.96,0,0,1-16.635,9.073,27.075,27.075,0,0,0,4.717-5.206,40.691,40.691,0,0,0,3.876-6.93,49.417,49.417,0,0,1,8.042,3.063ZM63.011,52.607a61.612,61.612,0,0,1-3.16,11.828A51.045,51.045,0,0,1,68.9,68.008a40.121,40.121,0,0,0,9.19-15.4Zm-21.753,0H60.307a58.514,58.514,0,0,1-3.042,11.131,72.008,72.008,0,0,0-16.006-2.01V52.607ZM20.142,64.435A51.32,51.32,0,0,0,11.1,68.008a40.125,40.125,0,0,1-9.19-15.4H16.989A62.181,62.181,0,0,0,20.142,64.435ZM38.593,52.607h-18.9a58.5,58.5,0,0,0,3.042,11.131A71.917,71.917,0,0,1,38.593,61.73ZM22.736,17.03a58.506,58.506,0,0,0-3.042,11.131h18.9V19.038A71.861,71.861,0,0,1,22.736,17.03Zm-2.594-.7a62.22,62.22,0,0,0-3.153,11.829H1.91a40.107,40.107,0,0,1,9.19-15.4A51.22,51.22,0,0,0,20.142,16.333Zm1.022-2.478a40.635,40.635,0,0,1,3.876-6.932,27.1,27.1,0,0,1,4.717-5.206A39.961,39.961,0,0,0,13.121,10.79,49.491,49.491,0,0,0,21.163,13.854Zm17.429,2.515a69.429,69.429,0,0,1-14.819-1.828,37.375,37.375,0,0,1,3.443-6.077C30.574,3.718,34.481.982,38.593.473Zm17.634-1.828a37.375,37.375,0,0,0-3.443-6.077c-3.4-4.8-7.358-7.548-11.525-8.01V16.373a69.606,69.606,0,0,0,14.969-1.832Zm2.61-.687a40.635,40.635,0,0,0-3.876-6.932,27.1,27.1,0,0,0-4.717-5.206A39.962,39.962,0,0,1,66.879,10.79,49.491,49.491,0,0,1,58.836,13.854Zm1.014,2.478a61.646,61.646,0,0,1,3.16,11.829H78.082A39.995,39.995,0,0,0,68.9,12.76,51.072,51.072,0,0,1,59.851,16.333ZM41.258,28.161V19.039a71.954,71.954,0,0,0,16.006-2.01,58.494,58.494,0,0,1,3.042,11.131H41.258ZM80,40.383a39.886,39.886,0,0,0-1.156-9.556H1.156a40.089,40.089,0,0,0,0,19.112H78.844A39.886,39.886,0,0,0,80,40.383ZM48.781,35.6,45.016,46.068a1.332,1.332,0,0,1-2.508,0L40,39.092l-2.508,6.976a1.332,1.332,0,0,1-2.508,0L31.219,35.6a1.336,1.336,0,0,1,2.516-.9l2.508,6.974,2.5-6.974a1.337,1.337,0,0,1,2.516,0l2.5,6.974L46.266,34.7a1.336,1.336,0,0,1,2.516.9Zm-24.292,0L20.731,46.067a1.332,1.332,0,0,1-2.508,0l-2.508-6.976-2.508,6.976a1.332,1.332,0,0,1-2.508,0L6.934,35.6a1.332,1.332,0,1,1,2.508-.9l2.508,6.974L14.457,34.7a1.332,1.332,0,0,1,2.508,0l2.508,6.974L21.981,34.7a1.332,1.332,0,1,1,2.508.9Z" transform="translate(1180 3275.545)" fill="#414853" fill-rule="evenodd"/>
  </g>
</svg>
