<svg xmlns="http://www.w3.org/2000/svg" width="80" height="80" viewBox="0 0 80 80">
    <defs>
        <clipPath id="clip-path">
            <path id="사각형_409" data-name="사각형 409" transform="translate(1775 3269)" style="fill:#530e0e" d="M0 0h80v80H0z"/>
        </clipPath>
        <style>
            .cls-3{fill:#414853}
        </style>
    </defs>
    <g id="ico_web" transform="translate(-1775 -3269)" style="clip-path:url(#clip-path)">
        <g id="그룹_258" data-name="그룹 258" transform="translate(1779.701 3273.702)">
            <g id="그룹_257" data-name="그룹 257">
                <path id="패스_12443" data-name="패스 12443" class="cls-3" d="M25.671 0H6.418A6.424 6.424 0 0 0 0 6.418v19.253a6.424 6.424 0 0 0 6.418 6.418h19.253a6.424 6.424 0 0 0 6.418-6.418V6.418A6.424 6.424 0 0 0 25.671 0z"/>
                <path id="빼기_1" data-name="빼기 1" class="cls-3" d="M-9076.329-12072.91h-19.252a6.427 6.427 0 0 1-6.419-6.419v-19.252a6.427 6.427 0 0 1 6.419-6.419h19.252a6.427 6.427 0 0 1 6.419 6.419v19.252a6.427 6.427 0 0 1-6.419 6.419zm-17.647-17.65a1.608 1.608 0 0 0-1.6 1.607 1.606 1.606 0 0 0 1.6 1.6h6.416v6.416a1.607 1.607 0 0 0 1.606 1.6 1.606 1.606 0 0 0 1.6-1.6v-6.416h6.416a1.606 1.606 0 0 0 1.6-1.6 1.608 1.608 0 0 0-1.6-1.607h-6.416v-6.416a1.606 1.606 0 0 0-1.6-1.6 1.607 1.607 0 0 0-1.606 1.6v6.416z" transform="translate(9140.506 12143.506)"/>
                <path id="패스_12444" data-name="패스 12444" class="cls-3" d="M281.671 0h-19.253A6.424 6.424 0 0 0 256 6.418v19.253a6.424 6.424 0 0 0 6.418 6.418h19.253a6.424 6.424 0 0 0 6.418-6.418V6.418A6.424 6.424 0 0 0 281.671 0zm3.209 25.671a3.213 3.213 0 0 1-3.209 3.209h-19.253a3.213 3.213 0 0 1-3.209-3.209V6.418a3.213 3.213 0 0 1 3.209-3.209h19.253a3.213 3.213 0 0 1 3.209 3.209z" transform="translate(-217.493)"/>
                <path id="패스_12445" data-name="패스 12445" class="cls-3" d="M25.671 256H6.418A6.424 6.424 0 0 0 0 262.418v19.253a6.424 6.424 0 0 0 6.418 6.418h19.253a6.424 6.424 0 0 0 6.418-6.418v-19.253A6.424 6.424 0 0 0 25.671 256zm3.209 25.671a3.213 3.213 0 0 1-3.209 3.209H6.418a3.213 3.213 0 0 1-3.209-3.209v-19.253a3.213 3.213 0 0 1 3.209-3.209h19.253a3.213 3.213 0 0 1 3.209 3.209z" transform="translate(0 -217.493)"/>
            </g>
        </g>
    </g>
</svg>
