<svg xmlns="http://www.w3.org/2000/svg" xmlns:xlink="http://www.w3.org/1999/xlink" width="80" height="80" viewBox="0 0 80 80">
  <defs>
    <clipPath id="clip-path">
      <rect id="사각형_405" data-name="사각형 405" width="80" height="80" transform="translate(150 3334)" fill="#530e0e"/>
    </clipPath>
  </defs>
  <g id="ico_kiosk" transform="translate(-150 -3334)" clip-path="url(#clip-path)">
    <path id="합치기_9" data-name="합치기 9" d="M-7446.055-8750.857a2.942,2.942,0,0,1-2.945-3.069,2.941,2.941,0,0,1,2.945-3.067h2.391v-70.757a2.918,2.918,0,0,1,3.251-3.249h37.921c2.925,0,3.253,1.806,3.253,3.249v70.757h2.389a2.944,2.944,0,0,1,2.948,3.067,2.944,2.944,0,0,1-2.948,3.069Zm4.978-76c-.049,1.793-.082,69.749-.082,69.749h39.417l.02-69.749s.219-1.645-1.383-1.645h-36.143s-.036,0-.1,0A1.605,1.605,0,0,0-7441.077-8826.858Zm6.336,45.281a1.258,1.258,0,0,1-1.268-1.25v-39.445a1.26,1.26,0,0,1,1.268-1.252h26.988a1.26,1.26,0,0,1,1.27,1.252v39.445a1.259,1.259,0,0,1-1.27,1.25Z" transform="translate(7611 12165)" fill="#414853"/>
  </g>
</svg>
