<svg xmlns="http://www.w3.org/2000/svg" width="63" height="63" viewBox="0 0 63 63">
    <defs>
        <clipPath id="clip-path">
            <path id="사각형_421" data-name="사각형 421" transform="translate(372 1430)" style="fill:#d1adad" d="M0 0h63v63H0z"/>
        </clipPath>
        <clipPath id="clip-path-2">
            <path id="사각형_426" data-name="사각형 426" class="cls-2" d="M0 0h60v55.39H0z"/>
        </clipPath>
        <style>
            .cls-2{fill:#414853}
        </style>
    </defs>
    <g id="ico_shorthand" transform="translate(-372 -1430)" style="clip-path:url(#clip-path)">
        <g id="그룹_285" data-name="그룹 285" transform="translate(373.5 1433.805)">
            <g id="그룹_284" data-name="그룹 284" style="clip-path:url(#clip-path-2)">
                <path id="패스_12480" data-name="패스 12480" class="cls-2" d="M73.315 264.724h-16.6a1 1 0 0 0 0 2h16.6a1 1 0 0 0 0-2" transform="translate(-49.194 -233.702)"/>
                <path id="패스_12481" data-name="패스 12481" class="cls-2" d="M101.04 202.741a1 1 0 0 0 0-2h-13.5a1 1 0 0 0 0 2z" transform="translate(-76.403 -177.218)"/>
                <path id="패스_12482" data-name="패스 12482" class="cls-2" d="M166.623 330.705h4.877a1 1 0 0 0 0-2h-4.874a1 1 0 1 0 0 2" transform="translate(-146.214 -290.186)"/>
                <path id="패스_12483" data-name="패스 12483" class="cls-2" d="M87.536 328.706a1 1 0 0 0 0 2h3.958a1 1 0 1 0 0-2z" transform="translate(-76.402 -290.186)"/>
                <path id="패스_12484" data-name="패스 12484" class="cls-2" d="M59.323 27.8a1 1 0 0 0-1.915.576 13.708 13.708 0 1 1-10.217-9.445 9.859 9.859 0 0 0 8.79-2.388 7.873 7.873 0 0 1-1.222 5.818 1 1 0 0 0 1.654 1.123 9.931 9.931 0 0 0 .948-9.331 1 1 0 0 0-1.737-.21 7.829 7.829 0 0 1-8.011 3.033 15.641 15.641 0 0 0-7.558.228 22.609 22.609 0 0 0-7.851-5.9 7.827 7.827 0 0 1 1.433-2.3 9.193 9.193 0 0 0 2.35-6.369A7.848 7.848 0 0 1 39.09 5.9a1 1 0 0 0 .8.544 7.8 7.8 0 0 1 7.075 6.493 1 1 0 0 0 1.974-.318 9.777 9.777 0 0 0-8.32-8.1A9.937 9.937 0 0 0 35.078.052a1 1 0 0 0-1.285 1.188 7.037 7.037 0 0 1-1.647 6.436 9.806 9.806 0 0 0-1.8 2.883 22.751 22.751 0 1 0 .807 42.615A9.878 9.878 0 0 0 40.184 55a1 1 0 0 0 .4-1.7 4.693 4.693 0 0 1-1.557-3.185 1 1 0 0 0-2 .13 6.631 6.631 0 0 0 1.018 3.125 7.827 7.827 0 0 1-6.018-2.081 1 1 0 0 0-1.077-.187 20.748 20.748 0 1 1 7.074-33.161 15.7 15.7 0 1 0 21.3 9.869z"/>
                <path id="패스_12485" data-name="패스 12485" class="cls-2" d="M316.269 267.341H299.7a1 1 0 0 0 0 2h16.568a1 1 0 0 0 0-2" transform="translate(-263.704 -236.012)"/>
                <path id="패스_12486" data-name="패스 12486" class="cls-2" d="M338.6 216.021a1 1 0 0 0 0-2h-9.731a1 1 0 0 0 0 2z" transform="translate(-289.456 -188.941)"/>
                <path id="패스_12487" data-name="패스 12487" class="cls-2" d="M328.872 320.659a1 1 0 0 0 0 2h9.728a1 1 0 0 0 0-2z" transform="translate(-289.456 -283.082)"/>
            </g>
        </g>
    </g>
</svg>
