<svg xmlns="http://www.w3.org/2000/svg" width="80" height="80" viewBox="0 0 80 80">
    <defs>
        <clipPath id="clip-path">
            <path id="사각형_406" data-name="사각형 406" transform="translate(678 3279)" style="fill:#530e0e" d="M0 0h80v80H0z"/>
        </clipPath>
        <style>
            .cls-3{fill:#414853}
        </style>
    </defs>
    <g id="ico_desktop" transform="translate(-678 -3279)" style="clip-path:url(#clip-path)">
        <g id="Icon_ionic-ios-desktop" data-name="Icon ionic-ios-desktop" transform="translate(675.75 3280.5)">
            <path id="패스_12433" data-name="패스 12433" class="cls-3" d="M36.089 33.584a.659.659 0 0 0-.543-.556l-2.885-.246a4.494 4.494 0 0 1-2.885-3.661l-.155-1h-11.9l-.155.983a4.517 4.517 0 0 1-2.885 3.661l-2.885.246a.706.706 0 0 0-.543.556.664.664 0 0 0 .66.75H35.43a.654.654 0 0 0 .659-.733z" transform="translate(18.579 38.732)"/>
            <path id="패스_12434" data-name="패스 12434" class="cls-3" d="M80.982 5.819A4.2 4.2 0 0 0 77.946 4.5H6.571a4.172 4.172 0 0 0-3.035 1.319 4.716 4.716 0 0 0-1.286 3.2v51.247a4.681 4.681 0 0 0 1.286 3.2 4.123 4.123 0 0 0 3 1.319h71.428a4.093 4.093 0 0 0 3-1.319 4.716 4.716 0 0 0 1.286-3.2V9.022a4.618 4.618 0 0 0-1.268-3.203zM42.25 60.266a1.509 1.509 0 1 1 1.429-1.507 1.474 1.474 0 0 1-1.429 1.507zm36.41-7.536H5.857a.737.737 0 0 1-.714-.754V9.775a2.211 2.211 0 0 1 2.143-2.261h69.946a2.211 2.211 0 0 1 2.143 2.261v42.2a.737.737 0 0 1-.715.755z"/>
        </g>
    </g>
</svg>
