<svg xmlns="http://www.w3.org/2000/svg" width="29" height="29" viewBox="0 0 29 29">
    <defs>
        <clipPath id="a">
            <path data-name="사각형 447" transform="translate(1874 3509)" style="fill:#451010" d="M0 0h29v29H0z"/>
        </clipPath>
    </defs>
    <g data-name="그룹 332" transform="translate(-1874 -3509)" style="clip-path:url(#a)">
        <path data-name="패스 12525" d="M34.744 25.99a.511.511 0 0 1-.36.871.5.5 0 0 1-.358-.15l-6.749-6.783-2.626 2.639a2.026 2.026 0 0 1-2.872 0l-2.625-2.64-6.754 6.784a.5.5 0 0 1-.718 0 .513.513 0 0 1 0-.722l6.749-6.783-6.749-6.783a.513.513 0 0 1 0-.722.5.5 0 0 1 .718 0l10.1 10.144a1.013 1.013 0 0 0 1.437 0L34.026 11.7a.5.5 0 0 1 .718 0 .513.513 0 0 1 0 .722L28 19.206l6.749 6.783zM35.4 9H11.03A2.038 2.038 0 0 0 9 11.041v16.33a2.038 2.038 0 0 0 2.03 2.041H35.4a2.039 2.039 0 0 0 2.031-2.041V11.04A2.038 2.038 0 0 0 35.4 9z" transform="translate(1865.284 3504.294)" style="fill:#fff;fill-rule:evenodd"/>
    </g>
</svg>
