<svg xmlns="http://www.w3.org/2000/svg" width="25" height="25" viewBox="0 0 25 25">
    <path d="M-546-1015.564a12 12 0 0 1 12-12 12 12 0 0 1 12 12 12.013 12.013 0 0 1-12 12 12 12 0 0 1-12-12zm2 0a10 10 0 0 0 10 10 10 10 0 0 0 10-10 10.011 10.011 0 0 0-10-10 10 10 0 0 0-10 10zm6.879 2.061-1.585-1.585 1.414-1.414 1.587 1.585a1.023 1.023 0 0 0 1.414 0l3.586-3.585 1.414 1.414-3.586 3.585a2.991 2.991 0 0 1-2.122.879 2.991 2.991 0 0 1-2.123-.876z" transform="translate(546.5 1028.063)" style="fill:#c9d0d8;stroke:transparent;stroke-miterlimit:10"/>
</svg>
