<svg xmlns="http://www.w3.org/2000/svg" width="18" height="18" viewBox="0 0 18 18">
    <defs>
        <clipPath id="clip-path">
            <path id="사각형_480" data-name="사각형 480" transform="translate(739 2287)" style="fill:#2e1212" d="M0 0h18v18H0z"/>
        </clipPath>
        <clipPath id="clip-path-2">
            <path id="사각형_478" data-name="사각형 478" class="cls-2" d="M0 0h16.629v12.083H0z"/>
        </clipPath>
        <style>
            .cls-2{fill:#414853}
        </style>
    </defs>
    <g id="ico_preview" transform="translate(-739 -2287)" style="clip-path:url(#clip-path)">
        <g id="그룹_361" data-name="그룹 361" transform="translate(739.686 2289.959)" style="clip-path:url(#clip-path-2)">
            <path id="패스_12541" data-name="패스 12541" class="cls-2" d="m75.342 8.741-4.136 2.811-.413.28v4.954L72 17.61l3.342 2.277c.227.155.413.056.413-.219V8.96c0-.275-.186-.373-.413-.219" transform="translate(-67.423 -8.255)"/>
            <path id="패스_12542" data-name="패스 12542" class="cls-2" d="M1.676 75.168H.666a.668.668 0 0 0-.666.666v3.621a.668.668 0 0 0 .666.666h1.679v-4.953h-.669z" transform="translate(0 -71.59)"/>
            <path id="패스_12543" data-name="패스 12543" class="cls-2" d="M239.7 37.859a.616.616 0 1 0-.872.872 4.519 4.519 0 0 1 0 6.392.616.616 0 1 0 .872.872 5.752 5.752 0 0 0 0-8.135" transform="translate(-227.284 -35.885)"/>
            <path id="패스_12544" data-name="패스 12544" class="cls-2" d="M277.376.18a.616.616 0 0 0-.872.872 7.065 7.065 0 0 1 0 9.979.616.616 0 1 0 .872.872 8.3 8.3 0 0 0 0-11.722" transform="translate(-263.171)"/>
            <path id="패스_12545" data-name="패스 12545" class="cls-2" d="M203.561 73.994a.616.616 0 0 0-.872.872 2.087 2.087 0 0 1 0 2.951.616.616 0 1 0 .872.872 3.319 3.319 0 0 0 0-4.695" transform="translate(-192.87 -70.3)"/>
        </g>
    </g>
</svg>
