<svg xmlns="http://www.w3.org/2000/svg" width="29" height="29" viewBox="0 0 29 29">
    <defs>
        <clipPath id="3x8xdb7ija">
            <path data-name="사각형 452" transform="translate(1175 1329)" style="fill:#451010" d="M0 0h29v29H0z"/>
        </clipPath>
    </defs>
    <g data-name="그룹 333" transform="translate(-1175 -1329)" style="clip-path:url(#3x8xdb7ija)">
        <path data-name="Icon metro-pencil" d="M19 1.928A3.043 3.043 0 0 1 21.44 6.8l-1.218 1.215-4.26-4.261 1.217-1.217A3.029 3.029 0 0 1 19 1.928zm-15.217 14-1.212 5.478 5.478-1.217 11.26-11.261-4.26-4.261zm12.399-7.084L7.66 17.365l-1.049-1.049 8.521-8.522 1.049 1.049z" transform="translate(1180.664 1330.183)" style="fill:#697de0"/>
        <path data-name="패스 12524" d="M0 20.548V0" transform="rotate(90 -79.027 1275.862)" style="fill:none;stroke:#697de0;stroke-linecap:round;stroke-linejoin:round"/>
    </g>
</svg>
