<svg xmlns="http://www.w3.org/2000/svg" width="63" height="63" viewBox="0 0 63 63">
    <defs>
        <clipPath id="clip-path">
            <path id="사각형_422" data-name="사각형 422" transform="translate(372 1563)" style="fill:#d1adad" d="M0 0h63v63H0z"/>
        </clipPath>
        <clipPath id="clip-path-2">
            <path id="사각형_427" data-name="사각형 427" class="cls-2" d="M0 0h54.114v60H0z"/>
        </clipPath>
        <style>
            .cls-2{fill:#414853}
        </style>
    </defs>
    <g id="ico_guard" transform="translate(-372 -1563)" style="clip-path:url(#clip-path)">
        <g id="그룹_287" data-name="그룹 287" transform="translate(376.443 1564.5)">
            <g id="그룹_286" data-name="그룹 286" style="clip-path:url(#clip-path-2)">
                <path id="패스_12488" data-name="패스 12488" class="cls-2" d="M53.919 11.3a1 1 0 0 0-.664-.4l-3.283-.471C40.607 9.087 33.135 5.672 27.77.283a1.034 1.034 0 0 0-1.421 0C20.983 5.672 13.512 9.087 4.143 10.43L.86 10.9a1 1 0 0 0-.85 1.134v.017l2.976 18.584A33.75 33.75 0 0 0 15.634 52.22l10.845 7.6a1 1 0 0 0 1.151 0l10.887-7.63a33.723 33.723 0 0 0 12.61-21.548L54.1 12.053a1 1 0 0 0-.182-.754m-4.766 19.035a31.7 31.7 0 0 1-11.826 20.245l-10.267 7.195-10.229-7.165A31.732 31.732 0 0 1 4.966 30.323L2.152 12.742l2.275-.326c9.4-1.351 17.02-4.721 22.632-10.026 5.617 5.3 13.229 8.675 22.632 10.022l2.275.326z"/>
                <path id="패스_12489" data-name="패스 12489" class="cls-2" d="m89.226 63.387-2.526-.361C79.543 62 73.84 59.411 69.748 55.32a1.031 1.031 0 0 0-1.417 0c-4.091 4.091-9.794 6.685-16.953 7.706l-2.526.361A1 1 0 0 0 48 64.521v.017l2.287 14.231a26.041 26.041 0 0 0 9.789 16.659l8.342 6.489a1 1 0 0 0 1.232 0L78 95.428a26.037 26.037 0 0 0 9.783-16.65l2.288-14.238a1 1 0 0 0-.831-1.148h-.017zm-3.42 15.077a24.043 24.043 0 0 1-9.038 15.383l-7.728 6.014-7.727-6.013a24.053 24.053 0 0 1-9.04-15.388l-2.127-13.23 1.516-.216c7.2-1.031 13.038-3.584 17.377-7.6 4.341 4.009 10.181 6.565 17.377 7.593l1.516.216z" transform="translate(-41.98 -48.143)"/>
                <path id="패스_12490" data-name="패스 12490" class="cls-2" d="M160.033 142.137v-3.191a4.009 4.009 0 0 0-4.009-4.009h-6.013a4.009 4.009 0 0 0-4.011 4.009v3.191a3.007 3.007 0 0 0-2 2.822v11.024a3.007 3.007 0 0 0 3 3.007h12.027a3.007 3.007 0 0 0 3.007-3.007v-11.024a3.007 3.007 0 0 0-2-2.822m-12.027-3.191a2 2 0 0 1 2-2h6.013a2 2 0 0 1 2 2v3.007h-10.013zm12.027 17.038a1 1 0 0 1-1 1H147a1 1 0 0 1-1-1v-11.025a1 1 0 0 1 1-1h12.027a1 1 0 0 1 1 1z" transform="translate(-125.958 -118.032)"/>
                <path id="패스_12491" data-name="패스 12491" class="cls-2" d="M195.014 222.937a3 3 0 0 0-1 5.829v2.189a1 1 0 1 0 2 0v-2.189a3 3 0 0 0-1-5.829" transform="translate(-167.955 -195.008)"/>
            </g>
        </g>
    </g>
</svg>
