<svg xmlns="http://www.w3.org/2000/svg" width="23" height="23" viewBox="0 0 23 23">
    <defs>
        <filter id="6h0i5ub7aa">
            <feColorMatrix in="SourceGraphic" values="0 0 0 0 1.000000 0 0 0 0 1.000000 0 0 0 0 1.000000 0 0 0 1.000000 0"/>
        </filter>
        <filter id="o0p4yv0x9b">
            <feColorMatrix in="SourceGraphic" values="0 0 0 0 0.117647 0 0 0 0 0.117647 0 0 0 0 0.117647 0 0 0 1.000000 0"/>
        </filter>
        <filter id="n243ty6jmc">
            <feColorMatrix in="SourceGraphic" values="0 0 0 0 0.117647 0 0 0 0 0.117647 0 0 0 0 0.117647 0 0 0 1.000000 0"/>
        </filter>
        <filter id="fhlw5h803d">
            <feColorMatrix in="SourceGraphic" values="0 0 0 0 0.117647 0 0 0 0 0.117647 0 0 0 0 0.117647 0 0 0 1.000000 0"/>
        </filter>
    </defs>
    <g fill="none" fill-rule="evenodd">
        <g>
            <g filter="url(#6h0i5ub7aa)" transform="translate(-1846 -89) translate(50 82)">
                <g>
                    <g filter="url(#o0p4yv0x9b)" transform="translate(1796 7)">
                        <path fill="#FFF" stroke="#FFF" stroke-width="1.2" d="M.6.6H5.3999999999999995V5.3999999999999995H.6zM9 .6H13.8V5.3999999999999995H9zM17.4.6H22.2V5.3999999999999995H17.4z"/>
                    </g>
                    <g filter="url(#n243ty6jmc)" transform="translate(1796 7)">
                        <g>
                            <path fill="#FFF" stroke="#FFF" stroke-width="1.2" d="M.6.6H5.3999999999999995V5.3999999999999995H.6zM9 .6H13.8V5.3999999999999995H9zM17.4.6H22.2V5.3999999999999995H17.4z" transform="translate(0 8.4)"/>
                        </g>
                    </g>
                    <g filter="url(#fhlw5h803d)" transform="translate(1796 7)">
                        <g>
                            <path fill="#FFF" stroke="#FFF" stroke-width="1.2" d="M.6.6H5.3999999999999995V5.3999999999999995H.6zM9 .6H13.8V5.3999999999999995H9zM17.4.6H22.2V5.3999999999999995H17.4z" transform="translate(0 16.8)"/>
                        </g>
                    </g>
                </g>
            </g>
        </g>
    </g>
</svg>
