<svg xmlns="http://www.w3.org/2000/svg" width="63" height="63" viewBox="0 0 63 63">
    <defs>
        <clipPath id="clip-path">
            <path id="사각형_425" data-name="사각형 425" transform="translate(372 1974)" style="fill:#d1adad" d="M0 0h63v63H0z"/>
        </clipPath>
        <clipPath id="clip-path-2">
            <path id="사각형_430" data-name="사각형 430" class="cls-2" d="M0 0h60v56.67H0z"/>
        </clipPath>
        <style>
            .cls-2{fill:#414853}
        </style>
    </defs>
    <g id="ico_banker" transform="translate(-372 -1974)" style="clip-path:url(#clip-path)">
        <g id="그룹_293" data-name="그룹 293" transform="translate(373.5 1977.166)">
            <g id="그룹_292" data-name="그룹 292" style="clip-path:url(#clip-path-2)">
                <path id="패스_12513" data-name="패스 12513" class="cls-2" d="M200.7 0a12.757 12.757 0 1 0 12.756 12.756A12.771 12.771 0 0 0 200.7 0m0 23.623a10.867 10.867 0 1 1 10.867-10.867A10.879 10.879 0 0 1 200.7 23.624" transform="translate(-165.735 -.001)"/>
                <path id="패스_12514" data-name="패스 12514" class="cls-2" d="M58.942 191.377a4.488 4.488 0 0 0-6.829-5.826l-.01.01-7.155 7.354-.167-.206a4.482 4.482 0 0 0-3.489-1.671H28.073l-.044-.018a15.011 15.011 0 0 0-5.824-1.163c-5.778 0-10.557 2.708-13.112 7.429l-.082.152-.17-.032a3.294 3.294 0 0 0-2.948.914l-5.618 5.634a.947.947 0 0 0 0 1.333l13.262 13.363a.946.946 0 0 0 1.333.008l5.727-5.642a3.34 3.34 0 0 0 .783-3.421l-.049-.142 1.34-1.292a3.758 3.758 0 0 1 2.624-1.06H41a10.341 10.341 0 0 0 7.25-2.945l.017-.015a60953.672 60953.672 0 0 1 10.679-12.764m-39.677 20.3-5.051 4.976-11.941-12.03 4.955-4.969a1.417 1.417 0 0 1 1.754-.2l.015.008a22.742 22.742 0 0 1 2.118 2.071c1.452 1.455 3.882 3.89 8.141 8.143a1.415 1.415 0 0 1 .006 2m27.629-8.84-.009.009A8.464 8.464 0 0 1 41 205.212H25.3a5.636 5.636 0 0 0-3.936 1.59l-1.171 1.13-9.542-9.541.082-.154c2.2-4.124 6.382-6.49 11.477-6.49a13.13 13.13 0 0 1 5.295 1.1.938.938 0 0 0 .379.079h13.407a2.6 2.6 0 1 1 0 5.2h-9.636a.945.945 0 1 0 0 1.889h9.637a4.482 4.482 0 0 0 4.449-5.075l-.015-.113 5-5.138c2.233-2.295 2.764-2.84 2.805-2.887a2.6 2.6 0 1 1 3.966 3.36z" transform="translate(0 -162.259)"/>
                <path id="패스_12515" data-name="패스 12515" class="cls-2" d="M268.664 56.053a.946.946 0 0 0 .945-.945v-1.551l.157-.056a3.307 3.307 0 0 0-1.1-6.425 1.418 1.418 0 0 1 0-2.835 2.124 2.124 0 0 1 1.442.684.945.945 0 1 0 1.314-1.358 4.352 4.352 0 0 0-1.649-1.033l-.162-.054v-1.546a.945.945 0 1 0-1.889 0v1.551l-.157.056a3.307 3.307 0 0 0 1.1 6.425 1.417 1.417 0 0 1 0 2.835 2.36 2.36 0 0 1-1.715-.978.945.945 0 0 0-1.447 1.216 4.686 4.686 0 0 0 2.055 1.466l.161.054v1.549a.946.946 0 0 0 .945.945" transform="translate(-233.939 -35.264)"/>
            </g>
        </g>
    </g>
</svg>
