<svg xmlns="http://www.w3.org/2000/svg" width="63" height="63" viewBox="0 0 63 63">
    <defs>
        <clipPath id="clip-path">
            <path id="사각형_424" data-name="사각형 424" transform="translate(372 1837)" style="fill:#d1adad" d="M0 0h63v63H0z"/>
        </clipPath>
        <clipPath id="clip-path-2">
            <path id="사각형_429" data-name="사각형 429" class="cls-2" d="M0 0h55v58.362H0z"/>
        </clipPath>
        <style>
            .cls-2{fill:#414853}
        </style>
    </defs>
    <g id="ico_receptionist" transform="translate(-372 -1837)" style="clip-path:url(#clip-path)">
        <g id="그룹_291" data-name="그룹 291" transform="translate(376 1839.318)">
            <g id="그룹_290" data-name="그룹 290" style="clip-path:url(#clip-path-2)">
                <path id="패스_12509" data-name="패스 12509" class="cls-2" d="M329.585 0a5.931 5.931 0 1 0 5.931 5.931A5.938 5.938 0 0 0 329.585 0" transform="translate(-285.261)"/>
                <path id="패스_12510" data-name="패스 12510" class="cls-2" d="M19.691 144H10.2a5.938 5.938 0 0 0-5.931 5.931v11.032H1.186A1.188 1.188 0 0 0 0 162.149v23.131h33.452a1.186 1.186 0 0 0 0-2.372H2.372v-19.572h26.335a1.186 1.186 0 0 0 0-2.372H6.643v-11.033a3.563 3.563 0 0 1 3.559-3.559h9.49a3.563 3.563 0 0 1 3.559 3.559v2.728a1.186 1.186 0 1 0 2.372 0v-2.728A5.938 5.938 0 0 0 19.691 144" transform="translate(0 -126.918)"/>
                <path id="패스_12511" data-name="패스 12511" class="cls-2" d="M86.931 1a5.931 5.931 0 1 0 5.931 5.931A5.938 5.938 0 0 0 86.931 1" transform="translate(-71.392 -.881)"/>
                <path id="패스_12512" data-name="패스 12512" class="cls-2" d="M305.006 157.861v-12.93a5.938 5.938 0 0 0-5.931-5.931h-9.49a5.938 5.938 0 0 0-5.931 5.931v12.93a5.946 5.946 0 0 0 3.955 5.593l.79.28v15.954a1.186 1.186 0 1 0 2.372 0v-17.082a1.188 1.188 0 0 0-1.186-1.186 3.563 3.563 0 0 1-3.559-3.559v-12.93a3.563 3.563 0 0 1 3.559-3.559h9.49a3.563 3.563 0 0 1 3.559 3.559v12.93a3.563 3.563 0 0 1-3.559 3.559 1.188 1.188 0 0 0-1.186 1.186v17.082a1.186 1.186 0 1 0 2.372 0v-15.954l.79-.28a5.947 5.947 0 0 0 3.955-5.593" transform="translate(-250.006 -122.511)"/>
            </g>
        </g>
    </g>
</svg>
