<svg xmlns="http://www.w3.org/2000/svg" xmlns:xlink="http://www.w3.org/1999/xlink" width="307" height="264" viewBox="0 0 307 264">
    <defs>
        <path id="prefix__a" d="M34.68 78.147l10.924-6.37 5.069-2.957.124 18.404-15.993 9.327-.125-18.404zM17.99 87.88l10.784-6.29 5.21-3.038.125 18.404-15.994 9.327-.125-18.403zM1.303 97.612l3.476-2.027 12.518-7.3.125 18.403-15.994 9.328-.125-18.404zm-.26-38.421l10.864-6.336 5.13-2.992.125 18.404-10.784 6.289-5.21 3.038-.124-18.403zm15.865-28.539l.062 9.202.062 9.202-10.864 6.336-5.13 2.992L.913 39.98l15.995-9.328zm16.687-9.732l.125 18.404-15.994 9.328-.062-9.203-.063-9.201 15.994-9.328zm16.813 8.672l-10.925 6.37-5.07 2.957-.124-18.404 15.994-9.327.125 18.404zm16.688-9.733l-10.784 6.29-5.21 3.038-.125-18.404 15.994-9.328.125 18.404zM51.362 67.61l-.125-18.404 15.994-9.328.124 18.404-15.993 9.327zm.005.807l15.994-9.328.124 18.404-15.994 9.327-.124-18.403zM34.674 77.34l-.125-18.404 10.784-6.29 5.21-3.038.125 18.404-10.925 6.371-5.07 2.957zm-16.688 9.732l-.125-18.404 15.994-9.328.125 18.404-10.784 6.29-5.21 3.038zm32.427-56.674l.125 18.403-10.784 6.29-5.21 3.038-.125-18.404 10.925-6.37 5.07-2.957zm16.688-9.733l.124 18.404-15.993 9.328-.125-18.404 10.784-6.29 5.21-3.038zm-49.37 28.792l15.994-9.327.125 18.404-15.994 9.327-.125-18.404zm-8.56 24.28l7.997-4.664.124 18.404-15.994 9.327-.124-18.404 7.997-4.664zm42.326 13.888l16.688-9.732-.002-.204-.06-8.848-.074-10.966-.126-18.607-.133-19.814L67.66.244 50.278 10.38 33.59 20.113l-16.688 9.732L.214 39.579.35 59.595.475 78 .61 98.017l.13 19.21 17.382-10.137 16.688-9.732 16.688-9.732z"/>
        <path id="prefix__c" d="M.184 3.745v59.439c0 3.316 1.765 6.38 4.632 8.04l61.817 35.76c.19.11.377.227.558.348l23.806 13.772c3.522 2.038 7.924-.509 7.924-4.583V58.747c0-2.567-1.367-4.938-3.585-6.221L60.445 32.342c-.133-.09-.269-.174-.408-.255L5.614.603C5.031.266 4.412.113 3.809.113 1.92.112.184 1.626.184 3.744"/>
        <path id="prefix__e" d="M.029 35.742c0 2.392 1.264 4.61 3.316 5.818l17.023 10.023c4.29 2.525 9.572 2.556 13.86.083l12.227-7.051c2.017-1.163 3.286-3.302 3.355-5.651L50.844 3.29 27.93 16.507.029.079v35.663z"/>
        <path id="prefix__g" d="M0.008 22.16L0.008 43.453 30.512 53.194 30.512 53.339 30.743 53.268 31.09 53.379 31.09 53.161 60.952 43.977 61.457 22.284 61.457 12.97 37.209 0.01z"/>
        <path id="prefix__i" d="M0.102 8.292L0.102 27.106 14.444 35.713 14.444 35.841 14.553 35.778 14.715 35.876 14.715 35.684 28.756 27.569 28.756 8.269 28.777 8.257 14.554 0.037z"/>
        <path id="prefix__k" d="M0.133 8.369L0.133 27.183 14.476 35.79 14.476 35.918 14.584 35.855 14.747 35.953 14.747 35.761 28.788 27.646 28.788 8.346 28.808 8.334 14.586 0.113z"/>
        <path id="prefix__m" d="M0.216 8.301L0.216 27.116 14.558 35.723 14.558 35.851 14.667 35.788 14.83 35.886 14.83 35.694 28.87 27.579 28.87 8.279 28.891 8.267 14.668 0.047z"/>
        <path id="prefix__o" d="M0.147 5.69L0.147 18.495 7.28 24.352 7.28 24.439 7.334 24.397 7.415 24.463 7.415 24.332 14.398 18.81 14.398 5.674 14.408 5.666 7.335 0.071z"/>
        <path id="prefix__q" d="M0.195 8.437L0.207 56.877 14.48 48.623 14.48 18.256 14.48 0.184z"/>
        <path id="prefix__t" d="M-0.001 0.024L85.487 0.024 85.487 49.474 -0.001 49.474z"/>
        <path id="prefix__v" d="M0.216 0.196L99.1 0.196 99.1 144.912 0.216 144.912z"/>
        <path id="prefix__x" d="M.229 1.883V5.81L45.68 29.42V3.31c-2.472-2.827-4.694-1.556-7.758-.285-2.944 1.222-6.665 2.443-12.13.028-3.576-1.58-6.383-.755-8.597.07-1.6.596-2.89 1.191-3.937.88-4.235-1.26-2.38-1.155-5.91-2.966C6.108.399 5.018.166 4.089.166 1.566.166.228 1.883.228 1.883"/>
        <path id="prefix__z" d="M2.86.538L.037 18.302c-.062.392.181.882.544 1.095l26.724 15.708c.363.213.707.069.77-.323l2.823-17.765c.062-.391-.181-.881-.544-1.094L3.629.215c-.114-.067-.225-.1-.327-.1-.223 0-.4.154-.442.423"/>
        <path id="prefix__B" d="M0.225 5.688L0.614 26.485 19.597 50.712 22.113 50.712 37.6 28.552 37.721 18.927 22.446 0.019z"/>
        <path id="prefix__D" d="M.197 10.115l.478 8.292S9.371 14.57 6.96 2.35C6.645.756 6.182.12 5.645.12 3.514.12.197 10.116.197 10.116"/>
        <path id="prefix__G" d="M0.017 5.499L15.459 14.9 15.459 8.793 0.017 0.014z"/>
        <path id="prefix__J" d="M12.565.576c.37 1.298-.299 2.674-2.013 3.672-2.342 1.364-5.898 1.592-8.67.69L.046 6.715c4.148 1.388 9.515 1.06 13.04-.992 2.582-1.504 3.573-3.584 2.982-5.538l-3.503.39z"/>
        <linearGradient id="prefix__r" x1=".001%" x2="100.001%" y1="50%" y2="50%">
            <stop offset="0%" stop-color="#CC5911"/>
            <stop offset="100%" stop-color="#EB904D"/>
        </linearGradient>
        <linearGradient id="prefix__E" x1="-.001%" x2="99.999%" y1="50%" y2="50%">
            <stop offset="0%" stop-color="#CC5911"/>
            <stop offset="100%" stop-color="#EB904D"/>
        </linearGradient>
        <linearGradient id="prefix__H" x1="0%" x2="100%" y1="50%" y2="50%">
            <stop offset="0%" stop-color="#CC5911"/>
            <stop offset="100%" stop-color="#EB904D"/>
        </linearGradient>
        <linearGradient id="prefix__K" x1="-.001%" x2="100%" y1="50%" y2="50%">
            <stop offset="0%" stop-color="#CC5911"/>
            <stop offset="100%" stop-color="#EB904D"/>
        </linearGradient>
    </defs>
    <g fill="none" fill-rule="evenodd">
        <g transform="translate(1) translate(38 39)">
            <mask id="prefix__b" fill="#fff">
                <use xlink:href="#prefix__a"/>
            </mask>
            <path d="M34.68 78.147l10.924-6.37 5.069-2.957.124 18.404-15.993 9.327-.125-18.404zM17.99 87.88l10.784-6.29 5.21-3.038.125 18.404-15.994 9.327-.125-18.403zM1.303 97.612l3.476-2.027 12.518-7.3.125 18.403-15.994 9.328-.125-18.404zm-.26-38.421l10.864-6.336 5.13-2.992.125 18.404-10.784 6.289-5.21 3.038-.124-18.403zm15.865-28.539l.062 9.202.062 9.202-10.864 6.336-5.13 2.992L.913 39.98l15.995-9.328zm16.687-9.732l.125 18.404-15.994 9.328-.062-9.203-.063-9.201 15.994-9.328zm16.813 8.672l-10.925 6.37-5.07 2.957-.124-18.404 15.994-9.327.125 18.404zm16.688-9.733l-10.784 6.29-5.21 3.038-.125-18.404 15.994-9.328.125 18.404zM51.362 67.61l-.125-18.404 15.994-9.328.124 18.404-15.993 9.327zm.005.807l15.994-9.328.124 18.404-15.994 9.327-.124-18.403zM34.674 77.34l-.125-18.404 10.784-6.29 5.21-3.038.125 18.404-10.925 6.371-5.07 2.957zm-16.688 9.732l-.125-18.404 15.994-9.328.125 18.404-10.784 6.29-5.21 3.038zm32.427-56.674l.125 18.403-10.784 6.29-5.21 3.038-.125-18.404 10.925-6.37 5.07-2.957zm16.688-9.733l.124 18.404-15.993 9.328-.125-18.404 10.784-6.29 5.21-3.038zm-49.37 28.792l15.994-9.327.125 18.404-15.994 9.327-.125-18.404zm-8.56 24.28l7.997-4.664.124 18.404-15.994 9.327-.124-18.404 7.997-4.664zm42.326 13.888l16.688-9.732-.002-.204-.06-8.848-.074-10.966-.126-18.607-.133-19.814L67.66.244 50.278 10.38 33.59 20.113l-16.688 9.732L.214 39.579.35 59.595.475 78 .61 98.017l.13 19.21 17.382-10.137 16.688-9.732 16.688-9.732z" mask="url(#prefix__b)"/>
        </g>
        <g transform="translate(1) translate(169 77)">
            <mask id="prefix__d" fill="#fff">
                <use xlink:href="#prefix__c"/>
            </mask>
            <path d="M.184 3.745v59.439c0 3.316 1.765 6.38 4.632 8.04l61.817 35.76c.19.11.377.227.558.348l23.806 13.772c3.522 2.038 7.924-.509 7.924-4.583V58.747c0-2.567-1.367-4.938-3.585-6.221L60.445 32.342c-.133-.09-.269-.174-.408-.255L5.614.603C5.031.266 4.412.113 3.809.113 1.92.112.184 1.626.184 3.744" mask="url(#prefix__d)"/>
        </g>
        <g transform="translate(1) translate(85 202)">
            <mask id="prefix__f" fill="#fff">
                <use xlink:href="#prefix__e"/>
            </mask>
            <path d="M.029 35.742c0 2.392 1.264 4.61 3.316 5.818l17.023 10.023c4.29 2.525 9.572 2.556 13.86.083l12.227-7.051c2.017-1.163 3.286-3.302 3.355-5.651L50.844 3.29 27.93 16.507.029.079v35.663z" mask="url(#prefix__f)"/>
        </g>
        <g transform="translate(1) translate(149 203)">
            <mask id="prefix__h" fill="#fff">
                <use xlink:href="#prefix__g"/>
            </mask>
            <path d="M0.008 22.16L0.008 43.453 30.512 53.194 30.512 53.339 30.743 53.268 31.09 53.379 31.09 53.161 60.952 43.977 61.457 22.284 61.457 12.97 37.209 0.01z" mask="url(#prefix__h)"/>
        </g>
        <g transform="translate(1) translate(89 116)">
            <mask id="prefix__j" fill="#fff">
                <use xlink:href="#prefix__i"/>
            </mask>
            <path d="M0.102 8.292L0.102 27.106 14.444 35.713 14.444 35.841 14.553 35.778 14.715 35.876 14.715 35.684 28.756 27.569 28.756 8.269 28.777 8.257 14.554 0.037z" mask="url(#prefix__j)"/>
        </g>
        <g transform="translate(1) translate(71 124)">
            <mask id="prefix__l" fill="#fff">
                <use xlink:href="#prefix__k"/>
            </mask>
            <path d="M0.133 8.369L0.133 27.183 14.476 35.79 14.476 35.918 14.584 35.855 14.747 35.953 14.747 35.761 28.788 27.646 28.788 8.346 28.808 8.334 14.586 0.113z" mask="url(#prefix__l)"/>
        </g>
        <g transform="translate(1) translate(51 133)">
            <mask id="prefix__n" fill="#fff">
                <use xlink:href="#prefix__m"/>
            </mask>
            <path d="M0.216 8.301L0.216 27.116 14.558 35.723 14.558 35.851 14.667 35.788 14.83 35.886 14.83 35.694 28.87 27.579 28.87 8.279 28.891 8.267 14.668 0.047z" mask="url(#prefix__n)"/>
        </g>
        <g transform="translate(1) translate(19 169)">
            <mask id="prefix__p" fill="#fff">
                <use xlink:href="#prefix__o"/>
            </mask>
            <path d="M0.147 5.69L0.147 18.495 7.28 24.352 7.28 24.439 7.334 24.397 7.415 24.463 7.415 24.332 14.398 18.81 14.398 5.674 14.408 5.666 7.335 0.071z" mask="url(#prefix__p)"/>
        </g>
        <g>
            <path fill="#A8C4E5" d="M.094 71.245l29.03-10.254 18.451-31.212c.984-.577 2.486-.64 3.338-.14l28.642 16.783c.852.5.744 1.38-.24 1.956L13.594 87.727C12.61 88.304.946 71.745.094 71.245" transform="translate(1) translate(54 71)"/>
            <path fill="#FFBA82" d="M49.386 16.67L63.51 8.422 49.478 0.2 35.263 8.422z" transform="translate(1) translate(54 71)"/>
        </g>
        <g transform="translate(1) translate(103 80)">
            <mask id="prefix__s" fill="#fff">
                <use xlink:href="#prefix__q"/>
            </mask>
            <path fill="url(#prefix__r)" d="M0.195 8.437L0.207 56.877 14.48 48.623 14.48 18.256 14.48 0.184z" mask="url(#prefix__s)"/>
        </g>
        <path fill="#FFAF6F" d="M103.372 87.91L103.383 136.093 89.13 127.883 89.13 79.7z" transform="translate(1)"/>
        <path fill="#5F6CCF" d="M85.294 117.203L99.434 108.967 85.329 100.809 71.136 109.019z" transform="translate(1)"/>
        <path fill="#3B2AD1" d="M85.294 147.41L99.36 139.2 99.36 108.993 85.294 117.203z" transform="translate(1)"/>
        <path fill="#4852DB" d="M85.294 147.41L71.227 139.2 71.227 108.993 85.294 117.203z" transform="translate(1)"/>
        <path fill="#FFF" d="M66.29 139.947L80.483 131.737 66.378 123.578 52.046 131.772z" transform="translate(1)"/>
        <path fill="#DBEFFF" d="M66.538 159.149L52.046 150.445 52.046 131.772 66.538 139.982z" transform="translate(1)"/>
        <path fill="#BAD4F5" d="M66.269 159.114L66.269 139.947 80.462 131.737 80.462 150.904z" transform="translate(1)"/>
        <path fill="#2C1F9C" d="M122.16 85.202L109.061 110.869 91.113 132.509 74.74 144.308 65.388 158.458 67.33 159.637 76.577 146.077 92.327 134.98 111.076 112.257 123.616 87.095z" transform="translate(1)"/>
        <path fill="#2C1F9C" d="M119.263 86.262L124.71 83.139 124.395 89.953z" transform="translate(1)"/>
        <path stroke="#FFF" stroke-linecap="round" stroke-linejoin="round" stroke-width=".55" d="M128.293 194.951L153.342 180.57 174.576 192.834 194.407 180.916M83.962 247.871L110.154 262.999 160.234 235.002M40.339 183.314L61.573 195.577 28.996 214.613" transform="translate(1)"/>
        <path fill="#A8C4E5" d="M119.327 227.363l-28.88-16.706c-.86-.497-.751-1.373.24-1.947l28.199-16.311c.992-.574 2.507-.637 3.366-.14l28.881 16.706c.86.497.75 1.373-.241 1.947l-28.198 16.311c-.993.574-2.507.637-3.367.14" transform="translate(1)"/>
        <g transform="translate(1) translate(219.25 101.136)">
            <mask id="prefix__u" fill="#fff">
                <use xlink:href="#prefix__t"/>
            </mask>
            <path fill="#A8C4E5" d="M40.722 49.01L.8 25.918c-1.188-.687-1.038-1.898.334-2.691L40.112.68c1.37-.793 3.465-.88 4.653-.193l39.92 23.093c1.188.687 1.038 1.898-.333 2.691L45.375 48.817c-1.372.793-3.466.88-4.653.193" mask="url(#prefix__u)"/>
        </g>
        <path stroke="#FFF" stroke-linecap="round" stroke-linejoin="round" stroke-width=".55" d="M154.436 157.826l-24.048-13.91c-.716-.414-.625-1.144.2-1.622l23.48-13.581c.826-.478 2.087-.53 2.803-.116l24.048 13.91c.715.414.625 1.143-.201 1.622l-23.48 13.58c-.826.479-2.087.531-2.802.117zM204.43 186.464l-24.049-13.91c-.715-.415-.625-1.144.202-1.622l23.479-13.582c.826-.478 2.087-.53 2.802-.116l24.049 13.91c.715.414.625 1.144-.202 1.622l-23.479 13.581c-.826.478-2.087.53-2.803.117zM24.684 190.067L.636 176.157c-.715-.414-.625-1.144.201-1.622l23.48-13.581c.826-.478 2.087-.53 2.802-.117l24.049 13.911c.715.414.625 1.143-.202 1.621l-23.479 13.582c-.826.478-2.087.53-2.803.116z" transform="translate(1)"/>
        <path fill="#76A9FA" d="M69.838 254.23L45.79 240.32c-.716-.414-.625-1.143.201-1.621l23.48-13.582c.825-.478 2.087-.53 2.802-.116l24.048 13.91c.716.414.625 1.144-.201 1.622l-23.48 13.581c-.826.478-2.087.53-2.802.116" transform="translate(1)"/>
        <path stroke="#FFF" stroke-linecap="round" stroke-linejoin="round" stroke-width=".55" d="M69.838 254.23L45.79 240.32c-.716-.414-.625-1.143.201-1.621l23.48-13.582c.825-.478 2.087-.53 2.802-.116l24.048 13.91c.716.414.625 1.144-.201 1.622l-23.48 13.581c-.826.478-2.087.53-2.802.116z" transform="translate(1)"/>
        <g transform="translate(1) translate(176.095)">
            <mask id="prefix__w" fill="#fff">
                <use xlink:href="#prefix__v"/>
            </mask>
            <path fill="#BAD4F5" d="M95.51 52.683L60.567 32.471c-.133-.09-.269-.175-.408-.255L5.655.688C3.238-.71.216 1.038.216 3.834v82.358c0 3.321 1.769 6.39 4.64 8.05l61.909 35.812c.19.11.376.226.558.348l23.842 13.792c3.527 2.04 7.935-.51 7.935-4.59V58.913c0-2.57-1.368-4.945-3.59-6.23" mask="url(#prefix__w)"/>
        </g>
        <path fill="#4432DB" d="M235.635 113.565c.19.11.377.227.558.349l23.842 13.791c3.527 2.04 7.935-.51 7.935-4.59V65.26c0-2.57-1.368-4.945-3.59-6.23l-34.943-20.212c-.133-.09-.269-.175-.408-.255L174.525 7.035c-2.417-1.398-5.439.35-5.439 3.146v59.523c0 3.32 1.769 6.39 4.64 8.05l61.909 35.811z" transform="translate(1)"/>
        <path fill="#4432DB" d="M235.635 136.613c.19.11.377.226.558.348l23.842 13.791c3.527 2.04 7.935-.51 7.935-4.59V88.307c0-2.57-1.368-4.944-3.59-6.23l-34.943-20.212c-.133-.09-.269-.174-.408-.255l-54.504-31.528c-2.417-1.398-5.439.35-5.439 3.146v59.523c0 3.321 1.769 6.39 4.64 8.05l61.909 35.812z" transform="translate(1)"/>
        <path fill="#2C1F9C" d="M229.11 54.453c.227.13.448.269.663.413l38.197 22.095V65.204c0-2.57-1.369-4.944-3.59-6.23l-34.943-20.212c-.133-.09-.269-.174-.408-.255L174.525 6.979c-2.417-1.398-5.439.35-5.439 3.146v9.607l60.025 34.72z" transform="translate(1)"/>
        <path fill="#FFF" d="M255.474 115.736l-21.561-12.472c-1.333-.77-2.423-2.858-2.423-4.638v-21.05c0-1.78 1.09-2.606 2.423-1.836l21.561 12.473c1.333.77 2.423 2.858 2.423 4.638v21.05c0 1.78-1.09 2.606-2.423 1.835" transform="translate(1)"/>
        <path fill="#4432DB" d="M252.852 100.777c0 5.531-3.9 7.759-8.71 4.976-4.812-2.783-8.712-9.523-8.712-15.053 0-5.531 3.9-7.759 8.711-4.976 4.811 2.783 8.71 9.522 8.71 15.053" transform="translate(1)"/>
        <path fill="#21DED5" d="M250.85 106.006c1.25-1.01 2.002-2.801 2.002-5.229 0-1.517-.295-3.125-.82-4.717l-4.061-1.677-4.667 2.068v.25l7.546 9.305z" transform="translate(1)"/>
        <path fill="#FFAF6F" d="M243.304 96.451l11.247 2.09c-.755-4.454-3.252-9.17-6.537-12.498l-4.71 10.408z" transform="translate(1)"/>
        <path fill="#21DED5" d="M179.968 18.21c0 1.405-.991 1.971-2.214 1.264-1.223-.707-2.214-2.42-2.214-3.826 0-1.405.991-1.972 2.214-1.265 1.223.708 2.214 2.42 2.214 3.826" transform="translate(1)"/>
        <path fill="#607FFC" d="M185.91 21.696c0 1.405-.99 1.972-2.213 1.264-1.223-.707-2.214-2.42-2.214-3.826 0-1.405.991-1.971 2.214-1.264 1.222.707 2.213 2.42 2.213 3.826" transform="translate(1)"/>
        <path fill="#FFAF6F" d="M191.853 25.182c0 1.406-.991 1.972-2.214 1.265-1.223-.708-2.214-2.42-2.214-3.826 0-1.406.991-1.972 2.214-1.265 1.223.708 2.214 2.42 2.214 3.826" transform="translate(1)"/>
        <g transform="translate(1) translate(178 65)">
            <mask id="prefix__y" fill="#fff">
                <use xlink:href="#prefix__x"/>
            </mask>
            <path d="M.229 1.883V5.81L45.68 29.42V3.31c-2.472-2.827-4.694-1.556-7.758-.285-2.944 1.222-6.665 2.443-12.13.028-3.576-1.58-6.383-.755-8.597.07-1.6.596-2.89 1.191-3.937.88-4.235-1.26-2.38-1.155-5.91-2.966C6.108.399 5.018.166 4.089.166 1.566.166.228 1.883.228 1.883" mask="url(#prefix__y)"/>
        </g>
        <g>
            <path stroke="#FFF" stroke-linecap="round" stroke-linejoin="round" stroke-width=".55" d="M93.68 29.055L93.68 3.001M105.028 34.63L105.028 8.576M116.376 40.531L116.376 14.477M127.725 46.426L127.725 20.372M139.073 52.725L139.073 26.671" transform="translate(1) translate(85 42)"/>
            <path fill="#FFF" d="M138.941 24.106l-1.496-.864c-.166-.095-.301-.354-.301-.575 0-.22.135-.323.3-.227l1.497.864c.165.095.3.354.3.574 0 .221-.135.324-.3.228M138.816 54.04l-1.496-.865c-.005-.002-.01-.003-.014-.006l-1.112-.64c-.165-.096-.3.006-.3.227 0 .22.135.48.3.574l1.497.864.014.006 1.111.642c.165.095.3-.007.3-.228 0-.22-.135-.479-.3-.575M157.225 26.035l-2.71-1.564c-.009-.005-.017-.007-.026-.011l-2.012-1.162c-.03-.018-.06-.029-.09-.04l-1.641-.947-.025-.011-2.013-1.162c-.3-.173-.545.013-.545.412 0 .4.245.868.545 1.041l2.71 1.565c.009.005.017.006.025.01l2.013 1.162c.03.018.06.03.089.04l1.642.948c.009.005.017.006.025.01l2.013 1.162c.3.173.545-.012.545-.412 0-.4-.245-.868-.545-1.041M165.104 79.143l-2.71-1.564c-.008-.005-.017-.007-.025-.011l-2.013-1.162c-.03-.018-.06-.03-.089-.04l-1.642-.947-.025-.011-1.612-.93c-.02-.015-.039-.031-.059-.043l-2.71-1.564c-.009-.005-.016-.007-.025-.01l-2.012-1.163c-.031-.017-.06-.029-.09-.039l-1.642-.948c-.009-.005-.016-.006-.025-.01l-2.012-1.162c-.3-.174-.546.012-.546.412 0 .4.246.868.546 1.04l2.71 1.565c.008.005.016.007.025.011l2.012 1.162c.03.017.06.029.09.039l1.642.948c.008.005.016.007.025.011l1.611.93c.02.014.04.03.06.042l2.71 1.565c.008.005.016.006.025.01l2.012 1.162c.03.018.06.029.09.04l1.642.948.025.01 2.012 1.162c.3.173.545-.012.545-.412 0-.4-.245-.868-.545-1.041M156.37 79.266l-2.711-1.564c-.009-.005-.017-.007-.025-.01l-2.013-1.162c-.03-.018-.06-.03-.089-.04l-1.642-.948c-.009-.005-.017-.007-.025-.01l-2.013-1.162c-.3-.174-.545.012-.545.412 0 .4.246.868.545 1.04l2.71 1.565.026.011 2.012 1.162c.03.017.06.029.09.039l1.642.948c.008.005.016.007.025.011l2.012 1.162c.3.173.545-.013.545-.413 0-.399-.245-.868-.545-1.04M156.93 29.93l-2.71-1.564-.026-.011-2.013-1.162c-.03-.017-.06-.029-.089-.04l-1.642-.947c-.009-.005-.017-.007-.025-.01l-2.012-1.162c-.3-.174-.546.012-.546.411 0 .4.246.869.546 1.042l2.71 1.564.025.011 2.012 1.162c.03.017.06.028.09.039l1.642.948c.008.005.016.007.025.011l2.012 1.162c.3.173.545-.013.545-.413 0-.4-.245-.868-.545-1.04M126.373 47.195l-1.496-.864c-.005-.002-.01-.003-.014-.006l-1.111-.641c-.166-.096-.301.007-.301.227s.135.48.3.575l1.497.864.014.006 1.111.641c.166.096.301-.006.301-.227 0-.22-.135-.48-.3-.575M114.751 40.886l-1.496-.864-.014-.006-1.111-.642c-.166-.095-.302.007-.302.228 0 .22.136.48.302.575l1.496.864c.005.002.01.003.014.006l1.111.64c.166.097.301-.006.301-.226 0-.221-.135-.48-.3-.575M103.784 34.984l-1.497-.864c-.005-.002-.009-.003-.013-.006l-1.112-.641c-.165-.096-.3.007-.3.227 0 .221.135.48.3.575l1.497.864c.004.003.009.004.014.006l1.11.641c.166.096.302-.006.302-.227 0-.22-.136-.48-.301-.575M127.424 18.606l-1.497-.864c-.165-.095-.3-.354-.3-.575 0-.22.135-.323.3-.227l1.497.864c.165.095.3.354.3.575 0 .22-.135.323-.3.227M116.16 13.166l-1.497-.864c-.165-.095-.3-.354-.3-.575 0-.22.135-.323.3-.227l1.497.864c.165.095.301.354.301.574 0 .221-.136.323-.301.228M104.734 7.588l-1.497-.864c-.165-.095-.3-.354-.3-.574 0-.221.135-.323.3-.228l1.497.864c.165.096.3.354.3.575 0 .22-.135.323-.3.227M93.476 1.934L91.98 1.07c-.166-.096-.301-.354-.301-.575 0-.22.135-.323.3-.227l1.497.863c.166.096.301.355.301.575 0 .221-.135.323-.3.228" transform="translate(1) translate(85 42)"/>
            <path fill="#FBDDD3" d="M129.753 79.891l1.359 3.279c.932 2.247 4.08 2.349 5.154.165l4.465-9.072-1.846-.422-6.056 6.631-3.076-.58zM112.347 72.949l-3.18 12.411c-.172.65-1.259 9.602-1.259 9.602l-2.101-.42s-.197-9.494-.131-10.121l2.157-11.657 4.514.185z" transform="translate(1) translate(85 42)"/>
            <path fill="#FBDDD3" d="M106.721 93.577l.385-.033c.707-.06 1.334.47 1.393 1.176l.124 1.45c.06.707-.47 1.334-1.177 1.394l-.385.032c-.707.06-1.334-.47-1.394-1.176l-.123-1.45c-.06-.706.47-1.334 1.177-1.393M142.348 72.806l.165.35c.302.64.025 1.412-.616 1.715l-1.316.621c-.642.303-1.415.026-1.718-.616l-.164-.35c-.302-.64-.025-1.413.616-1.715l1.316-.621c.642-.304 1.415-.026 1.717.616" transform="translate(1) translate(85 42)"/>
            <path fill="#76A9FA" d="M124.966 73.598l3.097 8.775c.44.681 6.774-2.523 6.233-3.57-.095-.184-3.467-10.784-7.094-12.495-2.945-1.39-3.864 3.291-2.236 7.29" transform="translate(1) translate(85 42)"/>
            <path stroke="#FFF" stroke-linecap="round" stroke-linejoin="round" stroke-width=".55" d="M127.194 79.91s3.494-.032 6.312-3.423" transform="translate(1) translate(85 42)"/>
            <path fill="#76A9FA" d="M114.903 71.603l-3.097 8.775c-.44.682-6.775-2.523-6.234-3.57.096-.184 3.468-10.784 7.094-12.495 2.946-1.39 3.864 3.292 2.237 7.29" transform="translate(1) translate(85 42)"/>
            <path stroke="#FFF" stroke-linecap="round" stroke-linejoin="round" stroke-width=".55" d="M112.675 77.916s-3.495-.033-6.312-3.424" transform="translate(1) translate(85 42)"/>
            <path fill="#FBDDD3" d="M120.764 66.102l-.25-.016c-.842-.053-1.487-.785-1.434-1.627l.3-4.75c.052-.841.785-1.487 1.628-1.434l.249.016c.843.053 1.488.785 1.435 1.628l.384 4.605c-.054.842-1.47 1.631-2.312 1.578" transform="translate(1) translate(85 42)"/>
            <path fill="#FBDDD3" d="M120.365 60.21c.99 2.063 2.708 2.4 3.834.752 1.127-1.648 1.237-4.657.246-6.72-.99-2.064-2.708-2.4-3.835-.752-1.126 1.648-1.236 4.657-.245 6.72" transform="translate(1) translate(85 42)"/>
            <path fill="#21DED5" d="M120.034 54.559s.794 4.17-2.469 5.363c0 0-3.922-1.89-1.465-6.146 2.166-3.752 6.27-1.328 6.27-1.328l-2.336 2.11z" transform="translate(1) translate(85 42)"/>
            <path fill="#21DED5" d="M124.823 55.247s-1.22-1.407-3.527-1.089l1.075-1.71s1.763-.445 2.452 2.8" transform="translate(1) translate(85 42)"/>
            <path fill="#21DED5" d="M118.475 57.16c.696-1.1 2.408-1.154 4.913-.391 2.257-.03 2.378-2.623 2.378-2.623.254-1.397-.7-1.948-2.096-2.202l-3.638-.662c-2.059-.386-3.891 1.42-4.146 2.816l-.076.232c-.255 1.396 1.268 2.576 2.665 2.83" transform="translate(1) translate(85 42)"/>
            <path fill="#A8C4E5" d="M114.319 131.95c3.724 1.982 10.06 2.045 14.151.14 4.092-1.904 4.39-5.055.665-7.038-3.725-1.983-10.06-2.046-14.152-.141-4.091 1.904-4.388 5.056-.664 7.038" transform="translate(1) translate(85 42)"/>
            <path fill="#2C1F9C" d="M131.074 128.096l-3.991 3.338c-1.011.673-1.678.21-2.525.03-.38-.08-.645-.425-.643-.814l.004-.837c-.037-1.209 1.074-1.919 1.845-2.287l4.082-2.25c.771-.368 3.297.937 1.228 2.82M116.87 122.875l1.119 5.08c.374 2.662-3.882 3.104-4.106.22l-.082-5.512c.03-.854 2.353-2.491 3.07.212" transform="translate(1) translate(85 42)"/>
            <path fill="#C6D2F2" d="M127.29 128.758c.01 1.235-2.994 1.26-3.004.025l-.033-4.014 3.004-.024.033 4.013zM117.409 126.3c0 1.235-3.005 1.235-3.005 0v-4.013h3.005v4.013z" transform="translate(1) translate(85 42)"/>
            <path fill="#3B2AD1" d="M117.81 125.16c-1.178.845-3.125.826-3.775-.157-.77-14.691-3.184-24.512-3.034-37.073l9.335-2.768c-1.664 15.08-1.84 28.329-2.526 39.999" transform="translate(1) translate(85 42)"/>
            <path fill="#3B2AD1" d="M127.628 126.533c-.951 1.328-3.1 1.337-3.734.378l-6.29-39.613h10.844l-.82 39.235z" transform="translate(1) translate(85 42)"/>
            <path fill="#76A9FA" d="M110.627 86.902c.777-4.262 1.039-9.09.335-14.975 0-8.148 1.125-8.161 6.588-8.49l1.273-.081c1.56-.099 3.12.206 4.526.89 4.825 2.344 7.163 2.892 6.185 8.68L128.448 87.3c0 7.398-18.216 8.301-17.821-.397" transform="translate(1) translate(85 42)"/>
            <path fill="#2C1F9C" d="M125.446 75.406L128.118 86.497 128.438 87.577 128.831 82.231z" transform="translate(1) translate(85 42)"/>
            <path fill="#21DED5" d="M117.317 61.23c.99 2.063 3.45 2.453 4.577.805 1.127-1.648 2.661-4.918 1.67-6.98-.991-2.064-6.808-1.952-7.935-.304-1.127 1.649.697 4.415 1.688 6.479M70.436 40.76s4.183 1.756 11.659-8.32c1.513-2.04 3.466-9.289 3.466-9.289l-1.801-.803s-2.716 6.18-4.94 8.173c-2.985 2.673-11.161 6.275-11.516 7.625-.355 1.351 3.132 2.614 3.132 2.614" transform="translate(1) translate(85 42)"/>
            <path fill="#A8C4E5" d="M63.354 104.616c3.725 1.983 10.06 2.046 14.152.141 4.091-1.905 4.389-5.056.664-7.039-3.724-1.982-10.06-2.046-14.151-.14-4.092 1.904-4.39 5.055-.665 7.038" transform="translate(1) translate(85 42)"/>
            <path fill="#2C1F9C" d="M64.957 96.361l2.347-.294c1.57-.711 2.305-1.246 3.004-.842l.198.114c.7.404.611 1.116-.197 1.582l-3.45 2.74c-.807.466-1.895.319-2.54-.247 0 0-.386-.348-.11-1.814.157-.836.102-.866.748-1.239" transform="translate(1) translate(85 42)"/>
            <path fill="#FBDDD3" d="M67.732 96.463c-.188 1.621-3.161 1.621-3.161.386l1.647-37.435 9.915-2.794-8.401 39.843z" transform="translate(1) translate(85 42)"/>
            <path fill="#2C1F9C" d="M74.881 99.939l2.324.437c1.713-.197 2.575-.48 3.118.117l.153.17c.542.598.24 1.249-.67 1.445l-4.124 1.554c-.912.196-1.903-.277-2.343-1.012 0 0-.261-.45.45-1.761.406-.748.363-.793 1.092-.95" transform="translate(1) translate(85 42)"/>
            <path fill="#FBDDD3" d="M76.778 100.931c-.518 1.31-2.788 1.023-2.75-.052 1.061-12.971-1.38-25.222-4.527-37.142l9.521-1.03c.372 13.95.247 25.903-2.244 38.224" transform="translate(1) translate(85 42)"/>
            <path fill="#2C1F9C" d="M78.433 59.332L81.744 77.5s-8.227 8.152-17.64 0l1.059-17.06 13.27-1.108z" transform="translate(1) translate(85 42)"/>
            <path fill="#FBDDD3" d="M75.273 35.134c-.708 2.467-2.542 3.161-4.097 1.551-1.555-1.61-2.242-4.915-1.534-7.382.708-2.467 2.542-3.161 4.097-1.55 1.555 1.61 2.242 4.915 1.534 7.381" transform="translate(1) translate(85 42)"/>
            <path fill="#FBDDD3" d="M77.874 34.351c-.708 2.467-3.353 3.36-4.908 1.75-1.555-1.611-2.242-4.916-1.534-7.383.708-2.467 2.542-3.161 4.097-1.55 1.555 1.61 3.053 4.716 2.345 7.183" transform="translate(1) translate(85 42)"/>
            <path fill="#FBDDD3" d="M71.89 41.47l-.265-.06c-.893-.198-1.461-1.092-1.262-1.985l1.124-5.036c.199-.892 1.093-1.46 1.986-1.261l.265.059c.893.2 1.46 1.093 1.262 1.986l-.369 4.997c-.199.893-1.848 1.499-2.741 1.3" transform="translate(1) translate(85 42)"/>
            <path fill="#4432DB" d="M69.778 34.706s-.306 1.71 2.68 1.875c2.389.132 1.679-4.187 4.047-4.573 2.606-.425 3.078-3.643 2.051-4.879-1.026-1.234-3.896-1.88-5.975-.964-2.078.916-6.443 1.585-2.803 8.54" transform="translate(1) translate(85 42)"/>
            <path fill="#FBDDD3" d="M76.515 33.345c-.172.6-.798.947-1.398.775-.6-.172-.947-.798-.774-1.398.171-.6.798-.946 1.398-.774.6.172.946.798.774 1.397" transform="translate(1) translate(85 42)"/>
            <path fill="#21DED5" d="M65.12 60.248c.843-4.622-.064-8.274.01-13.188 0-8.835-.424-10.99 4.248-9.647l1.316.35c.632.168 1.246.406 1.827.705 6.16 3.172 7.803 4.151 7.533 7.831.028 6.061-2.795 7.297-1.294 12.603-1.27 4.192-12.231 4.346-13.64 1.346" transform="translate(1) translate(85 42)"/>
            <path fill="#2C1F9C" d="M74.872 36.911l-.268-.618s.477.477 1.385.36c0 0-.536.307-1.117.258M72.159 29.857c0 1.38-.964 2.5-2.152 2.5-1.189 0-2.152-1.12-2.152-2.5s.963-2.5 2.152-2.5c1.188 0 2.152 1.12 2.152 2.5" transform="translate(1) translate(85 42)"/>
            <path fill="#4432DB" d="M69.95 29.077c.103-1.281-1.644-1.844-2.329-.757-.224.355-.423.851-.578 1.535-.868 3.843-7.344 3.286-4.168 10.049 0 0-2.89 4.437 2.482 6.306 2.748.957 2.687-6.12 2.687-6.12s1.097-3.254 2.156-5.807c.496-1.197.545-2.56.015-3.743-.217-.485-.303-.973-.264-1.463" transform="translate(1) translate(85 42)"/>
            <path fill="#2C1F9C" d="M70.656 37.155c-.512-.124-.983.325-.896.845.097.575.45 1.265 1.502 1.621 1.456.493 3.056.228 3.826.045.182-.043.218-.284.059-.383-.867-.535-2.949-1.756-4.491-2.128" transform="translate(1) translate(85 42)"/>
            <path fill="#FFF" d="M92.104 29.051l-1.496-.863-.014-.006-1.111-.642c-.166-.096-.302.007-.302.227 0 .221.136.48.302.575l1.496.864.014.006 1.111.641c.166.096.301-.006.301-.227 0-.22-.135-.48-.3-.575M88.763 46.589L81.745 42.523 85.875 30.449 92.893 34.514z" transform="translate(1) translate(85 42)"/>
            <path fill="#21DED5" d="M85.105 40.453L83.639 39.538 84.491 36.915 85.957 37.83z" transform="translate(1) translate(85 42)"/>
            <path fill="#4432DB" d="M86.902 41.575L85.436 40.66 85.993 38.944 87.459 39.86z" transform="translate(1) translate(85 42)"/>
            <path fill="#FFAF6F" d="M88.754 42.731L87.288 41.816 88.405 38.376 89.871 39.291z" transform="translate(1) translate(85 42)"/>
            <path fill="#9EBBDE" d="M90.385 36.303l-.74-.474-.006-.005-3.616-2.318c-.118-.076-.27-.033-.337.095-.066.129-.024.296.094.372l.74.474.007.005 3.615 2.318c.119.076.27.033.337-.095.067-.129.024-.296-.094-.372M89.142 37.101c.024-.089-.004-.17-.074-.216l-3.399-2.18c-.118-.076-.27-.033-.336.096-.067.128-.025.295.093.371l.74.474.007.006 2.563 1.643c.133.085.36-.024.406-.194M86.55 36.88c.014-.07-.011-.133-.066-.169l-1.183-.758c-.118-.076-.27-.033-.336.095-.067.129-.025.296.093.372l.74.474.007.005.437.28c.094.061.257-.022.28-.142l.029-.157z" transform="translate(1) translate(85 42)"/>
            <path fill="#21DED5" d="M74.492 45s6.04 14.682 12.632 7.61c6.591-7.074 4.276-12.061 4.276-12.061l-.884-.24s-2.681 8.882-5.535 8.003c-2.853-.878-6.73-6.362-8.102-6.62C75.506 41.433 74.492 45 74.492 45" transform="translate(1) translate(85 42)"/>
            <path fill="#FBDDD3" d="M84.03 22.843l.366.184c.67.336 1.495.062 1.832-.609l.69-1.375c.337-.672.063-1.496-.608-1.833l-.367-.183c-.67-.337-1.496-.063-1.832.608l-.69 1.376c-.337.671-.063 1.496.608 1.832M90.034 43.2l.4.09c.732.163 1.466-.302 1.63-1.035l.335-1.502c.164-.733-.302-1.466-1.035-1.63l-.4-.09c-.733-.162-1.466.303-1.63 1.036l-.336 1.502c-.163.733.302 1.466 1.036 1.63" transform="translate(1) translate(85 42)"/>
            <path fill="#4432DB" d="M34.665 186.305l12.382-7.147c2.042-1.179 3.328-3.332 3.397-5.689l1.048-35.787-23.207 13.395L.03 134.767v35.773c0 2.398 1.28 4.615 3.358 5.814l17.24 9.951c4.344 2.507 9.694 2.507 14.038 0" transform="translate(1) translate(85 42)"/>
            <path fill="#2C1F9C" d="M50.63 166.932c-.07 2.357-1.392 4.565-3.441 5.744l-12.42 7.146c-4.356 2.507-9.723 2.508-14.079 0l-17.293-9.95c-2.084-1.2-3.368-3.416-3.368-5.815v6.543c0 2.398 1.284 4.615 3.368 5.814l17.293 9.951c4.356 2.507 9.723 2.507 14.08 0l12.419-7.147c2.049-1.179 3.339-3.332 3.408-5.689l.033-6.597z" transform="translate(1) translate(85 42)"/>
            <path fill="#FFF" d="M25.169 150.247l-24.257-14c-1.177-.68-1.177-2.379 0-3.058l20.397-11.774c2.2-1.269 4.91-1.269 7.11 0l21.927 12.656c1.91 1.103 1.91 3.86 0 4.962l-19.43 11.214c-1.778 1.027-3.969 1.027-5.747 0" transform="translate(1) translate(85 42)"/>
            <path fill="#BAD4F5" d="M25.25 148.719l-21.969-12.68c-1.066-.616-1.066-2.154 0-2.77l18.474-10.662c1.992-1.15 4.446-1.15 6.438 0l19.859 11.462c1.73.998 1.73 3.495 0 4.493L30.456 148.72c-1.611.93-3.595.93-5.206 0" transform="translate(1) translate(85 42)"/>
            <path fill="#2F35C2" d="M39.514 139.764l-22.977-13.262c-.94-.543-1.045-1.358-.234-1.82l5.19-2.958c.81-.462 3.343-.881 4.283-.339l23.052 13.126c.94.543.67 1.516-.142 1.978l-6 3.42c-.811.463-2.231.398-3.172-.145" transform="translate(1) translate(85 42)"/>
            <path fill="#A8C4E5" d="M34.335 131.166s-.13.072-.14.084c-.004.005-.05.056-.07.075l-.077.063c-.027.02-5.79 3.564-5.79 3.564l-.003.948 5.703-3.504.088-.06.026-.021c.017-.014.035-.028.05-.042.021-.02.04-.039.057-.059l.014-.016.016-.018.011-.017.033-.049.011-.017.007-.013c.008-.015.014-.03.02-.044l.01-.021.003-.011c.005-.014.01-.029.013-.043l.007-.024v-.009c.003-.015.004-.03.006-.046l.002-.024v-.013l.003-.683z" transform="translate(1) translate(85 42)"/>
            <path fill="#A8C4E5" d="M28.234 134.965c-.038.023-.078.043-.12.063l-.038.017c-.046.02-.093.038-.142.054l-.008.003c-.041.013-.083.025-.126.036l-.018.004c-.037.009-.074.017-.112.024l-.014.002c-.048.008-.098.015-.147.02l-.055.006-.086.005-.062.003h-.074l-.065-.001-.07-.004-.065-.005-.068-.008-.065-.009-.072-.012-.06-.012c-.029-.006-.058-.014-.086-.021l-.048-.013c-.051-.014-.1-.031-.149-.05l-.07-.03-.036-.015c-.036-.017-.07-.035-.103-.054l-4.42-2.55c-.273-.158-.409-.077-.408-.283l-.003.66c0 .206.136.413.409.57l4.419 2.551c.033.02.068.037.103.054l.036.015c.02.01.04.019.061.027l.01.003c.048.019.097.036.148.05l.01.004.038.01.087.02.019.005.04.007.073.013c.008 0 .016.003.024.004l.04.004.068.008c.009 0 .018.002.026.003l.04.002.07.004.027.001h.142l.031-.003c.029-.001.058-.003.086-.006.012 0 .024 0 .035-.002l.02-.002c.05-.006.099-.012.147-.02l.012-.003h.003c.037-.007.074-.015.11-.024l.02-.004c.042-.01.084-.023.125-.036h.002l.006-.003c.049-.016.096-.034.142-.054l.039-.017c.041-.02.081-.04.12-.063l.014-.007.01-.006.002-.948-.024.013" transform="translate(1) translate(85 42)"/>
            <path fill="#F5F9FF" d="M33.927 130.636c.531.306.546.801.034 1.116l-5.703 3.505c-.534.327-1.43.335-1.983.016l-4.42-2.551c-.552-.32-.543-.838.022-1.149l6.033-3.313c.542-.298 1.397-.291 1.928.015l4.09 2.36z" transform="translate(1) translate(85 42)"/>
            <path fill="#659ADB" d="M24.224 130.28L30.451 133.909 31.92 133.029 25.778 129.456z" transform="translate(1) translate(85 42)"/>
            <path fill="#45446C" d="M30.451 133.909L30.451 134.551 32.307 133.411 32.307 132.82z" transform="translate(1) translate(85 42)"/>
            <path fill="#659ADB" d="M47.15 120.917v-.003-.03l-.002-.03v-.004-.004l-.002-.021-.003-.03-.003-.014v-.006l-.002-.01-.005-.03-.005-.027v-.001l-.008-.03-.007-.03-.003-.008c0-.002 0-.004-.002-.006 0-.005-.002-.01-.004-.016l-.009-.028-.007-.02-.001-.004-.002-.003-.01-.027-.01-.025-.004-.01-.002-.005-.005-.01-.012-.027-.012-.026-.001-.002-.003-.004c-.004-.01-.009-.018-.014-.027l-.014-.025-.01-.017c0-.003-.002-.005-.004-.008l-.025-.04-.008-.012-.001-.002-.034-.05-.005-.006-.005-.006-.013-.016-.021-.027-.008-.01-.005-.005-.008-.009-.021-.024-.017-.018-.003-.003-.003-.003-.024-.023-.025-.024h-.001l-.025-.022-.027-.022-.003-.003-.004-.003-.02-.015-.027-.019-.007-.005-.003-.002-.017-.01-.027-.018-.149-.085-.813.44.203.119.027.018c.01.006.019.012.027.019.01.006.018.013.027.02l.011.01c.014.01.028.023.042.035l.04.038.005.005.037.04.006.005.034.04.006.008.032.042.016.022.018.027.02.032.014.022.01.019.02.033.004.01.024.047.002.004.022.05.002.006.019.05.002.007.016.05.002.007c.005.017.01.034.013.05l.002.008c.004.017.008.033.01.05l.002.007.007.05.001.008.005.05v.026l.001.03v.03l-.003.032-.003.033-.004.026-.007.046-2.813 17.376c-.013.083-.333.611-.261.57l.77-.652c.162-.138.27-.33.304-.54l2.76-17.05.033-.207.004-.026.002-.021v-.002-.003l.001-.007.002-.03v-.026-.003" transform="translate(1) translate(85 42)"/>
        </g>
        <g transform="translate(1) translate(100 147)">
            <mask id="prefix__A" fill="#fff">
                <use xlink:href="#prefix__z"/>
            </mask>
            <path d="M2.86.538L.037 18.302c-.062.392.181.882.544 1.095l26.724 15.708c.363.213.707.069.77-.323l2.823-17.765c.062-.391-.181-.881-.544-1.094L3.629.215c-.114-.067-.225-.1-.327-.1-.223 0-.4.154-.442.423" mask="url(#prefix__A)"/>
        </g>
        <g>
            <path fill="#B5CFEA" d="M102.942 18.667L76.174 3.22h-.002l-.04-.024-.071-.04-.028-.015-.028-.013-.028-.012-.029-.01-.029-.01-.031-.009h-.005l-.027-.007-.013-.002-.011-.002-.009-.001-.033-.004h-.002l-.039-.001h-.021l-.02.002h-.006l-.027.005c-.005 0-.01 0-.015.002h-.004c-.018.004-.035.009-.052.015l-.004.001-.006.002c-.022.009-.043.018-.064.03l-.786.457c.02-.012.042-.021.063-.03l.026-.008.03-.008.04-.007.014-.002c.018-.002.036-.003.055-.002h.01c.02 0 .038.002.058.005h.004c.02.003.042.008.063.013l.005.001.062.02.006.003c.023.008.045.018.067.029l.028.014.021.012.148.086 26.81 15.47c.031.018.069.018.1 0l.588-.342c.066-.038.066-.133 0-.171z" transform="translate(1) translate(29 141)"/>
            <path fill="#659ADB" d="M103.65 19.72v-.003-.03l-.002-.03v-.004-.004l-.003-.021-.003-.03-.002-.014v-.005l-.002-.01-.005-.03-.006-.028v-.002l-.007-.03-.008-.029-.002-.008-.002-.005-.005-.016c-.002-.01-.005-.019-.009-.028l-.007-.021-.001-.003-.001-.004-.01-.026-.01-.026-.005-.01-.002-.005-.004-.01-.012-.026-.013-.026v-.003l-.003-.004-.014-.027-.014-.025-.01-.017-.004-.007-.025-.04-.008-.013-.002-.002c-.01-.017-.022-.033-.034-.049l-.005-.007-.005-.006-.012-.016-.021-.026-.009-.01-.004-.005-.008-.01-.022-.023c-.005-.007-.01-.012-.017-.018l-.003-.003-.002-.003-.024-.024-.026-.023v-.001l-.026-.022-.026-.022-.003-.002-.004-.003-.02-.015-.027-.02c-.003 0-.005-.003-.008-.004l-.002-.002h-.001l-.016-.011-.028-.017-.653-.377-.803.484s.689.36.698.366l.027.018.027.02.027.02.01.009c.015.011.029.023.042.035l.04.039.006.005.037.039.005.006.034.04.006.007.032.042.016.022.019.028.02.032c.005.007.01.014.013.021l.011.02.02.033c0 .003.002.006.004.009l.023.047.002.004.022.051.003.005.018.05.003.007.016.05.002.008.013.05.002.007.01.05.001.008.008.05v.007c.003.017.004.034.005.05l.001.026v.061l-.002.031c0 .011-.002.022-.004.033 0 .009-.002.017-.003.026l-.008.046-2.812 17.372c-.014.083-.334.611-.261.57l.769-.652c.162-.138.27-.33.305-.54l2.76-17.046.033-.206.003-.026.003-.022v-.001-.003-.008l.003-.03v-.029z" transform="translate(1) translate(29 141)"/>
            <path fill="#2F29C2" d="M102.304 19.209c.367.212.613.698.55 1.086L100 37.92c-.062.389-.41.532-.777.32L72.216 22.656c-.367-.212-.613-.698-.55-1.086L74.52 3.945c.063-.389.41-.533.777-.32l27.008 15.584z" transform="translate(1) translate(29 141)"/>
            <path fill="#B5CFEA" d="M103.422 15.734L76.654.288l-.002-.002-.04-.023-.07-.04-.028-.015-.028-.013-.028-.012-.03-.01-.029-.01-.03-.009h-.006l-.026-.007-.014-.002-.011-.002-.008-.001-.033-.004h-.003l-.039-.001h-.004l-.017.001-.02.001h-.006l-.027.005c-.005 0-.01 0-.015.002h-.003c-.018.004-.036.01-.053.015l-.004.001c-.002 0-.003.002-.005.003-.023.008-.044.017-.064.03l-.786.456c.02-.012.04-.02.062-.03l.026-.008.031-.008.039-.007.014-.002c.018-.002.037-.002.055-.002h.01c.02 0 .039.002.058.005h.005l.062.013.005.001.063.02.006.003c.022.008.044.018.067.03l.027.013.022.012.148.086 26.81 15.47c.03.018.068.018.099 0l.589-.342c.065-.038.065-.133 0-.171z" transform="translate(1) translate(29 141)"/>
            <path fill="#659ADB" d="M104.13 16.787v-.003-.03l-.002-.03v-.004-.004l-.002-.02-.003-.03-.003-.014v-.006l-.002-.01-.005-.03-.006-.028v-.002l-.007-.03-.007-.029-.003-.008c0-.001 0-.003-.002-.005l-.004-.016-.01-.028-.007-.021v-.003l-.002-.004-.01-.026-.01-.026-.004-.01-.002-.005-.005-.01-.012-.026-.012-.026-.001-.002-.003-.004-.014-.028-.014-.025-.01-.016c0-.003-.002-.005-.004-.008l-.025-.04-.008-.013-.001-.002-.035-.048-.004-.007-.005-.006-.013-.017-.021-.026-.008-.01-.005-.005-.008-.01-.022-.023-.016-.018-.003-.003-.003-.003-.024-.024-.025-.023-.001-.001-.025-.022-.027-.022-.003-.002-.004-.003-.02-.015-.027-.02-.007-.004-.003-.002-.017-.011-.027-.017-.654-.377-.803.484s.69.36.698.366l.027.018.027.02c.01.006.018.013.027.02l.011.009.042.035.04.039.005.005.037.039.006.006.034.04.006.007.032.042.016.022.018.028.02.032.014.021.01.02.02.033.004.009.024.047c0 .002 0 .003.002.004l.022.051.002.006.019.05.002.006.016.05.002.008c.005.016.01.033.013.05l.002.007c.004.017.008.034.01.05l.002.008.007.05.001.007c.002.017.004.034.004.05l.001.026.001.03-.001.031c0 .01 0 .02-.002.031l-.003.033-.004.026-.007.046-2.813 17.372c-.013.083-.333.612-.261.57l.77-.652c.162-.138.27-.33.304-.54l2.76-17.046.033-.206.004-.026.002-.022v-.001-.003l.001-.007.002-.031v-.025-.004" transform="translate(1) translate(29 141)"/>
            <path fill="#2F29C2" d="M102.784 16.276c.367.212.613.698.55 1.086l-2.853 17.625c-.063.389-.41.532-.777.32L72.696 19.723c-.366-.212-.612-.698-.55-1.086L75 1.012c.063-.389.41-.532.778-.32l27.007 15.584z" transform="translate(1) translate(29 141)"/>
            <path fill="#D9EAFF" d="M101.34 20.343c.347.197.583.62.526.946l-2.58 14.787c-.057.326-.385.43-.733.233L72.937 21.805c-.348-.197-.584-.62-.527-.946l2.58-14.787c.057-.325.385-.43.733-.233l25.617 14.504z" transform="translate(1) translate(29 141)"/>
            <path fill="#FFF" d="M89.068 12.583c0 .17-.12.238-.268.153-.148-.085-.268-.292-.268-.462 0-.17.12-.238.268-.153.148.086.268.292.268.462" transform="translate(1) translate(29 141)"/>
            <path fill="#D9EAFF" d="M101.853 17.37c.348.198.584.62.527.947L99.8 33.103c-.058.326-.386.43-.733.234L73.45 18.833c-.347-.197-.583-.62-.526-.946L75.504 3.1c.057-.326.385-.43.732-.234l25.617 14.505z" transform="translate(1) translate(29 141)"/>
            <path fill="#FFF" d="M89.581 9.61c0 .17-.12.239-.268.153-.148-.085-.268-.292-.268-.461 0-.17.12-.238.268-.153.148.085.268.292.268.462" transform="translate(1) translate(29 141)"/>
            <path fill="#FBDDD3" d="M31.797 38.42l-1.6 4.839c-1.415 4.282-1.216 8.935.561 13.081l2.269 5.294 2.13-1.652-1.538-6.233c-.458-1.854-.34-3.795.281-5.601.877-2.55 1.458-6.648-2.103-9.727" transform="translate(1) translate(29 141)"/>
            <path fill="#E09A62" d="M37.122 38.53l-.857 9.61c-.313.767-7.295-1.261-6.948-2.416.06-.203 1.452-11.507 4.778-13.914 2.702-1.955 3.91 2.389 3.027 6.72" transform="translate(1) translate(29 141)"/>
            <path fill="#A8C4E5" d="M33.28 103.488c4.012 2.135 10.836 2.203 15.243.151 4.406-2.05 4.727-5.444.715-7.579-4.011-2.135-10.836-2.203-15.242-.152-4.407 2.051-4.727 5.445-.716 7.58" transform="translate(1) translate(29 141)"/>
            <path fill="#2C1F9C" d="M33.181 95.342l2.527-.317c1.692-.766 2.483-1.342 3.236-.907l.213.123c.754.435.658 1.201-.212 1.704l-3.716 2.95c-.87.502-2.042.344-2.736-.266 0 0-.416-.374-.118-1.953.17-.9.11-.932.806-1.334M44.29 101.304l2.503.47c1.845-.211 2.774-.517 3.358.127l.166.183c.584.644.258 1.345-.724 1.556l-4.44 1.673c-.982.212-2.05-.298-2.524-1.09 0 0-.281-.484.485-1.896.437-.805.39-.854 1.176-1.023" transform="translate(1) translate(29 141)"/>
            <path fill="#C6D2F2" d="M46.034 101.92c0 1.265-3.077 1.265-3.077 0v-4.108h3.077v4.109z" transform="translate(1) translate(29 141)"/>
            <path fill="#3B2AD1" d="M46.422 99.324c-1.01 1.434-3.212 1.443-3.835.408L37.24 56.974h11.106l-1.925 42.35z" transform="translate(1) translate(29 141)"/>
            <path fill="#C6D2F2" d="M35.56 95.844c-.07 1.145-3.147 1.145-3.077 0l.228-3.72h3.077l-.228 3.72z" transform="translate(1) translate(29 141)"/>
            <path fill="#3B2AD1" d="M36.163 94.191c-1.229 1.265-3.647.725-4.112-.188l1.63-37.067 7.732 1.145-5.25 36.11z" transform="translate(1) translate(29 141)"/>
            <path fill="#FBDDD3" d="M44.292 29.41c-.763 2.657-2.738 3.405-4.413 1.671-1.675-1.734-2.415-5.293-1.652-7.95.762-2.656 2.738-3.403 4.413-1.67 1.675 1.735 2.414 5.294 1.652 7.95" transform="translate(1) translate(29 141)"/>
            <path fill="#FBDDD3" d="M47.093 28.567c-.763 2.657-3.612 3.618-5.287 1.884-1.674-1.734-2.414-5.293-1.652-7.95.763-2.656 2.739-3.403 4.414-1.67 1.675 1.735 3.287 5.08 2.525 7.736" transform="translate(1) translate(29 141)"/>
            <path fill="#FBDDD3" d="M40.647 36.233l-.284-.064c-.963-.214-1.574-1.176-1.36-2.138l1.21-5.422c.215-.962 1.178-1.573 2.14-1.359l.285.064c.962.214 1.574 1.177 1.36 2.138l-.398 5.381c-.214.962-1.99 1.614-2.953 1.4" transform="translate(1) translate(29 141)"/>
            <path fill="#4432DB" d="M37.414 28.967s.288 2.502 3.845 2.002c2.552-.36 1.809-4.51 4.36-4.926 2.807-.457 3.315-3.922 2.21-5.252-1.107-1.33-4.198-2.025-6.436-1.039-2.24.987-5.691.929-3.98 9.215" transform="translate(1) translate(29 141)"/>
            <path fill="#FBDDD3" d="M45.63 27.485c-.186.645-.86 1.019-1.506.833-.646-.185-1.02-.859-.835-1.505.186-.646.86-1.019 1.506-.834.646.186 1.02.86.834 1.506" transform="translate(1) translate(29 141)"/>
            <path fill="#FFAF6F" d="M33.356 56.454c.908-4.977-.068-8.91.01-14.202 0-9.513-.456-11.834 4.576-10.387l1.418.376c.68.181 1.342.437 1.968.76 6.634 3.416 8.404 4.47 8.113 8.432.03 6.527-.932 13.847-1.07 17.058-1.367 4.513-13.498 1.193-15.015-2.037" transform="translate(1) translate(29 141)"/>
            <path fill="#2C1F9C" d="M43.86 31.324l-.29-.666s.515.514 1.492.388c0 0-.576.33-1.203.278" transform="translate(1) translate(29 141)"/>
            <path fill="#FBDDD3" d="M44.097 38.5s1.448 6.613 9.704 15.345c2.27 2.401 11.812-6.52 11.812-6.52l-.735-3.32s-7.9 7.578-10.023 4.707C52.46 45.477 50.823 35.537 44.097 38.5" transform="translate(1) translate(29 141)"/>
            <path fill="#FFAF6F" d="M45.62 43.34l4.098 8.736c.558.615 6.422-3.68 5.7-4.647-.126-.17-5.305-10.314-9.255-11.437-3.208-.912-2.855 3.582-.542 7.349" transform="translate(1) translate(29 141)"/>
            <path fill="#FBDDD3" d="M67.432 46.271l-1.057.779c-.812.599-1.966.425-2.565-.387-.599-.811-.424-1.965.388-2.563l1.056-.78c.812-.598 1.966-.424 2.565.388.6.81.425 1.965-.387 2.563" transform="translate(1) translate(29 141)"/>
            <path fill="#2C1F9C" d="M49.02 50.588L46.708 45.659 48.371 55.467z" transform="translate(1) translate(29 141)"/>
            <path stroke="#FFF" stroke-linecap="round" stroke-linejoin="round" stroke-width=".55" d="M142.617 8.054L165.175 21.559M54.855 89.831L68.175 82.172M29.588 89.831L.226 72.949" transform="translate(1) translate(29 141)"/>
        </g>
        <g transform="translate(1) translate(223 187)">
            <mask id="prefix__C" fill="#fff">
                <use xlink:href="#prefix__B"/>
            </mask>
            <path d="M0.225 5.688L0.614 26.485 19.597 50.712 22.113 50.712 37.6 28.552 37.721 18.927 22.446 0.019z" mask="url(#prefix__C)"/>
        </g>
        <g>
            <path fill="#A8C4E5" d="M40.185 18.313c8.502-4.995 8.458-13.119-.096-18.146l-4.016 2.36C27.703-.335 16.828.321 9.698 4.51c-8.5 4.995-8.457 13.12.097 18.146 8.555 5.027 22.381 5.052 30.882.057l-15.49-9.101 3.499-2.056 11.5 6.757z" transform="translate(1) translate(223 183)"/>
            <path fill="#4432DB" d="M37.551 24.263c-8.501 4.995-22.328 4.97-30.882-.057-8.555-5.026-8.598-13.15-.097-18.146 8.501-4.995 22.328-4.97 30.882.057l-15.392 9.044 15.489 9.102z" transform="translate(1) translate(223 183)"/>
            <path fill="#BAD0E6" d="M37.551 17.078v7.185c-3.647 2.142-8.185 3.47-13.207 3.668l-.452.023-.14-7.179c-.599-3.132 11.512-3.754 13.799-3.697" transform="translate(1) translate(223 183)"/>
        </g>
        <g transform="translate(1) translate(259 178)">
            <mask id="prefix__F" fill="#fff">
                <use xlink:href="#prefix__D"/>
            </mask>
            <path fill="url(#prefix__E)" d="M.197 10.115l.478 8.292S9.371 14.57 6.96 2.35C6.645.756 6.182.12 5.645.12 3.514.12.197 10.116.197 10.116" mask="url(#prefix__F)"/>
        </g>
        <g>
            <path fill="#2C1F9C" d="M4.3 32.728c-5.856-4.265-5.805-18.565 1.74-20.978l5.701 7.944S7.381 34.912 7.21 34.812c-1.049-.604-2.011-1.307-2.909-2.084" transform="translate(1) translate(222 172)"/>
            <path fill="#4432DB" d="M38.197 12.806c-8.61-4.996-22.528-5.021-31.084-.056l15.59 9.045 15.494-8.989z" transform="translate(1) translate(222 172)"/>
            <path fill="#2C1F9C" d="M22.676 21.812l.027-.016-15.59-9.046c-2.125 1.232-5.31 3.855-6.39 5.772v2.797c7.1.335 16.9.265 21.953.493" transform="translate(1) translate(222 172)"/>
            <path fill="#5986FF" d="M38.294 27.724c-8.557 4.964-22.473 4.94-31.084-.057-8.61-4.996-8.654-13.07-.097-18.035s22.473-4.94 31.084.057l-15.493 8.989 15.59 9.046z" transform="translate(1) translate(222 172)"/>
            <path fill="#4432DB" d="M7.21 27.667c-8.61-4.995-8.654-13.07-.097-18.035l15.59 9.046-15.493 8.99z" transform="translate(1) translate(222 172)"/>
            <path fill="#ABCFFF" d="M38.197 9.689c-8.61-4.996-22.528-5.022-31.084-.057l15.59 9.046 15.494-8.99z" transform="translate(1) translate(222 172)"/>
            <path fill="#FFAF6F" d="M38.148.025c8.611 4.996 8.655 13.07.098 18.035L22.655 9.014 38.148.024z" transform="translate(1) translate(222 172)"/>
            <path fill="#2C1F9C" d="M22.676 18.694l.027-.016-15.59-9.046C3.248 11.874 1.139 14.75.779 17.691c7.1.335 16.844.776 21.897 1.003" transform="translate(1) translate(222 172)"/>
            <path fill="#FFF" d="M22.676 18.694l.027-.016 15.591 9.046c-3.864 2.242-8.821 3.466-13.89 3.674-.576-4.119-1.336-9.772-1.728-12.704" transform="translate(1) translate(222 172)"/>
        </g>
        <g transform="translate(1) translate(244 181)">
            <mask id="prefix__I" fill="#fff">
                <use xlink:href="#prefix__G"/>
            </mask>
            <path fill="url(#prefix__H)" d="M0.017 5.499L15.459 14.9 15.459 8.793 0.017 0.014z" mask="url(#prefix__I)"/>
        </g>
        <g>
            <path fill="#4432DB" d="M80.128 7.298V.168c1.19.698 2.464 1.287 3.816 1.776l-3.816 5.354z" transform="translate(1) translate(149 199)"/>
            <path fill="#A8C4E5" d="M42.346 7.613C41.173 6.93 40.558 5.025 39.2 5.81L3.693 26.367c-.706.408-1.082.926-1.118 1.426l-.005-.004.002.086c0 .023 0 .046.002.069l.051 1.82.002.002c-.181.557.053 1.12.73 1.515l19.579 11.415c.586.342 1.392.492 2.22.459.208-.009.417-.028.624-.06.414-.062.821-.17 1.197-.322.189-.076.369-.163.539-.261l34.569-20.564c1.183-.704 1.167-2.434-.03-3.115l-19.71-11.22z" transform="translate(1) translate(149 199)"/>
            <path fill="#DBEFFF" d="M.068 28.31L.01 26.335l2.532 1.653s-.715 1.79-.793 1.728C1.673 29.654.068 28.31.068 28.31" transform="translate(1) translate(149 199)"/>
            <path fill="#DBEFFF" d="M20.378 41.242L.798 29.827c-1.172-.684-1.023-1.875.334-2.66L36.64 6.61c1.357-.785 3.407-.867 4.58-.184L60.8 17.841c1.173.684 1.024 1.875-.333 2.66L24.958 41.058c-1.357.785-3.407.867-4.58.184" transform="translate(1) translate(149 199)"/>
            <path fill="#B0DAFF" d="M22.527 30.303L36.64 6.61c1.357-.785 3.407-.868 4.58-.184L60.8 17.841c1.173.684 1.024 1.875-.333 2.66L24.958 41.058c-.679.393-1.53.61-2.36.643l-.07-11.398z" transform="translate(1) translate(149 199)"/>
            <path fill="#B0DAFF" d="M37.978 22.462L41.583 17.555 61.593 16.74 61.585 19.042 39.707 26.02z" transform="translate(1) translate(149 199)"/>
            <path fill="#2C1F9C" d="M19.313 39.404c0 .343-.241.48-.538.307-.296-.173-.536-.59-.535-.933 0-.342.24-.48.537-.307.297.173.537.59.536.933" transform="translate(1) translate(149 199)"/>
            <path fill="#FFF" d="M20.381 38.988L.802 27.573c-1.173-.684-1.024-1.875.333-2.66L36.643 4.356c1.357-.785 3.408-.867 4.58-.184l19.58 11.415c1.172.684 1.023 1.875-.333 2.66L24.96 38.805c-1.356.785-3.407.868-4.58.184" transform="translate(1) translate(149 199)"/>
            <path fill="#3B2AD1" d="M20.381 38.436L.802 27.02c-1.173-.684-1.024-1.875.333-2.66L36.643 3.804c1.357-.785 3.408-.868 4.58-.184l19.58 11.415c1.172.684 1.023 1.875-.333 2.66L24.96 38.253c-1.356.785-3.407.868-4.58.184" transform="translate(1) translate(149 199)"/>
            <path fill="#2C1F9C" d="M51.666 12.227L46.26 9.075c-.222-.13-.194-.359.064-.508.258-.149.651-.165.874-.035l5.406 3.152c.223.13.194.359-.064.508-.257.149-.65.165-.874.035M12.338 35.837l-4.342-2.532c-.184-.107-.335-.397-.334-.644 0-.247.151-.361.335-.254l4.342 2.532c.184.107.335.397.334.644 0 .247-.151.361-.335.254M55.407 22.637l2.142-1.24c.127-.074.23-.274.231-.444 0-.17-.103-.25-.23-.176l-2.142 1.24c-.127.074-.232.273-.232.444 0 .17.104.25.23.176M52.369 24.55l2.142-1.24c.127-.074.23-.273.231-.443 0-.17-.103-.25-.23-.176l-2.142 1.24c-.128.073-.232.273-.232.443 0 .17.104.25.23.176" transform="translate(1) translate(149 199)"/>
            <path fill="#BAD4F5" d="M37.746 5.537L7.887 22.823c-.695.403-.697 1.412-.003 1.817l18.097 10.55c.322.188.72.189 1.042.002l29.859-17.286c.695-.402.697-1.411.003-1.816L38.788 5.539c-.322-.188-.72-.189-1.042-.002" transform="translate(1) translate(149 199)"/>
            <path fill="#2C1F9C" d="M32.775 19.763c-2.89-1.68-2.906-4.395-.032-6.064 2.873-1.67 7.546-1.661 10.437.019 2.892 1.68 2.907 4.395.033 6.064-2.873 1.669-7.546 1.66-10.438-.02m12.961-7.53c-4.312-2.504-11.28-2.517-15.565-.027-4.285 2.489-4.263 6.537.049 9.043 4.311 2.504 11.28 2.517 15.565.028 4.285-2.49 4.263-6.538-.049-9.043" transform="translate(1) translate(149 199)"/>
        </g>
        <g transform="translate(1) translate(181 215)">
            <mask id="prefix__L" fill="#fff">
                <use xlink:href="#prefix__J"/>
            </mask>
            <path fill="url(#prefix__K)" d="M12.565.576c.37 1.298-.299 2.674-2.013 3.672-2.342 1.364-5.898 1.592-8.67.69L.046 6.715c4.148 1.388 9.515 1.06 13.04-.992 2.582-1.504 3.573-3.584 2.982-5.538l-3.503.39z" mask="url(#prefix__L)"/>
        </g>
        <g>
            <path fill="#FFF" d="M173.41 73.414l-.284 2.096c1.765.055 3.504.474 4.856 1.257 1.223.708 1.93 1.601 2.125 2.522l3.618-.182c-.271-1.395-1.33-2.75-3.183-3.823-1.988-1.15-4.539-1.773-7.133-1.87M163.321 89.863l-8.332-4.825c-.548-.317-.479-.876.153-1.242.633-.366 1.598-.406 2.145-.09l8.333 4.826c.548.317.478.876-.154 1.242s-1.597.406-2.145.089M159.21 92.113l-8.333-4.824c-.547-.318-.478-.876.154-1.243.632-.366 1.597-.406 2.145-.089l8.333 4.825c.547.317.478.876-.154 1.242s-1.598.406-2.145.09" transform="translate(1) translate(15 136)"/>
            <path fill="#A8C4E5" d="M4.27 39.155c0 2.304 1.553 5.644 6.562 5.644 5.01 0 11.578-3.34 11.578-5.644 0-2.304-4.06-4.173-9.07-4.173-5.01 0-9.07 1.869-9.07 4.173" transform="translate(1) translate(15 136)"/>
            <path fill="#DBEFFF" d="M16.005 43.661c-2.84 1.644-7.457 1.636-10.313-.018-2.857-1.655-2.872-4.328-.033-5.972 2.84-1.644 7.457-1.636 10.314.019 2.856 1.654 2.87 4.327.032 5.971" transform="translate(1) translate(15 136)"/>
            <path fill="#DBEFFF" d="M0.131 30.411L3.563 40.962 18.072 41.201 21.384 31.032z" transform="translate(1) translate(15 136)"/>
            <path fill="#BAD4F5" d="M16.878 30.83l-3.312 10.13h-.002c-.458 1.55-.875 1.895-2.065 2.584-.86.499-1.886.929-2.975 1.116 2.45.413 5.179-.051 7.097-1.162 1.19-.689 1.877-1.038 2.065-2.539h.002L21 30.83h-4.122z" transform="translate(1) translate(15 136)"/>
            <path fill="#FFF" d="M18.474 34.165c-4.195 2.428-11.015 2.416-15.236-.028-4.22-2.443-4.242-6.393-.047-8.822 4.193-2.428 11.015-2.416 15.235.028 4.22 2.444 4.242 6.394.048 8.822" transform="translate(1) translate(15 136)"/>
            <path fill="#2C1F9C" d="M17.317 33.337c-3.6 2.084-9.455 2.074-13.078-.024C.617 31.215.6 27.825 4.2 25.74c3.6-2.084 9.454-2.073 13.077.024 3.623 2.098 3.64 5.488.04 7.573" transform="translate(1) translate(15 136)"/>
            <path fill="#3B2AD1" d="M10.566 27.357c.81-7.394 7.08-19.55 7.08-19.55-8.08 2.406-8.613 10.416-8.613 10.416l1.533 9.134z" transform="translate(1) translate(15 136)"/>
            <path fill="#3B2AD1" d="M8.738 20.822C9.59 13.432 6.027.21 6.027.21 13.37 4.36 12.11 12.29 12.11 12.29l-3.373 8.533z" transform="translate(1) translate(15 136)"/>
            <path fill="#4852DB" d="M21.12 11.904C14.376 13.432 10.3 25.273 10.3 25.273l-.002.024C10.047 10.207.543 6.205.543 6.205 3.382 10.347 6.055 24.46 6.862 29.02c.303 1.713 1.818 2.968 3.55 2.885.097-.005.194-.013.291-.023 1.484-.163 2.653-1.325 2.942-2.793 1.246-6.316 7.476-17.184 7.476-17.184" transform="translate(1) translate(15 136)"/>
            <path stroke="#FFF" stroke-linecap="round" stroke-linejoin="round" stroke-width=".55" d="M227.925 116.541l-24.1-13.954c-.718-.416-.627-1.148.201-1.627l23.53-13.625c.828-.48 2.092-.532 2.81-.117l24.1 13.955c.717.416.626 1.147-.202 1.627l-23.53 13.624c-.828.48-2.092.532-2.81.117z" transform="translate(1) translate(15 136)"/>
            <path fill="#FFAF6F" d="M104.915 34.589L102.327 33.091 103.069 28.682 105.657 30.18z" transform="translate(1) translate(15 136)"/>
            <path fill="#BFDFFF" d="M108.087 36.426L105.499 34.927 105.984 32.045 108.572 33.543z" transform="translate(1) translate(15 136)"/>
            <path fill="#5986FF" d="M111.356 38.318L108.768 36.82 109.74 31.04 112.328 32.539z" transform="translate(1) translate(15 136)"/>
            <path fill="#BFDFFF" d="M107.024 24.355l-1.797-1.03c-.16-.093-.275-.358-.254-.59.022-.231.171-.345.332-.253l1.797 1.031c.16.092.275.357.253.589-.021.23-.17.345-.33.253M106.584 26.48l-1.797-1.03c-.16-.093-.275-.358-.253-.589.021-.232.17-.346.331-.254l1.798 1.031c.16.093.274.357.253.589-.022.231-.17.345-.332.253M110.027 26.147l-1.797-1.031c-.161-.092-.275-.357-.254-.589.022-.231.171-.345.332-.253l1.797 1.031c.16.092.275.357.253.588-.021.232-.17.346-.33.254M109.587 28.272l-1.797-1.03c-.16-.093-.275-.358-.253-.59.021-.23.17-.345.331-.253l1.798 1.031c.16.092.274.357.253.589-.022.231-.17.345-.332.253M109.116 30.18l-1.797-1.03c-.16-.093-.275-.358-.253-.589.021-.232.17-.345.331-.253l1.797 1.03c.161.093.275.358.254.589-.022.231-.17.345-.332.253M113.03 27.939l-1.797-1.031c-.161-.092-.275-.357-.254-.589.022-.231.171-.345.332-.253l1.797 1.031c.16.092.275.357.253.588-.021.232-.17.346-.331.254M112.59 30.064l-1.797-1.03c-.16-.093-.275-.358-.253-.59.021-.23.17-.345.331-.253l1.797 1.031c.161.092.275.357.254.589-.022.231-.171.345-.332.253" transform="translate(1) translate(15 136)"/>
            <path fill="#29479C" d="M112.52 23.696l-6.428-3.722c-.21-.121-.443-.035-.517.192-.074.227.037.513.248.634l6.428 3.722c.21.122.443.036.517-.191.074-.227-.038-.513-.248-.635" transform="translate(1) translate(15 136)"/>
            <path fill="#29479C" d="M113.847 24.467l-6.428-3.722c-.21-.122-.443-.036-.517.191-.074.227.038.513.248.635l6.428 3.721c.21.122.443.036.517-.191.074-.227-.037-.513-.248-.634" transform="translate(1) translate(15 136)"/>
            <path fill="#FFF" d="M90.817 10.015L88.155 25.113 101.049 32.628 103.71 17.53z" transform="translate(1) translate(15 136)"/>
            <path fill="#BFDFFF" d="M95.805 24.696l-1.321-.76c-.011-.01-.023-.018-.035-.025l-1.835-1.057c-.014-.008-.027-.014-.04-.019l-1.155-.665c-.164-.094-.317.023-.34.26-.023.237.092.51.257.604l1.835 1.057c.013.008.027.014.04.02l.64.368c.01.008.023.016.034.023l1.836 1.058c.164.094.317-.022.34-.26.023-.237-.092-.51-.256-.604M92.923 25.819l-1.835-1.058c-.164-.094-.28-.366-.256-.603.023-.238.176-.355.34-.26l1.835 1.057c.165.095.28.367.257.604-.023.238-.176.355-.34.26" transform="translate(1) translate(15 136)"/>
            <path fill="#29479C" d="M97.007 19.042c-.172 1.291-1.227 1.877-2.356 1.31-1.128-.567-1.904-2.074-1.731-3.365.172-1.29 1.226-1.877 2.355-1.31 1.128.568 1.904 2.074 1.732 3.365m-5.091-2.56c-.257 1.926.9 4.172 2.582 5.018 1.683.847 3.256-.028 3.513-1.953.256-1.925-.9-4.172-2.583-5.018-1.683-.846-3.256.029-3.512 1.954" transform="translate(1) translate(15 136)"/>
            <path fill="#5986FF" d="M95.428 14.53c-1.03-.519-2.018-.391-2.689.226l.747 1.06c.45-.402 1.105-.482 1.789-.139.934.47 1.626 1.583 1.739 2.685l1.012.214c-.155-1.657-1.192-3.34-2.598-4.047" transform="translate(1) translate(15 136)"/>
            <path fill="#ADD5F7" d="M92.373 19.176l.864-.359c-.272-.579-.398-1.228-.317-1.83.072-.545.303-.964.63-1.224l-.673-1.123c-.499.386-.851 1.017-.961 1.843-.118.885.063 1.839.457 2.693M101.18 19.214l-1.495-.855c-.133-.076-.227-.3-.21-.496.02-.197.144-.295.278-.219l1.494.855c.133.076.228.3.209.496-.018.197-.143.295-.277.219M100.81 21.295l-1.494-.854c-.134-.076-.228-.3-.21-.496.02-.197.144-.295.277-.219l1.494.854c.134.077.228.3.21.497-.019.196-.143.295-.277.218M100.457 23.36l-1.494-.854c-.133-.076-.227-.3-.209-.496.019-.197.143-.295.277-.219l1.494.855c.134.076.228.3.21.496-.02.196-.144.295-.278.218" transform="translate(1) translate(15 136)"/>
        </g>
    </g>
</svg>
