<svg xmlns="http://www.w3.org/2000/svg" width="515.644" height="56.984" viewBox="0 0 515.644 56.984">
  <path id="img_aihumanorder" d="M-250.716,5.44c.34,0,.544-.2.748-.544l5.576-14.484h25.84l6.12,15.028h7.616c.476,0,.612-.2.408-.68l-22.3-54.4h-10.336L-258.4,5.44Zm29.784-21.624H-242.08l10-26.656q.306-.408.612,0Zm27.88,21.624c.748,0,1.088-.408,1.088-1.224V-49.64h-8.16V5.44Zm66.164,0a1.041,1.041,0,0,0,1.02-1.156V-49.64h-7.888v23.46h-23.936V-49.64h-8.024V5.44h6.868a1.041,1.041,0,0,0,1.156-1.156V-19.584h23.936V5.44Zm34.612-8.092c0,.544-.272.816-.748.816l-9.316.2c-4.08.068-7.48-2.176-7.48-6.868V-33.864h-7.888V-8.7c0,10.268,7.14,14.28,16.728,14.076L-86.9,5.236A2.652,2.652,0,0,0-84.32,2.38V-33.8h-7.956Zm23.664-23.8c0-.34.272-.544.816-.544l11.288-.2V5.44h6.868c.748,0,1.02-.544,1.02-1.156V-27.2h6.732c4.148,0,5.916.816,5.916,5.3V5.44h6.6c.816,0,1.224-.408,1.224-1.292V-21.216c0-9.588-2.584-12.648-13.736-12.648l-31.756.272c-1.564,0-2.856.68-2.856,2.788V5.44h6.46a1.562,1.562,0,0,0,1.428-1.564ZM7.14,5.236A2.652,2.652,0,0,0,9.724,2.38V-20.74a37.043,37.043,0,0,0-.408-6.12C8.228-33.32.544-33.932-7.412-33.932c-2.72,0-5.576.068-7.752.272-1.292.068-2.516.2-3.74.272v6.528c1.292-.068,2.652-.2,4.012-.272,2.38-.2,5.168-.272,7.344-.272,1.564,0,3.808,0,4.828.068C.476-27,1.836-25.976,1.9-22.1v2.04l-4.624-.2c-2.652-.068-5.984-.2-8.7-.136-5.44.2-10.336,3.2-10.336,8.636v7.956c0,6.868,4.216,9.316,10.676,9.248ZM1.156-1.428c-1.156.068-2.38.068-3.6.136-2.108.068-4.692.136-7.072.068C-11.7-1.292-14.144-2.38-14.144-5.3V-9.792c0-2.652,1.972-4.012,4.624-4.012,2.38-.068,5.3.068,7.548.136,1.292.068,2.652.136,3.944.2V-2.176C1.972-1.7,1.7-1.428,1.156-1.428ZM25.024-26.52c0-.34.2-.476.544-.476L34-27.132c5.236,0,8.228,1.632,8.228,7.412V5.44h6.8c.748,0,1.088-.476,1.088-1.224v-24c0-10.54-3.672-14.008-14.892-14.008l-16.048.2a2.017,2.017,0,0,0-2.108,2.176V5.44H24c.68,0,1.02-.408,1.02-1.156ZM95.4,6.324c11.968,0,21.08-6.8,21.08-19.856V-29.784c0-12.852-7.412-20.876-21.08-20.876-14.416,0-21.9,9.792-21.9,20.876l.068,16.32C73.576-2.72,81.192,6.324,95.4,6.324ZM95.4-44c8.5,0,13.532,6.392,13.532,14.552v15.368c0,8.024-5.372,13.6-13.532,13.6-8.092,0-14.008-5.712-14.008-13.6V-29.444C81.4-37.672,86.768-44,95.4-44ZM129.336,5.44a1.791,1.791,0,0,0,1.768-1.9V-19.516c0-4.624,2.72-7.684,7.344-7.684h9.112v-6.6H136.476c-8.432,0-13.192,5.44-13.192,14.212V5.44ZM181.9,5.168a2.671,2.671,0,0,0,2.584-2.788V-49.436H176.46V-33.66c-1.02,0-2.108,0-3.128-.068-1.836,0-4.08-.068-6.052-.068-11.56,0-16.048,3.536-16.048,14.076v11.7c0,9.656,5.032,13.6,14.076,13.4ZM166.26-1.156c-5.1,0-7.344-1.836-7.344-6.732V-19.856c0-6.528,3.4-7.48,8.7-7.48,1.9,0,4.012.068,5.848.136,1.02.068,1.972.068,2.992.136V-2.04c0,.476-.34.68-.952.68Zm46.376,6.8A71.565,71.565,0,0,0,224.6,4.828c.952-.136,1.428-.612,1.428-1.5v-5.1a74.53,74.53,0,0,1-13.124.748c-6.6-.2-13.4-.748-13.4-8.432v-1.224H223.04a4.272,4.272,0,0,0,4.08-4.284V-20.6c0-8.5-8.092-13.192-16.048-13.192H207.6c-8.364,0-15.844,5.78-15.844,14.688V-10.2C191.76.884,199.24,5.644,212.636,5.644Zm-1.428-32.912c4.964,0,8.568,2.108,8.568,7.208v2.176c0,.476-.34.68-.952.68H199.512v-2.04c0-5.508,3.332-8.024,8.772-8.024ZM239.02,5.44a1.791,1.791,0,0,0,1.768-1.9V-19.516c0-4.624,2.72-7.684,7.344-7.684h9.112v-6.6H246.16c-8.432,0-13.192,5.44-13.192,14.212V5.44Z" transform="translate(258.4 50.66)" fill="#fff"/>
</svg>
