<svg xmlns="http://www.w3.org/2000/svg" xmlns:xlink="http://www.w3.org/1999/xlink" width="234" height="259" viewBox="0 0 234 259">
    <defs>
        <path id="prefix__a" d="M0 258.343L233.265 258.343 233.265 0 0 0z"/>
    </defs>
    <g fill="none" fill-rule="evenodd">
        <path fill="#FFC2B0" d="M126.372 50.751c-.23-.57-18.354-4.326-17.178-8.698 1.176-4.373 3.265-4.254 3.265-4.254l15.364 10.467-1.451 2.485z"/>
        <path fill="#FFC2B0" d="M132.13 51.886l-.274.682c-.503 1.254-1.94 1.869-3.195 1.366l-2.574-1.032c-1.255-.503-1.87-1.941-1.367-3.196l.274-.682c.503-1.254 1.94-1.869 3.195-1.366l2.574 1.031c1.256.503 1.87 1.942 1.367 3.197"/>
        <path fill="#4852DB" d="M81.42 10.702c-1.795 2.076-3.416 4.706-5.081 7.165-1.257 1.854-1.784 4.272-2.637 6.446-.47 1.2-1.118 2.388-1.932 3.251-1.386 1.47-1.997 3.772-1.672 5.99.35 2.385 1.054 6.064 1.7 9.285.857 4.266 5.193 5.945 7.748 2.885.19-.228.352-.463.477-.704 1.068-2.06 1.663-1.487 2.745-3.47 1.916-3.507 6.386-6.284 9.83-6.299 3.022-.013 5.737-1.602 8.261-3.583 1.9-1.49 3.757-4.944 4.072-7.689.35-3.043 1.482-6.317.92-9.306-.545-2.908-3.85-6.08-4.59-8.923-.353-1.355-6.042-4.561-7.806-4.444-.565.038 5.187 2.468 4.68 2.775l-.93.564C94.55 6.254 92.842-.489 90.027.517c-4.966 1.775-4.83 5.815-8.607 10.185"/>
        <path fill="#173891" d="M101.153 13.985l.744 8.846-23.572 23.938s-6.223-5.502 0-17.656C84.55 16.96 90.442 14.357 90.717 14.73c.275.372 10.436-.744 10.436-.744"/>
        <path fill="#EDA71C" d="M115.628 39.84s-5.472-12.248-10.044-17.646c0 0-3.4-4-6.054-2.589-2.654 1.411 3.621 13.792 3.621 13.792s2.583 6.36 6.87 10.878c2.594 2.736 5.607-4.435 5.607-4.435"/>
        <path fill="#173891" d="M105.851 135.399l-8.348-6.083c-1.058-.414-3.284-.32-4.741.104-.654.19-1.075.828-1.022 1.507l.114 1.467c.09 2.12.323 2.395 1.72 2.941l8.3 3.246c1.397.547 3.37.33 4.386-.482l.287-.23c1.015-.812.702-1.924-.696-2.47"/>
        <path fill="#FFC2B0" d="M92.096 130.127c.083 2.328 4.13 2.732 5.474.944 5.495-22.435 6.407-43.462 7.457-66.795l-13.86-11.083c1.564 28.094 4.302 55.507.929 76.934"/>
        <path fill="#173891" d="M82.9 60.286l-2.012 38.782s9.28 14.29 27.295-.45l-.991-37.059L82.9 60.286z"/>
        <path fill="#FEC601" d="M107.107 61.023c.412-5.23-1.557-8.926-1.43-15.039.066-3.235 4.661-6.291 4.928-9.707.657-5.324-6.805-13.731-12.374-17.92l-2.432.754c-1.16.359-2.282.845-3.339 1.445-11.28 6.405-13.6 7.78-12.814 14.638.129 3.549 2.012-.292 2.62 2.015 1.169 4.427 1.621 15.599.015 23.663-.324 1.628.296 3.315 1.657 4.265 5.897 4.116 21.1.804 23.17-4.114"/>
        <path fill="#EDA71C" d="M107.107 61.023c.412-5.23-1.557-8.926-1.43-15.039 0 1.888-23.6 3.582-22.99 4.045 3.644 2.772 1.2 2.779-.406 10.843-.324 1.628.296 3.315 1.657 4.265 5.897 4.116 21.1.804 23.17-4.114"/>
        <path fill="#173891" d="M96.211 18.68s-.997 1.831-1.679 2.233c-.68.4-10.72-3.303-10.285-11.412.276-5.135 10.025-4.484 10.025-4.484l1.94 13.663z"/>
        <path fill="#FFC2B0" d="M93.217 25.724l.406.052c1.369.175 2.632-.801 2.808-2.17l.99-7.72c.175-1.368-.802-2.632-2.17-2.807l-.406-.052c-1.369-.176-2.633.8-2.808 2.17l-2.041 7.277c-.176 1.369 1.852 3.074 3.221 3.25"/>
        <path fill="#F09A82" d="M96.94 20.387s-3.291.205-5.567-2.862c0 0 2.27 4.731 5.29 5.02l.276-2.158z"/>
        <path fill="#FFF" d="M94.95 25.796l-1.913 3.673s-9.019-3.57-5.553-8.004l3.323-1.88s-2.022 3.59 4.143 6.211M96.94 20.387s-.264 3.87-1.99 5.41l3.348 1.54s3.83-4.745.318-10.006l-1.677 3.056z"/>
        <path fill="#FFC2B0" d="M90.737 3.829C92 1.602 93.923 1.07 95.707 2.145c1.75-.888 3.864.032 5.423 2.68 2.17 3.688 2.439 9.31.6 12.558-1.286 2.27-1.345 3.622-5.516 3.204-2.96-.716-4.669-1.464-6.268-4.183-2.17-3.688-1.048-9.328.791-12.575"/>
        <path fill="#4852DB" d="M91.039 7.774c1.123-2.158 6.486.16 11.912 2.915 2.274-.222 1.33-3.663-.286-5.649-2.012-2.475-4.91-4.071-8.05-4.633L92.446.02c-3.895-.396-7.596 5.287-7.85 7.929l2.525-.218c-.254 2.642 1.277-.21 3.919.043"/>
        <path fill="#EDA71C" d="M86.738 35.588c.096 1.736.193 3.38.456 5.176.614 4.191 4.295 7.203 8.523 6.942 6.836-.421 10.787-4.534 11.378-5.193-2.221 2.498-1.429 6.666-1.429 6.666s-3.235-.733-5.947-.57c-2.404.145-8.528 2.252-9.885 2.728C91.051 57.53 82.556 63.7 82.556 63.7l-.16-15.282 4.342-12.83z"/>
        <path fill="#D228F4" d="M107.095 42.512c.026-.029.051-.06.078-.089 0 0-.026.032-.078.09"/>
        <path fill="#A7BCF5" d="M107.742 169.04l-16.665-9.621c-2.222 1.542-3.802 3.362-4.684 5.319-.213.472-.611.895-1.205 1.239-2.407 1.39-7.103.931-10.489-1.023-3.386-1.955-4.179-4.667-1.772-6.056.576-.333 1.284-.56 2.074-.685 3.353-.533 6.397-1.556 9.007-2.876l-16.387-9.461-39.872 23.02 40.122 23.164 14.273-8.24c-1.01-1.124-5.858-2.625-6.35-2.91-1.317-.76-1.485-1.988-.659-3.196 1.168-.938 2.549-1.83 4.09-2.685 2.41-.792 5.07-.81 6.614.08.479.277.806.615.99.992.559 1.148 1.538 2.447 2.723 3.441l17.974-10.377.216-.125z"/>
        <path fill="#2A4BD1" d="M157.625 66.914l-7.31 3.363-8.955-5.17c-2.168 1.505-3.71 3.282-4.571 5.191-.208.462-.597.875-1.176 1.21-2.35 1.356-6.933.909-10.237-1-1.88-1.084-2.939-2.407-3.072-3.597l11.063-5.266c.372-.169.738-.341 1.094-.521V53.54l-7.222.812-8.771-2.462-21.063 12.16-17.85 2.722v7.584l16.005 9.241c1.4-1.23 2.435-2.593 3.083-4.033.208-.461.597-.874 1.177-1.209 2.35-1.356 6.932-.91 10.237.998.302.175.583.356.843.542l-7.98.368v7.583l15.792 9.118 15.297-8.832c.473.586.87 1.192 1.175 1.817.217.446.605.846 1.17 1.173 2.365 1.365 6.943.935 10.227-.961 1.94-1.12 2.993-2.5 3.044-3.725.002-.05 0-.101 0-.151v-5.85l-1.416-.502 9.416-5.436v-7.583z"/>
        <path fill="#2A4BD1" d="M157.625 66.914L134.46 53.54l-7.222.812-8.771-2.462-7.282 6.753s4.1 18.458 7.404 20.366c.303.174.122 17.955.122 17.955l15.297-8.832c.473.586.87 1.192 1.175 1.817.217.446.605.846 1.17 1.173 2.365 1.365 6.943.935 10.227-.961 1.94-1.12 2.993-2.5 3.044-3.725.002-.05 0-.101 0-.151v-7.462l-1.416 1.11 9.416-5.436v-7.583z"/>
        <path fill="#80A2FF" d="M148.246 76.673c-.583-.337-1.302-.564-2.102-.687-1.078-.165-2.132-.374-3.156-.622l14.637-8.45v-.88l-16.265-8.51c-2.168 1.504-3.71 3.281-4.57 5.19-.209.462-.598.875-1.177 1.21-2.35 1.356-6.933.909-10.237-.999-3.304-1.907-4.079-4.553-1.73-5.91.563-.325 1.254-.546 2.025-.668 3.272-.521 6.243-1.519 8.79-2.807v-.88l-15.993-8.354-38.913 21.586v.88l16.006 9.241c1.398-1.229 2.434-2.593 3.082-4.033.208-.46.597-.874 1.177-1.209 2.35-1.356 6.933-.909 10.237.999 3.304 1.907 4.078 4.553 1.729 5.91-.563.325-1.253.546-2.024.668-2.154.343-4.984.332-6.842 1.034v.88l15.792 9.118 15.297-8.832c.473.586.87 1.192 1.175 1.818.217.445.605.846 1.17 1.173 2.365 1.365 6.943.934 10.227-.962 3.284-1.895 4.03-4.539 1.665-5.904"/>
        <path fill="#4879FF" d="M148.246 75.793c-.583-.337-1.302-.564-2.102-.687-1.078-.166-2.132-.375-3.156-.622l14.426-8.329.21-.122-39.156-22.607-38.913 22.466L118.712 88.5l15.297-8.832c.473.586.87 1.192 1.175 1.818.217.445.605.846 1.17 1.172 2.365 1.365 6.943.935 10.227-.961 3.284-1.896 4.03-4.54 1.665-5.904"/>
        <path fill="#2A4BD1" d="M104.907 80.443l-6.267.35c-.675-1.384-8.734-.22-8.734-.22l-.06 6.607c-.18 1.276.865 2.803 2.973 4.02 3.203 1.85 7.645 2.283 9.923.968.562-.324.939-.725 1.14-1.172.272-.603 1.202-1.292 1.611-1.863l-.586-8.69"/>
        <path fill="#80A2FF" d="M105.01 81.435c-.41.57-.856 1.2-1.128 1.802-.201.447-.579.848-1.14 1.172-2.277 1.315-6.72.882-9.923-.968-3.202-1.849-3.953-4.413-1.676-5.728.546-.315 1.215-.53 1.962-.648 1.049-.167 2.064-.386 3.044-.647l8.759 4.024.103.993z"/>
        <path fill="#4879FF" d="M96.15 75.386c-.981.261-1.996.48-3.045.647-.747.119-1.416.333-1.961.648-2.278 1.315-1.527 3.88 1.676 5.728 3.202 1.85 7.644 2.283 9.922.968.562-.324.939-.725 1.14-1.172.272-.603.616-1.191 1.025-1.762l-8.758-5.057z"/>
        <path fill="#A7BCF5" d="M211.63 154.594c-5.952-3.17-16.078-3.27-22.617-.225-3.656 1.703-5.415 4.028-5.216 6.301l-13.087-7.556-14.363 8.293c1.93.736 4.07 1.284 6.325 1.63.723.11 1.371.316 1.898.62 2.135 1.233 1.462 3.62-1.504 5.332-2.965 1.712-7.1 2.1-9.234.868-.511-.295-.861-.657-1.057-1.059-.628-1.29-1.682-2.492-3.032-3.578l-14.172 8.182 13.9 8.025c-.913.243-1.859.447-2.836.602-.696.111-1.32.31-1.827.604-2.122 1.225-1.423 3.614 1.56 5.337 2.985 1.722 7.124 2.126 9.245.901.523-.302.875-.675 1.063-1.091.253-.562.573-1.11.955-1.642l13.3 7.678 35.138-20.287-9.71-5.606c4.897.466 10.22-.218 14.21-2.076 6.539-3.045 7.014-8.083 1.061-11.253"/>
        <path stroke="#214FCC" stroke-linecap="round" stroke-linejoin="round" stroke-width="3.931" d="M157.683 81.28s11.234.145 17.657-6.37c5.34-5.416 11.315-23.73 11.315-23.73"/>
        <path fill="#A7BCF5" d="M157.977 76.842l-2.251.602c-1.73.463-2.77 2.213-2.314 3.89.458 1.677 2.247 2.67 3.977 2.208l2.251-.602c1.73-.462 2.77-2.212 2.313-3.89-.457-1.676-2.246-2.67-3.976-2.208"/>
        <path fill="#7D94D1" d="M198.872 159.084c.004-.066.003-.132 0-.197v-2.507l-1.584.382c-.036-.022-.07-.046-.107-.068-2.05-1.184-5.182-1.314-6.958-.289l-6.124 3.537-5.128 1.236v2.608h.003c-.092.841.478 1.752 1.683 2.448 2.05 1.185 5.182 1.314 6.958.289l10.066-5.812c.75-.433 1.14-1.006 1.189-1.612h.002v-.015z"/>
        <path fill="#C6D3F5" d="M187.615 163.902l10.066-5.811c1.776-1.026 1.551-2.833-.5-4.018-2.05-1.184-5.182-1.313-6.958-.288l-10.065 5.812c-1.777 1.025-1.552 2.833.5 4.017 2.05 1.184 5.181 1.314 6.957.288"/>
        <path fill="#7D94D1" d="M213.603 167.455c.005-.066.003-.132 0-.197v-2.507l-1.583.381-.107-.067c-2.051-1.184-5.182-1.314-6.958-.289l-6.125 3.536-5.127 1.237v2.608h.003c-.092.84.477 1.752 1.682 2.448 2.051 1.184 5.183 1.314 6.959.289l10.065-5.812c.75-.433 1.14-1.006 1.189-1.612h.002v-.015z"/>
        <path fill="#C6D3F5" d="M202.347 172.273l10.065-5.811c1.777-1.026 1.551-2.834-.5-4.017-2.05-1.185-5.181-1.315-6.957-.29l-10.066 5.812c-1.776 1.026-1.551 2.834.5 4.017 2.05 1.185 5.182 1.315 6.958.29"/>
        <path stroke="#214FCC" stroke-linecap="round" stroke-linejoin="round" stroke-width="6.115" d="M190.548 103.612s-6.664 8.972-4.841 25.389c1.823 16.417 6.107 20.963 6.74 26.55"/>
        <path fill="#7F92D4" d="M214.283 101.985c0 8.24-6.679 14.918-14.918 14.918-8.239 0-14.917-6.679-14.917-14.918 0-8.238 6.678-14.917 14.917-14.917 8.24 0 14.918 6.679 14.918 14.917"/>
        <path fill="#94A6EB" d="M209.897 96.697c-1.654-.635-8.866-9.629-10.744-9.629-8.239 0-14.917 6.68-14.917 14.917 0 8.24 6.678 14.918 14.917 14.918 1.878 0 3.67-.357 5.325-.992-7.905 1.593-8.83-12.758 5.42-19.214"/>
        <path fill="#3664E0" d="M186.455 31.835l6.323 3.65c.322.187.585.69.585 1.12 0 .429-.263.628-.585.442l-6.323-3.65c-.322-.187-.586-.69-.586-1.12 0-.429.264-.628.586-.442"/>
        <path fill="#3664E0" d="M185.206 32.774c0-.92.747-1.667 1.668-1.667.92 0 1.666.746 1.666 1.667 0 .92-.746 1.667-1.666 1.667-.921 0-1.668-.746-1.668-1.667"/>
        <path fill="#A7BCF5" d="M183.88 92.527l.011-28.311c0-13.817 5.22-18.93 13.925-15.754l3.596.955c10.507 5.66 15.842 5.376 13.963 16.494l-1.765 27.392c0 12.547-30.399 13.974-29.73-.776"/>
        <path fill="#94A6EB" d="M201.287 49.524l-3.597-.955c-3.606-1.316-6.613-1.204-8.9.356l2.256.599c10.506 5.66 15.841 5.375 13.962 16.494l-1.765 27.392c0 4.885-1.036 9.507-1.036 9.507 6.062-1.021 11.277-4.31 11.277-9.507l1.765-27.392c1.88-11.119-3.456-10.834-13.962-16.494"/>
        <path fill="#C6D3F5" d="M202.755 44.244c0 .976-.79 1.767-1.767 1.767-.976 0-1.767-.791-1.767-1.767 0-.976.791-1.767 1.767-1.767.976 0 1.767.79 1.767 1.767"/>
        <path fill="#3664E0" d="M203.917 51.691c-2.252 1.3-5.915 1.294-8.181-.014-2.266-1.309-2.278-3.424-.026-4.724 2.253-1.3 5.915-1.293 8.181.015 2.266 1.309 2.278 3.423.026 4.723"/>
        <path fill="#3664E0" d="M203.917 53.55c-2.252 1.3-5.915 1.293-8.181-.016-2.266-1.308-2.278-3.423-.026-4.723 2.253-1.3 5.915-1.293 8.181.015 2.266 1.308 2.278 3.423.026 4.723"/>
        <path fill="#94A6EB" d="M199.895 43.614l-10.415-6.03v7.345c0 .822.44 1.582 1.151 1.993l7.885 4.552c.863.498 1.925.498 2.788 0l8.074-4.661c.595-.343.961-.979.961-1.666v-7.563l-10.444 6.03z"/>
        <path fill="#A7BCF5" d="M199.91 46.639L189.481 44.599 189.407 31.944 199.91 37.982z"/>
        <path fill="#94A6EB" d="M210.339 40.618L199.91 46.639 199.881 37.982 210.339 31.943z"/>
        <path fill="#C6D3F5" d="M198.866 37.823l-9.124-5.267c-.447-.258-.447-.903 0-1.161l9.33-5.387c.498-.287 1.111-.287 1.61 0l9.33 5.387c.446.258.446.903 0 1.161l-9.124 5.267c-.626.362-1.396.362-2.022 0"/>
        <path fill="#A7BCF5" d="M199.91 51.848c-.46.014-.97-.116-1.556-.467l-7.723-4.459c-.712-.41-1.15-1.17-1.15-1.993v-7.345l10.429 6.038v8.226z"/>
        <path fill="#3664E0" d="M197.647 44.042l-5.904-3.408c-.93-.538-1.69-1.992-1.69-3.232 0-1.24.76-1.815 1.69-1.278l5.904 3.41c.93.536 1.692 1.99 1.692 3.23s-.761 1.815-1.692 1.278M198.578 66.583l-8.46-4.884c-1.333-.77-2.062-2.712-1.62-4.317.442-1.605 1.894-2.289 3.227-1.52l8.46 4.885c1.333.77 2.062 2.712 1.62 4.317-.442 1.605-1.895 2.288-3.227 1.519M201.997 44.37c0 2.35 1.66 3.297 3.708 2.114 2.049-1.183 3.71-4.046 3.71-6.397 0-2.35-1.661-3.297-3.71-2.114-2.048 1.182-3.708 4.046-3.708 6.397"/>
        <path fill="#4879FF" d="M203.463 44c0 1.681 1.187 2.358 2.652 1.512 1.464-.846 2.652-2.895 2.652-4.576 0-1.681-1.186-2.358-2.651-1.512-1.465.846-2.653 2.895-2.653 4.576M205.954 66.776c.534 2.81 2.934 3.95 5.36 2.549 2.425-1.402 3.959-4.817 3.424-7.626-.534-2.81-2.933-3.951-5.359-2.549-2.425 1.402-3.959 4.816-3.425 7.626M201.448 111.062c.594 3.122 3.26 4.39 5.956 2.833 2.696-1.557 4.4-5.35 3.806-8.473-.594-3.122-3.261-4.391-5.957-2.833-2.695 1.557-4.4 5.35-3.805 8.473"/>
        <path fill="#3664E0" d="M205.46 43.081c0 .674.477.946 1.064.608.588-.339 1.064-1.16 1.063-1.834 0-.675-.476-.946-1.065-.608-.587.339-1.063 1.16-1.062 1.834"/>
        <path fill="#4432DB" d="M202.303 33.313c-1.097.61-2.88.607-3.984-.006s-1.11-1.605-.013-2.215c1.097-.61 2.881-.607 3.985.007 1.103.613 1.109 1.605.012 2.214"/>
        <mask id="prefix__b" fill="#fff">
            <use xlink:href="#prefix__a"/>
        </mask>
        <path fill="#4432DB" d="M197.487 32.25L203.122 32.25 203.122 31.251 197.487 31.251z" mask="url(#prefix__b)"/>
        <path fill="#94A6EB" d="M202.303 32.36c-1.097.61-2.88.608-3.984-.006-1.104-.613-1.11-1.604-.013-2.214 1.097-.61 2.881-.607 3.985.007 1.103.613 1.109 1.604.012 2.214" mask="url(#prefix__b)"/>
        <path fill="#58D6ED" d="M205.37 25.487c0-2.474-2.268-4.48-5.065-4.48-2.798 0-5.066 2.006-5.066 4.48 0 1.355.68 2.57 1.755 3.391.588.622.857 1.388.98 1.942.118.536.518.97 1.057 1.148.873.289 1.715.324 2.518.033.51-.185.884-.611.992-1.125.11-.518.368-1.264.973-1.904.018-.018.033-.036.048-.054 1.105-.821 1.808-2.053 1.808-3.43" mask="url(#prefix__b)"/>
        <path fill="#32B4CC" d="M201.497 31.43c-.681.38-1.79.378-2.476-.004-.686-.38-.69-.997-.008-1.376.682-.38 1.79-.377 2.477.004.686.381.69.997.007 1.376" mask="url(#prefix__b)"/>
        <path fill="#32B4CC" d="M199.045 25.29c-.084 0-.177.02-.281.064-.24.099-.268.313-.25.475.049.399.445.969 1.114 1.316v-.855c-.006-.203-.083-.765-.371-.943-.062-.038-.133-.058-.212-.058m1.658 2.153c.735.037 1.174-.316 1.274-.679.087-.314-.075-.6-.422-.745-.145-.06-.265-.062-.366-.002-.176.104-.397.438-.486 1.426m-.148 3.665c-.072 0-.131-.057-.131-.127v-3.313l-.046-.007c-.165-.028-.329-.07-.487-.126v3.157c0 .07-.059.126-.132.126-.072 0-.131-.056-.131-.126v-3.264c-.27-.125-.52-.289-.734-.485-.365-.334-.598-.729-.64-1.084-.041-.346.107-.614.406-.737.286-.118.535-.113.74.013.465.289.49 1.116.49 1.151v.979c.166.064.344.114.534.146l.017.004c.082-.892.282-1.42.61-1.614.177-.104.382-.109.609-.014.468.195.692.604.571 1.042-.121.44-.612.87-1.422.87l-.123-.003.001 3.285c0 .07-.059.127-.132.127" mask="url(#prefix__b)"/>
        <path fill="#FFF" d="M199.258 24.414c0 .881-.628 1.78-1.404 2.008-.776.228-1.405-.3-1.405-1.182 0-.881.629-1.78 1.405-2.008.776-.228 1.404.301 1.404 1.182M192.781 39.042c0 .528-.32.771-.717.543-.397-.23-.718-.843-.718-1.372 0-.529.321-.772.718-.543.396.228.717.843.717 1.372M197.488 41.6c0 .528-.321.771-.718.542-.396-.229-.718-.842-.718-1.372 0-.528.322-.771.718-.543.397.23.718.843.718 1.372" mask="url(#prefix__b)"/>
        <path fill="#3664E0" d="M211.983 46.52l-5.868-3.387c-.322-.186.432-1.312.754-1.126l5.114 2.952c.322.186.586.69.586 1.12 0 .428-.264.628-.586.442" mask="url(#prefix__b)"/>
        <path stroke="#214FCC" stroke-linecap="round" stroke-linejoin="round" stroke-width="6.115" d="M207.307 108.242s-6.867 11.578-5.043 27.995c1.823 16.418 6.107 20.964 6.74 26.551" mask="url(#prefix__b)"/>
        <path fill="#A7BCF5" d="M183.521 134.847c-1.562 0-2.84-1.278-2.84-2.84V120.94c0-1.562 1.278-2.84 2.84-2.84 1.562 0 2.84 1.278 2.84 2.84v11.065c0 1.563-1.278 2.84-2.84 2.84M199.365 141.86c-1.562 0-2.84-1.278-2.84-2.84v-11.067c0-1.561 1.278-2.84 2.84-2.84 1.562 0 2.84 1.279 2.84 2.84v11.066c0 1.563-1.278 2.84-2.84 2.84" mask="url(#prefix__b)"/>
        <path stroke="#4639BF" stroke-linecap="round" stroke-linejoin="round" stroke-width=".5" d="M209.381 64.564s-.935-3.33 2.51-3.341M204.232 107.411s1.248-2.44 3.117-2.082M188.519 59.46s-.83-3.415 1.836-3.896c0 0 .53-.187 1.547.4l4.177 2.412M199.339 54.507s3.87.235 5.771-1.964M205.705 43.72s-.798-1.192.817-2.473M206.811 61.92s-2.58 5.422.862 7.574M198.88 172.953s1.866.23 3.291-.586c1.425-.815 10.673-6.202 10.673-6.202M184.311 164.564s1.868.23 3.292-.586c1.425-.815 10.674-6.202 10.674-6.202" mask="url(#prefix__b)"/>
        <path fill="#EDA71C" d="M194.066 95.276l-22.385-12.924-5.642-1.045-11.457 2.312v8.605c2.299.876 4.846 1.528 7.53 1.94.86.133 1.633.377 2.26.74 2.541 1.466 1.74 4.308-1.79 6.346-3.53 2.038-8.452 2.501-10.993 1.034-.609-.352-1.026-.782-1.26-1.261-.747-1.536-2.001-2.966-3.61-4.26l-7.388 4.267-9.482-3.132v8.606l9.624 5.556-.066 7.328c-.2 1.416.959 3.11 3.297 4.46 3.552 2.05 8.479 2.53 11.005 1.073.622-.36 1.04-.804 1.264-1.3.302-.67.683-1.322 1.138-1.955l15.833 9.142 41.833-24.152V98.05l-19.71-2.774z" mask="url(#prefix__b)"/>
        <path fill="#FFDC5E" d="M213.777 98.05v-1.145L171.68 73.746l-17.099 8.728v1.144c2.3.877 4.846 1.529 7.53 1.941.86.132 1.633.377 2.26.739 2.541 1.467 1.74 4.308-1.79 6.346-3.53 2.039-8.452 2.501-10.993 1.034-.609-.351-1.026-.781-1.26-1.26-.747-1.536-2.001-2.967-3.61-4.26l-16.87 8.596v1.144l16.548 9.554c-1.088.29-2.214.533-3.377.717-.828.132-1.57.37-2.176.72-2.525 1.457-1.692 4.302 1.86 6.353 3.552 2.05 8.479 2.531 11.005 1.073.622-.36 1.04-.804 1.264-1.3.302-.668.683-1.321 1.138-1.954l15.833 9.141 17.377-10.032 24.456-14.12z" mask="url(#prefix__b)"/>
        <path fill="#FEC601" d="M213.777 96.905L171.68 72.602l-17.099 9.872c2.3.876 4.846 1.528 7.53 1.94.86.133 1.633.377 2.26.74 2.541 1.466 1.74 4.308-1.79 6.346-3.53 2.038-8.452 2.5-10.993 1.034-.609-.352-1.026-.782-1.26-1.261-.747-1.536-2.001-2.967-3.61-4.26l-16.87 9.74 16.548 9.554c-1.088.29-2.214.533-3.377.718-.828.131-1.57.37-2.176.718-2.525 1.459-1.692 4.303 1.86 6.354s8.479 2.532 11.005 1.073c.622-.36 1.04-.804 1.264-1.3.302-.668.683-1.32 1.138-1.954l15.833 9.141 41.833-24.152z" mask="url(#prefix__b)"/>
        <path stroke="#214FCC" stroke-linecap="round" stroke-linejoin="round" stroke-width="3.931" d="M209.004 100.498s6.31-8.93 5.688-18.057c-.524-7.676-3.436-19.122-3.436-19.122" mask="url(#prefix__b)"/>
        <path fill="#A7BCF5" d="M217.904 83.362c0 1.75-1.419 3.17-3.17 3.17-1.75 0-3.169-1.42-3.169-3.17s1.42-3.17 3.17-3.17 3.17 1.42 3.17 3.17M208.785 104.684l1.282-1.946c.984-1.495.599-3.495-.857-4.444-1.457-.949-3.454-.502-4.439.993l-1.282 1.946c-.985 1.495-.6 3.495.857 4.444 1.456.949 3.454.502 4.439-.993" mask="url(#prefix__b)"/>
        <path fill="#699EFF" d="M52.994 16.955L36.409 25.06c-.542.265-.99 1.103-.996 1.861l-.094 11.61-.867 4.54 4.452-4.472 13.97-6.829c.542-.264.99-1.102.996-1.86l.097-12.058c.006-.759-.432-1.163-.973-.898" mask="url(#prefix__b)"/>
        <path fill="#D9E9FF" d="M44.25 12.11l18.186-9c.594-.293 1.074.088 1.068.846l-.099 11.61 1.454 6.081-5.416-2.301-15.32 7.58c-.593.294-1.074-.087-1.067-.846l.102-12.057c.006-.759.498-1.62 1.091-1.914" mask="url(#prefix__b)"/>
        <path fill="#FFF" d="M56.692 12.988c-.007.867.626 1.254 1.414.864.788-.39 1.433-1.41 1.44-2.276.008-.867-.625-1.254-1.414-.864-.788.39-1.433 1.41-1.44 2.276M52.295 15.205c-.007.867.626 1.253 1.414.864.788-.39 1.433-1.41 1.44-2.277.008-.867-.625-1.253-1.413-.863-.788.39-1.433 1.409-1.44 2.276M47.898 17.421c-.007.867.626 1.254 1.414.864.789-.39 1.434-1.41 1.441-2.276.007-.867-.626-1.254-1.414-.864-.788.39-1.433 1.41-1.44 2.276" mask="url(#prefix__b)"/>
        <path fill="#58D6ED" d="M138.909 15.493s1.52-1.888 4.251-.44c2.088 1.107.983 1.029 3.495 1.814 1.481.463 3.83-2.124 7.478-.453 6.603 3.025 9.01-3.007 11.85.328l-.23 15.508-26.879-14.426.035-2.33z" mask="url(#prefix__b)"/>
        <path fill="#5F6CCF" d="M138.872 18.003c-.05 0-.091-.042-.09-.093l.23-15.493c0-.05.042-.091.092-.09.05 0 .091.042.09.092l-.23 15.494c0 .05-.042.09-.092.09M145.569 21.418c-.05 0-.09-.042-.09-.093l.23-15.493c0-.05.042-.091.092-.09.051 0 .091.042.09.092l-.23 15.494c0 .05-.042.09-.092.09M152.263 25.027c-.05 0-.09-.042-.09-.093l.23-15.493c.001-.05.042-.09.093-.09.05.001.09.042.09.093l-.23 15.493c0 .05-.042.091-.093.09M158.958 28.633c-.05 0-.09-.042-.09-.093l.23-15.493c0-.05.042-.091.092-.09.051 0 .091.042.09.092l-.23 15.494c0 .05-.042.09-.092.09M165.752 32.266c-.05 0-.09-.042-.09-.092l.23-15.494c.001-.05.042-.09.093-.09.05 0 .09.042.09.093l-.23 15.493c0 .05-.042.091-.093.09" mask="url(#prefix__b)"/>
        <path fill="#ABCFFF" d="M165.824 15.367l-.882-.527c-.098-.058-.176-.213-.174-.344.002-.131.084-.19.181-.133l.882.527c.098.059.176.213.174.345-.002.13-.083.19-.181.132M159.026 11.995l-.883-.527c-.097-.058-.175-.213-.173-.344.002-.131.083-.191.18-.133l.883.527c.097.058.175.214.174.344-.002.132-.084.192-.181.133M152.377 8.66l-.882-.526c-.097-.058-.176-.213-.174-.345.002-.13.084-.19.181-.132l.882.526c.098.059.176.214.174.345-.002.131-.083.191-.18.133M145.634 5.243l-.883-.526c-.097-.059-.175-.214-.173-.345.002-.131.083-.191.18-.133l.882.527c.098.058.176.214.175.344-.002.132-.084.192-.181.133M138.991 1.782l-.882-.527c-.097-.059-.176-.214-.174-.345.002-.131.083-.19.181-.133l.882.527c.098.059.176.214.174.345-.002.131-.083.19-.181.133M165.486 33.167l-.882-.527-.008-.004-.656-.391c-.097-.058-.178.001-.18.132-.002.132.076.287.174.345l.882.527.008.004.655.39c.097.059.179 0 .18-.132.003-.131-.076-.286-.173-.344M151.295 25.132l-.882-.527-.008-.003-.655-.391c-.097-.059-.179.001-.18.132-.003.131.076.286.173.345l.882.527.009.004.654.39c.098.059.18 0 .181-.132.002-.131-.076-.286-.174-.345M158.628 29.176l-.881-.527-.009-.004-.655-.391c-.097-.059-.179.001-.18.132-.002.131.076.287.174.345l.881.527.009.004.655.39c.097.06.179 0 .18-.132.002-.131-.076-.286-.174-.344M144.827 21.526l-.882-.527-.008-.003-.655-.392c-.097-.058-.179.002-.18.133-.003.131.076.286.173.345l.882.527.009.003.655.391c.097.059.178 0 .18-.132.002-.131-.076-.286-.174-.345M137.936 17.895l-.882-.527-.008-.003-.655-.391c-.098-.059-.179 0-.18.132-.003.131.075.286.173.345l.882.527.008.003.655.392c.098.058.18-.002.181-.133.002-.132-.076-.286-.174-.345" mask="url(#prefix__b)"/>
        <path fill="#4C73DB" d="M146.878 44.56l-10.395-6.1c-.891-.522-1.584-1.942-1.548-3.17l.344-11.72c.036-1.229.788-1.8 1.678-1.278l10.395 6.1c.891.522 1.584 1.943 1.548 3.171l-.344 11.72c-.036 1.228-.788 1.8-1.678 1.277" mask="url(#prefix__b)"/>
        <path fill="#FFF" d="M139.336 35.798L136.27 30.876 138.827 28.953 139.473 30.006 137.789 31.273 140.197 35.139zM145.119 38.768L144.472 37.715 146.132 36.467 143.692 32.549 144.553 31.891 147.651 36.864zM140.775 37.98L139.835 37.398 143.194 29.937 144.134 30.519z" mask="url(#prefix__b)"/>
        <path fill="#D9E9FF" d="M164.099 55.206l-10.32-5.857c-.884-.502-1.573-1.89-1.537-3.102l.34-11.556c.035-1.213.78-1.788 1.666-1.286l10.319 5.857c.885.502 1.572 1.891 1.537 3.103l-.34 11.556c-.035 1.212-.781 1.787-1.665 1.285" mask="url(#prefix__b)"/>
        <path fill="#FFF" d="M160.139 48.891l.18.103c.401.227.511.118.529-.5.018-.607-.004-1.169.016-1.855.025-.854.264-1.05.744-.915l.001-.045c-.472-.405-.692-.86-.667-1.715.02-.686.075-1.204.093-1.811.018-.619-.082-.847-.483-1.074l-.18-.103.025-.877.6.34c.84.477 1.21 1.076 1.174 2.29-.023.798-.13 1.16-.151 1.869-.012.393.176.923.795 1.297l-.028.967c-.62-.33-.833-.027-.845.366-.02.71.062 1.179.039 1.977-.036 1.215-.428 1.38-1.268.904l-.6-.34.026-.878zM157.133 48.077l-.6-.34c-.84-.477-1.21-1.076-1.174-2.29.024-.798.131-1.16.152-1.868.011-.394-.177-.924-.796-1.298l.029-.967c.62.33.832.027.844-.366.021-.709-.062-1.179-.039-1.977.036-1.214.429-1.38 1.268-.904l.6.34-.025.878-.181-.103c-.4-.227-.51-.118-.53.5-.017.608.006 1.169-.014 1.855-.026.854-.264 1.05-.745.915l-.001.045c.473.405.692.861.667 1.716-.02.686-.074 1.204-.092 1.81-.018.619.081.847.482 1.075l.181.102-.026.877z" mask="url(#prefix__b)"/>
        <path fill="#C9D5F5" d="M231.647 63.585l-10.469-6.16c-.896-.529-1.627-1.938-1.63-3.148l-.033-11.542c-.004-1.21.72-1.763 1.618-1.235l10.468 6.16c.898.529 1.628 1.938 1.632 3.148l.033 11.541c.003 1.21-.721 1.764-1.619 1.236" mask="url(#prefix__b)"/>
        <path fill="#FFF" d="M226.18 55.569c-1.44-.848-2.612-2.89-2.616-4.562-.005-1.672 1.159-2.34 2.6-1.493 1.44.848 2.61 2.89 2.615 4.562.005 1.672-1.158 2.34-2.598 1.493m4.273-1.898c-.512-.302-.771-1.172-.41-1.38.41-.235.407-1.007-.005-1.725l-.211-.37c-.412-.717-1.077-1.109-1.487-.874-.36.207-.981-.455-.983-1.05-.002-.674-.474-1.497-1.055-1.839l-.298-.175c-.58-.342-1.05-.073-1.048.601.002.595-.617.529-.98-.106-.412-.718-1.078-1.109-1.487-.874l-.21.12c-.41.236-.407 1.008.005 1.726.364.634.109 1.202-.404.9-.58-.34-1.05-.071-1.047.602v.347c.003.674.475 1.497 1.055 1.838.513.302.772 1.172.41 1.38-.409.235-.407 1.007.005 1.725l.212.37c.412.717 1.077 1.109 1.486.874.362-.207.982.456.984 1.05.002.674.474 1.497 1.054 1.839l.299.176c.58.34 1.05.072 1.047-.602-.001-.595.617-.528.981.106.412.718 1.077 1.109 1.486.874l.21-.12c.41-.235.407-1.008-.004-1.726-.364-.634-.109-1.202.404-.9.58.34 1.049.072 1.047-.602l-.001-.347c-.002-.673-.474-1.497-1.055-1.838" mask="url(#prefix__b)"/>
        <path fill="#C9D5F5" d="M12.132 92.95L1.664 86.79C.766 86.262.036 84.853.033 83.643L0 72.101c-.004-1.21.721-1.763 1.618-1.235l10.469 6.16c.897.529 1.627 1.938 1.63 3.148l.034 11.541c.003 1.21-.721 1.764-1.619 1.236" mask="url(#prefix__b)"/>
        <path fill="#32B4CC" d="M103.257 105.277l-10.39-5.999c-2.516 1.747-4.305 3.808-5.304 6.024-.24.535-6.883-3.281-7.556-2.893-2.726 1.574-1.852 5.35-5.686 3.137-2.18-1.258-3.41-2.794-3.565-4.174l12.837-6.11c.432-.196.856-.396 1.27-.605v-8.8l-8.381.943-10.177-2.857-24.438 14.11-20.71 3.158v8.8l27.109 15.651 18.323 10.58 16.883-9.748-.717-8.386-1.393-2.063c2.73-.898 5.742-.918 7.49.09.541.314.912.697 1.12 1.123.598 1.227.842 2.618 2.1 4.394l19.666-11.478v-8.8l-8.48 3.903z" mask="url(#prefix__b)"/>
        <path fill="#8CEDFF" d="M92.867 90.48c-2.516 1.745-4.305 3.807-5.304 6.023-.24.535-.692 1.014-1.365 1.402-2.726 1.574-8.043 1.056-11.877-1.158-3.834-2.213-4.733-5.283-2.007-6.857.653-.377 1.455-.634 2.349-.776 3.797-.604 7.243-1.762 10.2-3.256v-1.022l-18.558-9.692-45.149 25.046v1.021l45.433 26.231 16.166-9.334-.003-1.02-19.297-5.766 25.557-11.05 2.259 12.92 20.467-11.817v-1.022L92.867 90.48z" mask="url(#prefix__b)"/>
        <path fill="#58D6ED" d="M111.738 100.353L92.867 89.458c-2.516 1.746-4.305 3.808-5.304 6.023-.24.535-.692 1.015-1.365 1.403-2.726 1.574-8.043 1.055-11.877-1.158-3.834-2.214-4.732-5.284-2.007-6.858.653-.377 1.455-.633 2.349-.776 3.797-.603 7.243-1.761 10.2-3.256L66.305 74.123 21.156 100.19l45.433 26.23 16.163-9.331c-1.143-1.272-6.634-2.972-7.192-3.294-1.49-.86-1.682-2.252-.745-3.62 1.323-1.062 2.886-2.071 4.631-3.04 2.73-.897 5.742-.918 7.49.092.542.312.913.695 1.12 1.122.633 1.3 1.742 2.77 3.085 3.896l20.353-11.75.244-.142z" mask="url(#prefix__b)"/>
        <path fill="#A7BCF5" d="M17.2 207.887c8.902 4.74 24.044 4.891 33.823.337 9.778-4.553 10.49-12.087 1.587-16.827-8.901-4.74-24.044-4.891-33.822-.338-9.779 4.554-10.49 12.088-1.588 16.828" mask="url(#prefix__b)"/>
        <path fill="#173891" d="M18.875 189.264l5.562-.697c3.722-1.687 5.462-2.954 7.12-1.997l.47.271c1.657.957 1.448 2.645-.467 3.75l-8.178 6.497c-1.914 1.105-4.493.756-6.02-.585 0 0-.916-.826-.261-4.301.373-1.982.243-2.053 1.774-2.938" mask="url(#prefix__b)"/>
        <path fill="#C6D2F2" d="M23.486 189.538c-.13 2.12-5.822 2.12-5.692 0l.421-6.886h5.692l-.421 6.886z" mask="url(#prefix__b)"/>
        <path fill="#173891" d="M24.602 186.48c-2.274 2.339-6.747 1.34-7.608-.35l3.015-68.602 14.305 2.119-9.712 66.832zM38.916 198.654l5.672 1.414c4.256-.24 6.424-.818 7.676.737l.355.44c1.252 1.555.414 3.117-1.864 3.472l-10.399 3.242c-2.277.355-3.87-.56-4.852-2.44 0 0-.375-3.222.581-4.676 1.156-1.757 1.009-1.905 2.83-2.19" mask="url(#prefix__b)"/>
        <path fill="#C6D2F2" d="M42.86 200.784c0 2.34-5.69 2.34-5.69 0v-7.604h5.69v7.604z" mask="url(#prefix__b)"/>
        <path fill="#2A4BD1" d="M43.578 195.979c-1.87 2.653-5.942 2.67-7.094.754l-6.263-60.559c-6.522-1.668-10.248-4.04-10.51-11.896l6.885-6.68H47.14l-3.56 78.38z" mask="url(#prefix__b)"/>
        <path fill="#3D64CC" d="M35.58 192.621l.694 4.49s1.755 2.41 4.695 1.552c2.94-.857 3.102-2.53 3.102-2.53v-4.002s-3.756 3.185-8.491.49M16.272 181.46l.089 4.555s1.547 2.666 4.86 2.294c3.313-.373 3.737-2.002 3.737-2.002l.59-3.957s-4.541 2.542-9.276-.89" mask="url(#prefix__b)"/>
        <path stroke="#2139C4" stroke-linecap="round" stroke-linejoin="round" stroke-width=".5" d="M35.504 204.47s-.553 4.936 3.139 4.871c2.876-.05 10.214-2.734 13.314-3.916 1.268-.483 1.46-1.858 1.044-3.15M16.994 193.77s-1.153 4.658 2.376 5.078c1.15.137 2.709.385 3.812-.279 2.87-1.728 6.7-5.309 9.69-8.024 1.055-.957-.103-2.827-.233-3.091" mask="url(#prefix__b)"/>
        <path stroke="#FFF" stroke-linecap="round" stroke-linejoin="round" stroke-width=".528" d="M44.712 199.904s2.187.471 1.286 3.163M47.025 199.642s2.187.47 1.287 3.162" mask="url(#prefix__b)"/>
        <path stroke="#FFF" stroke-linecap="round" stroke-linejoin="round" stroke-width=".514" d="M24.937 188.368s2.053-.722 2.676 1.969M26.424 187.34s2.053-.723 2.676 1.968" mask="url(#prefix__b)"/>
        <path fill="#FFC2B0" d="M32.41 80.477l-.546-.202c-1.842-.684-2.79-2.75-2.107-4.593l3.855-10.387c.684-1.843 2.75-2.79 4.593-2.107l.545.202c1.843.684 2.79 2.75 2.107 4.593L38.62 78.509c-.683 1.842-4.368 2.652-6.21 1.968" mask="url(#prefix__b)"/>
        <path fill="#C6D3F5" d="M18.815 124.365c.034-9.213-.5-22.078.018-31.957.668-17.771 1.628-20.736 11.384-19.707l2.621.803c1.259.385 2.475.91 3.622 1.557 12.146 6.847 12.879 8.417 12.057 15.799-.402 12.195-.152 22.113-1.266 33.56-2.87 8.335-25.83 6.085-28.436-.055" mask="url(#prefix__b)"/>
        <path fill="#96A9D6" d="M39.332 76.71s-3.867-4.625-10.092-4.102c1.953 1.344 7.355 3.187 10.092 4.101" mask="url(#prefix__b)"/>
        <path fill="#FFC2B0" d="M46.711 64.788c-.229 6.654-7.24 6.809-10.876 3.612-3.636-3.196-5.093-9.173-4.005-14.617 1.09-5.443 7.725-8.317 11.361-5.12 3.636 3.196 3.712 10.543 3.52 16.125" mask="url(#prefix__b)"/>
        <path fill="#FFC2B0" d="M45.72 58.882s.061 1.835.041 2.96c-.01.553-.104 1.34.422 1.514.455.15 2.153-.969 1.809-1.47-.98-1.43-2.272-3.004-2.272-3.004" mask="url(#prefix__b)"/>
        <path fill="#173891" d="M46.888 59.055l-1.319.395c-.203.06-.42-.056-.48-.26-.061-.203.055-.419.258-.48l1.319-.395c.203-.061.42.055.48.259.062.203-.055.42-.258.48" mask="url(#prefix__b)"/>
        <path fill="#4852DB" d="M28.764 67.03s.827 3.443 4.502 3.502c5.173.083 3.403-12.011 8.752-13.902 2.787-.985 4.993-4.698 2.562-7.179-2.431-2.48-4.424-3.006-9.824-1.447-4.719 1.362-14.071 4.636-5.992 19.027" mask="url(#prefix__b)"/>
        <path fill="#FFAE96" d="M37.812 65.53c-1.326-.257-2.19-1.54-1.933-2.864.258-1.325 1.542-2.19 2.867-1.933-.611 1.495-.885 3.107-.934 4.797" mask="url(#prefix__b)"/>
        <path fill="#4852DB" d="M39.172 62.436c-.507-.023-.903-.456-.88-.963l.197-4.363c.023-.507.457-.903.963-.88.507.023.903.456.88.963l-.197 4.363c-.024.507-.457.903-.963.88" mask="url(#prefix__b)"/>
        <path fill="#FFC2B0" d="M68.974 120.118c-1.049 1.416-.748 3.432.668 4.48l3.742 2.77c1.416 1.049 3.433.748 4.481-.668s.747-3.432-.669-4.48l-3.742-2.77c-1.416-1.05-3.432-.748-4.48.668" mask="url(#prefix__b)"/>
        <path fill="#FFC2B0" d="M69.293 123.3s-14.606-2.33-20.87-16.772c-7.82-18.031-10.108-23.364-10.108-23.364L50.643 85.3s4.275 18.139 8.963 24.193c3.469 4.481 11.79 9.336 11.79 9.336l-2.103 4.472z" mask="url(#prefix__b)"/>
        <path fill="#C6D3F5" d="M41.949 78.3c9.85 2.117 8.806 6.604 14.754 20.339.502 1.16.214 2.506-.721 3.356-3.596 3.266-12.718 9.992-18.97.972-7.94-11.455-1.725-22.785-1.725-22.785l6.662-1.882z" mask="url(#prefix__b)"/>
        <path fill="#A2B3DE" d="M42.35 94.76l5.919 12.193-.922 17.483c-.706 2.1-2.631 3.482-5.434 4.347l.436-34.023z" mask="url(#prefix__b)"/>
        <path stroke="#FFF" stroke-linecap="round" stroke-linejoin="round" stroke-width=".5" d="M18.791 121.03s16.001 10.785 28.732.283" mask="url(#prefix__b)"/>
        <path fill="#FFF" d="M48.526 106.759s3.793-1.323 7.633-4.927l.587.86s-2.836 3.642-7.79 4.957l-.43-.89z" mask="url(#prefix__b)"/>
        <path fill="#FFC2B0" d="M77.14 121.309h-5.187c-.492 0-.895-.403-.895-.895 0-.491.403-.894.895-.894h5.186c.492 0 .895.403.895.894 0 .492-.403.895-.895.895" mask="url(#prefix__b)"/>
        <path fill="#A2B3DE" d="M151.146 137.273l-4.054-2.34c-.897.8-1.652 1.651-2.265 2.54l-15.56.492c-1.782-1.805-1.833-3.788.15-4.932.615-.356 1.371-.598 2.215-.732 2.654-.422 5.126-1.13 7.364-2.042v-9.331l-11.33-.893-6.903-.303-10.904 6.295-22.803-5.632v10.435c-.052.942.434 1.801 1.507 2.42.639.37 1.425.618 2.3.752.44.067.873.144 1.305.224l1.069.71-15.072-.283v9.673l42.866 24.748 42.598-24.594v-9.331l-12.483 2.124z" mask="url(#prefix__b)"/>
        <path fill="#A2B3DE" d="M151.146 137.273l-4.054-2.34c-.897.8-1.652 1.651-2.265 2.54l-15.56.492c-1.782-1.805-8.236 21.778-8.236 21.778v9.33l42.598-24.593v-9.331l-12.483 2.124z" mask="url(#prefix__b)"/>
        <path fill="#DAE1F5" d="M147.093 125.602c-1.489 1.326-2.593 2.793-3.29 4.34-.227.504-.653.957-1.288 1.323-2.572 1.485-7.589.995-11.206-1.093-3.617-2.089-4.465-4.985-1.893-6.47.616-.355 1.372-.598 2.216-.732 2.654-.422 5.126-1.13 7.364-2.042v-.962l-18.233-9.565-17.454 10.908c-.597-.708-1.087-2.606-1.458-3.368-.237-.488.349-1.18-.271-1.537-2.588-1.494-7.6-1.023-11.194 1.052-1.416.818-2.434.864-2.95 1.8-.793 1.44-.859 3.894 1.127 4.663.688.267 1.425.618 2.3.752 1.317.203 2.6.462 3.84.776l-16.537 8.586v.962l42.865 24.748 42.598-24.594v-.961l-16.536-8.586z" mask="url(#prefix__b)"/>
        <path fill="#C6D3F5" d="M147.093 124.64c-1.489 1.327-2.593 2.794-3.29 4.34-.227.505-.653.957-1.288 1.324-2.572 1.484-7.589.995-11.206-1.094-3.617-2.088-4.465-4.985-1.893-6.47.616-.355 1.372-.597 2.216-.732 2.654-.422 5.126-1.13 7.364-2.042l-18.233-10.526-17.273 9.984c-.597-.707-.652-1.681-1.023-2.443-.238-.488-1.085-1.062-1.705-1.42-2.588-1.494-6.782-1.142-10.376.934-3.595 2.075-4.411 4.969-1.823 6.463.638.368 1.425.617 2.3.752 1.317.202 2.6.462 3.84.775l-16.537 9.548 42.865 24.749 42.598-24.594-16.536-9.547z" mask="url(#prefix__b)"/>
        <path fill="#A7BCF5" d="M145.843 190.374c-1.498 1.335-2.61 2.811-3.31 4.367-.23.508-.659.963-1.297 1.332-2.588 1.494-7.637 1.002-11.277-1.1-3.64-2.102-4.493-5.016-1.905-6.51.62-.359 1.38-.602 2.23-.737 2.67-.425 5.159-1.138 7.41-2.056l-18.347-10.593-17.383 10.048c-.601-.711-.656-1.692-1.03-2.458-.239-.491-1.091-1.07-1.715-1.43-2.604-1.503-6.825-1.148-10.442.94-3.617 2.089-4.438 5-1.834 6.504.642.371 1.433.621 2.315.757 1.325.203 2.617.465 3.864.78l-16.642 9.609 43.136 24.904 42.867-24.75-16.64-9.607z" mask="url(#prefix__b)"/>
        <path fill="#FFC2B0" d="M86.203 67.62l.716-.168c1.316-.308 2.645.517 2.953 1.832l.633 2.7c.309 1.316-.516 2.645-1.833 2.953l-.716.168c-1.315.308-2.644-.516-2.952-1.832l-.633-2.7c-.309-1.316.516-2.645 1.832-2.953" mask="url(#prefix__b)"/>
        <path fill="#FFC2B0" d="M84.233 69.978s-12.969-14.127-9.91-18.349l4.304-3.212s-.554 6.857 10.13 19.177l-4.524 2.384z" mask="url(#prefix__b)"/>
        <path fill="#FEC601" d="M88.009 32.23l-7.431 23.29c-2.829-.076-4.323 1.155-5.019 3.168 0 0-3.556-2.692-1.333-11.487 2.828-11.194 6.036-17.732 6.036-17.732l7.747 2.76z" mask="url(#prefix__b)"/>
        <path fill="#FFC2B0" d="M120.954 131.832l.482-.04c1.63-.135 2.851-1.578 2.716-3.207l-.762-9.182c-.135-1.63-1.578-2.85-3.206-2.716l-.483.04c-1.628.135-2.85 1.578-2.715 3.206l-.565 8.932c.135 1.628 2.905 3.102 4.533 2.967" mask="url(#prefix__b)"/>
        <path fill="#FFC2B0" d="M121.502 120.408c-1.839 4.034-5.15 4.751-7.393 1.603-2.245-3.148-2.573-8.97-.734-13.002 1.84-4.033 5.15-4.75 7.394-1.603 2.244 3.148 2.572 8.97.733 13.002" mask="url(#prefix__b)"/>
        <path fill="#21DED5" d="M112.683 110.97s2.307-2.77 6.784-2.243l-2.145-3.27s-3.43-.793-4.64 5.513" mask="url(#prefix__b)"/>
        <path fill="#173891" d="M125.042 114.43c-1.39-2.102-4.705-2.141-9.524-.568-4.37.03-4.702-4.988-4.702-4.988-.546-2.694 1.278-3.797 3.972-4.343l7.016-1.421c3.97-.827 7.586 2.598 8.132 5.293l.157.446c.546 2.694-2.357 5.036-5.05 5.582" mask="url(#prefix__b)"/>
        <path fill="#A8C4E5" d="M135.953 255.101c-7.134 3.981-19.395 4.346-27.387.815-7.992-3.531-8.689-9.622-1.555-13.603 7.133-3.981 19.394-4.346 27.386-.815 7.992 3.531 8.689 9.622 1.556 13.603" mask="url(#prefix__b)"/>
        <path fill="#2A4BD1" d="M103.373 249.232l7.854 6.309c1.982 1.265 3.037 1.026 4.668.644.732-.17 1.493-.842 1.433-2.281l-.039-1.623c.024-2.34-1.366-4.89-2.873-5.574l-8.772-2.981c-1.508-.684-6.347 1.938-2.27 5.506M129.907 239.437l-1.295 9.988c-.27 5.198 8.013 5.33 7.955-.272l-.776-10.646c-.201-1.643-4.96-4.408-5.884.93" mask="url(#prefix__b)"/>
        <path fill="#C6D2F2" d="M110.722 249.046c.028 2.391 5.844 2.324 5.817-.067l-.09-7.772-5.816.067.09 7.772zM129.755 244.282c.048 2.39 5.864 2.275 5.816-.115l-.153-7.771-5.816.115.153 7.77z" mask="url(#prefix__b)"/>
        <path fill="#173891" d="M128.936 242.09c2.311 1.59 6.08 1.478 7.3-.449.929-28.474 3.713-47.997 2.941-72.312l-16.663-4.585c3.798 29.134 4.647 54.778 6.422 77.346" mask="url(#prefix__b)"/>
        <path fill="#173891" d="M109.984 245.124c1.892 2.534 6.053 2.468 7.243.587l10.656-76.936-20.99.415 3.09 75.934z" mask="url(#prefix__b)"/>
        <path fill="#618BFF" d="M139.177 173.304c.974-8.905-.163-16.487.974-27.907-.313-15.775-2.49-18.42-13.079-18.85l-2.465-.107c-3.023-.13-10.997 1.675-13.59 3.234-5.324 3.201-8.89 4.538-6.775 15.706l2.651 27.786c.284 14.325 33.381 16.964 32.284.138" mask="url(#prefix__b)"/>
        <path fill="#577DE6" d="M113.557 144.22L107.502 171.602 106.923 173.704 105.328 153.2z" mask="url(#prefix__b)"/>
        <path fill="#173891" d="M127.44 122.287c-1.839 4.033-6.584 4.882-8.828 1.734-2.245-3.148-5.34-9.42-3.5-13.452 1.84-4.033 13.103-4.038 15.347-.89 2.244 3.148-1.18 8.575-3.019 12.608" mask="url(#prefix__b)"/>
        <path fill="#FFC2B0" d="M104.36 150.82s-4.622 4.993-16.043 1.132c0 0-5.163-5.887-.311-6.013 7.005-.181 13.878-2.083 13.878-2.083l2.475 6.963z" mask="url(#prefix__b)"/>
        <path fill="#618BFF" d="M113.557 144.22c-3.833 4.891-8.217 8.3-12.692 11.467-1.008 1.202-7.115-9.894-5.306-11.284 4.02-3.09 8.08-12.314 15.458-14.73 5.992-1.96 6.63 7.255 2.54 14.547" mask="url(#prefix__b)"/>
        <path fill="#FFC2B0" d="M85.565 151.173l-2.023-1.325c-1.646-1.077-2.111-3.306-1.034-4.951 1.078-1.646 3.306-2.111 4.952-1.034l2.023 1.325c1.646 1.078 2.11 3.305 1.033 4.952-1.077 1.646-3.305 2.11-4.951 1.033M162.336 146.443l-1.89 1.51c-1.537 1.227-3.799.974-5.026-.563-1.228-1.537-.974-3.8.562-5.027l1.89-1.51c1.537-1.227 3.8-.974 5.027.563 1.228 1.537.974 3.8-.563 5.027" mask="url(#prefix__b)"/>
        <path fill="#FFC2B0" d="M140.81 145.876s5.682 7.458 19.637 2.076l-3.933-6.014s-8.29 2.12-14.184-2.34l-1.52 6.278z" mask="url(#prefix__b)"/>
        <path fill="#618BFF" d="M134.58 142.882l9.06 9.81c1.302.876 10.43-10.522 8.668-11.968-.31-.256-11.573-12.252-19.331-12.52-6.302-.218-4.351 8.812 1.604 14.678" mask="url(#prefix__b)"/>
        <path fill="#FEC601" d="M12.132 71.73L1.664 65.57C.766 65.04.036 63.631.033 62.421L0 50.881c-.004-1.21.721-1.764 1.618-1.236l10.469 6.16c.897.529 1.627 1.938 1.63 3.148l.034 11.541c.003 1.21-.721 1.764-1.619 1.236" mask="url(#prefix__b)"/>
        <path fill="#FFF" d="M11.894 63.724c.05 2.85-2.155 3.802-4.927 2.126-2.772-1.677-5.06-5.348-5.11-8.199-.05-2.85 2.155-3.802 4.927-2.125 2.772 1.676 5.06 5.347 5.11 8.198" mask="url(#prefix__b)"/>
        <path fill="#FEC601" d="M7.964 60.091l-.005.048.005-.048zm.723 4.394c.437.269.961-.04.83-.492-.125-.439-.287-.856-.423-1.045-.121-.17-.269-.307-.399-.428-.134-.125-.31-.302-.479-.472l-.17-.17-.343-.358-.154-.19c-.01-.01-.028-.03-.036-.043-.004-.022-.002-.046-.004-.066l-.027-.421c.135-.054.215-.196.238-.39.228.144.272-.118.289-.305.012-.133.023-.47-.155-.614l.01-.058c.025-.109.045-.222.042-.351-.003-.129-.03-.276-.095-.425-.015-.035-.035-.072-.058-.1.002-.045-.014-.103-.032-.156-.141-.414-.415-.799-.697-1.046-.283-.248-.573-.372-.841-.43-.197-.043-.458-.042-.456.274 0 .041.01.082.027.122-.038-.02-.066 0-.085.024-.055.076-.072.196-.064.328.007.131.038.276.072.42.006.022.01.047.016.072-.218-.137-.166.274-.137.443.035.21.106.528.313.666.017.094.04.19.073.287.05.142.116.27.193.389l-.001.005.028.433c.001.012.006.036.005.05-.004-.01-.036.01-.044.014l-.092.034-.001-.002-.089-.02v-.003l-.022-.006c-.058-.017-.117-.028-.177-.038l-.007-.002c-.076-.012-.153-.02-.227-.029-.136-.015-.273-.057-.406-.067-.33-.025-.769.206-.816.898-.023.325.16.655.472.853l3.93 2.415z" mask="url(#prefix__b)"/>
        <path stroke="#FFF" stroke-linecap="round" stroke-linejoin="round" stroke-width=".528" d="M109.824 241.207s3.722 3.928 8.027 0M128.63 238.067s3.608 2.568 7.787-.397" mask="url(#prefix__b)"/>
        <path fill="#FFAE96" d="M88.362 15.032c.126 1.23.955 2.153 1.851 2.06.896-.092 1.52-1.164 1.395-2.393-.126-1.23-.955-2.153-1.851-2.061-.896.092-1.521 1.164-1.395 2.394" mask="url(#prefix__b)"/>
        <path fill="#4852DB" d="M92.965 6.123s1.644 8.497-7.07 11.938c0 0-4.287-4.462-.38-12.777 3.445-7.329 11.47-3.46 11.47-3.46l-4.02 4.3z" mask="url(#prefix__b)"/>
        <path stroke="#FFAE96" stroke-linejoin="round" stroke-width=".648" d="M99.342 13.006c0 .513.756 2.829.756 2.829" mask="url(#prefix__b)"/>
        <path fill="#FFF" d="M9.04 81.673l-4.329-2.5c-.474-.273-.859-1.008-.859-1.64 0-.633.385-.924.86-.65l4.327 2.5c.475.273.86 1.008.86 1.64 0 .633-.385.924-.86.65M9.04 86.097l-4.329-2.5c-.474-.273-.859-1.008-.859-1.64 0-.633.385-.924.86-.65l4.327 2.5c.475.273.86 1.008.86 1.64 0 .633-.385.924-.86.65" mask="url(#prefix__b)"/>
        <path stroke="#2139C4" stroke-linecap="round" stroke-linejoin="round" stroke-width=".5" d="M103.438 247.66s7.376 7.204 9.834 7.604c2.459.4 3.717-1.2 3.717-1.2M129.339 249.933s2.645 3.987 6.232.493" mask="url(#prefix__b)"/>
        <path stroke="#FFF" stroke-linecap="round" stroke-linejoin="round" stroke-width=".5" d="M99.44 140.104s.51 8.533 7.703 10.507M140.81 149.903s9.597-7.126 8.326-12.247M116.075 127.818c.29-.067 5.42 3.114 9.298-1.344M75.56 58.688s.426-3.196 5.018-3.169M110.645 44.688s3.366.715 4.983-4.848" mask="url(#prefix__b)"/>
        <path fill="#FFC2B0" d="M116.774 117.41c0 1.282-.673 2.322-1.504 2.322-.83 0-1.504-1.04-1.504-2.323s.673-2.323 1.504-2.323c.83 0 1.504 1.04 1.504 2.323" mask="url(#prefix__b)"/>
        <path stroke="#4639BF" stroke-linecap="round" stroke-linejoin="round" stroke-width=".5" d="M93.06 6.933s-2.976-3.731-4.304-4.131" mask="url(#prefix__b)"/>
    </g>
</svg>
