<?xml version="1.0" encoding="utf-8"?>
<!-- Generator: Adobe Illustrator 24.3.0, SVG Export Plug-In . SVG Version: 6.00 Build 0)  -->
<svg version="1.1" id="레이어_1" xmlns="http://www.w3.org/2000/svg" xmlns:xlink="http://www.w3.org/1999/xlink" x="0px"
	 y="0px" viewBox="0 0 263 105" style="enable-background:new 0 0 263 105;" xml:space="preserve">
<style type="text/css">
	.st0{fill:#00B6CC;}
	.st1{fill:#002B49;}
</style>
<g>
	<path class="st0" d="M8068.19,8127.86c-19.07,0-34.59-15.52-34.59-34.59c0-8.23,2.94-16.21,8.28-22.46
		c4.51-5.28,10.5-9.07,17.12-10.89c1.54-20.47,18.68-36.66,39.54-36.66c15.96,0,30.19,9.57,36.39,23.88
		c4.33-2.38,9.21-3.65,14.21-3.65c14.94,0,27.32,11.15,29.27,25.56c8.28,1.12,15.76,5.71,20.52,12.75c1.31,1.94,0.8,4.57-1.14,5.88
		c-1.94,1.31-4.57,0.8-5.88-1.14c-3.93-5.82-10.46-9.29-17.47-9.29h-4.24v-4.24c0-11.61-9.45-21.06-21.06-21.06
		c-4.99,0-9.83,1.78-13.63,5.02l-5.11,4.35l-1.73-6.48c-3.63-13.61-16.02-23.12-30.12-23.12c-17.19,0-31.18,13.99-31.18,31.18
		l0,0.09c0,0.1,0.01,0.19,0.01,0.29l0.04,3.63l-3.58,0.6c-6.02,1.01-11.53,4.13-15.52,8.8c-4.03,4.72-6.25,10.74-6.25,16.95
		c0,14.4,11.72,26.12,26.12,26.12c2.34,0,4.24,1.9,4.24,4.24C8072.43,8125.96,8070.53,8127.86,8068.19,8127.86z"/>
	<path class="st1" d="M8115.03,8099.16c-3.27,0-6.38,1.4-8.55,3.85c-2.01-2.28-4.79-3.64-7.83-3.83c-0.25-0.01-0.49-0.02-0.73-0.02
		c-4.11,0-7.95,2.19-10.14,6.1c-0.86,1.53-1.26,3.28-1.26,5.04v17.37h5.72v-17.87c0-1.42,0.66-2.79,1.82-3.6
		c4.59-3.24,9.55,0,9.55,4.37v17.1h5.72v-17.87c0-1.42,0.66-2.79,1.82-3.6c4.59-3.24,9.55,0,9.55,4.37v17.1h5.73v-17.35
		c0-1.47-0.26-2.94-0.88-4.27C8123.52,8101.68,8119.47,8099.16,8115.03,8099.16z"/>
	<path class="st1" d="M8156.44,8103.62c-1.31-1.31-2.83-2.34-4.53-3.06c-1.76-0.74-3.63-1.12-5.55-1.12s-3.79,0.38-5.55,1.12
		c-1.7,0.72-3.22,1.75-4.53,3.06c-1.31,1.31-2.34,2.83-3.05,4.53c-0.74,1.76-1.12,3.63-1.12,5.55c0,1.93,0.38,3.79,1.12,5.55
		c0.72,1.7,1.75,3.22,3.05,4.53c1.31,1.31,2.83,2.34,4.53,3.06c1.76,0.74,3.62,1.12,5.55,1.12c2.49,0,4.98-0.66,7.14-1.91v-4.73
		c0-0.03-0.01-0.05-0.02-0.07c-0.69-0.92-1.69-0.99-2.33-0.47c-0.42,0.34-0.89,0.61-1.39,0.8c-7.6,2.98-14.75-4.68-10.79-12.3
		c0.66-1.27,1.72-2.32,2.99-2.98c6.46-3.35,12.94,1.29,12.94,7.41v13.97h5.73v-13.97c0-1.92-0.38-3.79-1.12-5.55
		C8158.78,8106.45,8157.75,8104.93,8156.44,8103.62z"/>
	<path class="st1" d="M8191.95,8099.44h-5.73v16.45c0,2.04-1.04,3.95-2.76,5.02c-5.6,3.49-11.45-0.48-11.45-5.79v-15.68h-5.72v15.68
		c0,1.73,0.34,3.41,1.01,5c0.65,1.53,1.57,2.9,2.75,4.08c1.18,1.18,2.55,2.1,4.08,2.75c1.58,0.67,3.26,1.01,4.99,1.01
		c1.73,0,3.41-0.34,4.99-1.01c1.53-0.65,2.9-1.57,4.08-2.75c1.18-1.18,2.1-2.55,2.75-4.08c0.67-1.58,1.01-3.26,1.01-5V8099.44z"/>
	<path class="st1" d="M8226.11,8099.16c-3.27,0-6.38,1.4-8.54,3.85c-2.01-2.28-4.79-3.64-7.83-3.83c-0.25-0.01-0.49-0.02-0.73-0.02
		c-4.12,0-7.96,2.2-10.14,6.11c-0.85,1.53-1.25,3.28-1.25,5.03v17.37h5.72v-17.87c0-1.42,0.66-2.79,1.82-3.61
		c4.59-3.23,9.55,0,9.55,4.37v17.1h5.72v-17.87c0-1.42,0.66-2.79,1.82-3.6c4.59-3.23,9.54,0,9.54,4.37v17.1h5.72v-17.36
		c0-1.45-0.25-2.9-0.86-4.22C8234.64,8101.7,8230.57,8099.16,8226.11,8099.16z"/>
	<path class="st1" d="M8247.9,8122.82c-2.9-1.92-6.03,1.21-4.12,4.11c0.11,0.17,0.27,0.33,0.44,0.44c2.9,1.9,6.01-1.21,4.11-4.11
		C8248.23,8123.09,8248.08,8122.94,8247.9,8122.82z"/>
	<path class="st1" d="M8292.22,8099.19h-6.29v28.48h6.29V8099.19z"/>
	<path class="st1" d="M8276.08,8103.62c-1.31-1.31-2.83-2.34-4.53-3.06c-1.76-0.74-3.63-1.12-5.55-1.12c-1.92,0-3.79,0.38-5.55,1.12
		c-1.7,0.72-3.22,1.75-4.53,3.06c-1.31,1.31-2.34,2.83-3.05,4.53c-0.74,1.76-1.12,3.63-1.12,5.55c0,1.93,0.38,3.79,1.12,5.55
		c0.72,1.7,1.75,3.22,3.05,4.53s2.83,2.34,4.53,3.06c1.76,0.74,3.63,1.12,5.55,1.12c2.49,0,4.98-0.66,7.13-1.91v-4.74
		c0-0.03-0.01-0.05-0.02-0.07c-0.69-0.92-1.69-0.99-2.33-0.46c-0.42,0.34-0.89,0.6-1.39,0.8c-7.6,2.97-14.75-4.68-10.79-12.3
		c0.66-1.27,1.72-2.32,2.99-2.98c6.46-3.35,12.94,1.29,12.94,7.41v13.97h5.73l0,0v-13.97c0-1.92-0.38-3.79-1.12-5.55
		C8278.42,8106.45,8277.39,8104.93,8276.08,8103.62z"/>
	<circle class="st0" cx="8289.14" cy="8087.19" r="7.11"/>
</g>
<path class="st0" d="M34.57,104.98c-19.07,0-34.59-15.52-34.59-34.59c0-8.23,2.94-16.21,8.28-22.46c4.51-5.28,10.5-9.07,17.12-10.89
	C26.93,16.57,44.07,0.38,64.93,0.38c15.96,0,30.19,9.57,36.39,23.88c4.33-2.38,9.21-3.65,14.21-3.65
	c14.94,0,27.32,11.15,29.27,25.56c8.28,1.12,15.76,5.71,20.52,12.75c1.31,1.94,0.8,4.57-1.14,5.88c-1.94,1.31-4.57,0.8-5.88-1.14
	c-3.93-5.82-10.46-9.29-17.47-9.29h-4.24v-4.24c0-11.61-9.45-21.06-21.06-21.06c-4.99,0-9.83,1.78-13.63,5.02l-5.11,4.35l-1.73-6.48
	C91.42,18.36,79.03,8.86,64.93,8.86c-17.19,0-31.18,13.99-31.18,31.18l0,0.09c0,0.1,0.01,0.19,0.01,0.29l0.04,3.63l-3.58,0.6
	c-6.02,1.01-11.53,4.13-15.52,8.8c-4.03,4.72-6.25,10.74-6.25,16.95c0,14.4,11.72,26.12,26.12,26.12c2.34,0,4.24,1.9,4.24,4.24
	S36.91,104.98,34.57,104.98z"/>
<path class="st1" d="M81.41,76.28c-3.27,0-6.38,1.4-8.55,3.85c-2.01-2.28-4.79-3.64-7.83-3.83c-0.25-0.01-0.49-0.02-0.73-0.02
	c-4.12,0-7.95,2.19-10.14,6.1c-0.86,1.53-1.26,3.28-1.26,5.04v17.37h5.72V86.93c0-1.42,0.66-2.79,1.82-3.6
	c4.59-3.24,9.55,0,9.55,4.37v17.1h5.72V86.93c0-1.42,0.66-2.79,1.82-3.6c4.59-3.24,9.55,0,9.55,4.37v17.1h5.73V87.44
	c0-1.47-0.26-2.94-0.88-4.27C89.9,78.8,85.85,76.28,81.41,76.28z"/>
<path class="st1" d="M122.82,80.74c-1.31-1.31-2.83-2.34-4.53-3.06c-1.76-0.74-3.63-1.12-5.55-1.12s-3.79,0.38-5.55,1.12
	c-1.7,0.72-3.22,1.75-4.53,3.06c-1.31,1.31-2.34,2.83-3.05,4.53c-0.74,1.76-1.12,3.63-1.12,5.55c0,1.93,0.38,3.79,1.12,5.55
	c0.72,1.7,1.75,3.22,3.05,4.53c1.31,1.31,2.83,2.34,4.53,3.06c1.76,0.74,3.62,1.12,5.55,1.12c2.49,0,4.98-0.66,7.14-1.91v-4.73
	c0-0.03-0.01-0.05-0.02-0.07c-0.69-0.92-1.69-0.99-2.33-0.47c-0.42,0.34-0.89,0.61-1.39,0.8c-7.6,2.98-14.75-4.68-10.79-12.3
	c0.66-1.27,1.72-2.32,2.99-2.98c6.46-3.35,12.94,1.29,12.94,7.41v13.97H127V90.82c0-1.92-0.38-3.79-1.12-5.55
	C125.16,83.58,124.13,82.05,122.82,80.74z"/>
<path class="st1" d="M158.33,76.57h-5.73l0,16.45c0,2.04-1.04,3.95-2.76,5.02c-5.6,3.49-11.45-0.48-11.45-5.79V76.57h-5.72v15.68
	c0,1.73,0.34,3.41,1.01,5c0.65,1.53,1.57,2.9,2.75,4.08c1.18,1.18,2.55,2.1,4.08,2.75c1.58,0.67,3.26,1.01,4.99,1.01
	c1.73,0,3.41-0.34,4.99-1.01c1.53-0.65,2.9-1.57,4.08-2.75c1.18-1.18,2.1-2.55,2.75-4.08c0.67-1.58,1.01-3.26,1.01-5V76.57z"/>
<path class="st1" d="M192.49,76.28c-3.27,0-6.38,1.4-8.54,3.85c-2.01-2.28-4.79-3.64-7.83-3.83c-0.25-0.01-0.49-0.02-0.73-0.02
	c-4.12,0-7.96,2.2-10.14,6.11c-0.85,1.53-1.25,3.28-1.25,5.03v17.37h5.72V86.93c0-1.42,0.66-2.79,1.82-3.61
	c4.59-3.23,9.55,0,9.55,4.37v17.1h5.72V86.92c0-1.42,0.66-2.79,1.82-3.6c4.59-3.23,9.54,0,9.54,4.37v17.1h5.72V87.43
	c0-1.45-0.25-2.9-0.86-4.22C201.02,78.82,196.95,76.28,192.49,76.28z"/>
<path class="st1" d="M214.29,99.95c-2.9-1.92-6.03,1.21-4.12,4.11c0.11,0.17,0.27,0.33,0.44,0.44c2.9,1.9,6.01-1.21,4.11-4.11
	C214.61,100.21,214.46,100.06,214.29,99.95z"/>
<path class="st1" d="M258.6,76.32h-6.29v28.48h6.29V76.32z"/>
<path class="st1" d="M242.46,80.74c-1.31-1.31-2.83-2.34-4.53-3.06c-1.76-0.74-3.63-1.12-5.55-1.12c-1.92,0-3.79,0.38-5.55,1.12
	c-1.7,0.72-3.22,1.75-4.53,3.06c-1.31,1.31-2.34,2.83-3.05,4.53c-0.74,1.76-1.12,3.63-1.12,5.55c0,1.93,0.38,3.79,1.12,5.55
	c0.72,1.7,1.75,3.22,3.05,4.53c1.31,1.31,2.83,2.34,4.53,3.06c1.76,0.74,3.63,1.12,5.55,1.12c2.49,0,4.98-0.66,7.13-1.91v-4.74
	c0-0.03-0.01-0.05-0.02-0.07c-0.69-0.92-1.69-0.99-2.34-0.46c-0.41,0.34-0.89,0.6-1.39,0.8c-7.6,2.97-14.75-4.68-10.79-12.3
	c0.66-1.27,1.72-2.32,2.99-2.98c6.46-3.35,12.94,1.29,12.94,7.41v13.97h5.73l0,0V90.82c0-1.92-0.38-3.79-1.12-5.55
	C244.8,83.58,243.77,82.05,242.46,80.74z"/>
<circle class="st0" cx="255.52" cy="64.31" r="7.11"/>
</svg>
