<?xml version="1.0" encoding="utf-8"?>
<!-- Generator: Adobe Illustrator 24.3.0, SVG Export Plug-In . SVG Version: 6.00 Build 0)  -->
<svg version="1.1" id="레이어_1" xmlns="http://www.w3.org/2000/svg" xmlns:xlink="http://www.w3.org/1999/xlink" x="0px"
	 y="0px" viewBox="0 0 263 105" style="enable-background:new 0 0 263 105;" xml:space="preserve">
<style type="text/css">
	.st0{fill:#FFFFFF;}
</style>
<g>
	<path class="st0" d="M8068.2,8127.9c-19.1,0-34.6-15.5-34.6-34.6c0-8.2,2.9-16.2,8.3-22.5c4.5-5.3,10.5-9.1,17.1-10.9
		c1.5-20.5,18.7-36.7,39.5-36.7c16,0,30.2,9.6,36.4,23.9c4.3-2.4,9.2-3.6,14.2-3.6c14.9,0,27.3,11.1,29.3,25.6
		c8.3,1.1,15.8,5.7,20.5,12.8c1.3,1.9,0.8,4.6-1.1,5.9c-1.9,1.3-4.6,0.8-5.9-1.1c-3.9-5.8-10.5-9.3-17.5-9.3h-4.2v-4.2
		c0-11.6-9.5-21.1-21.1-21.1c-5,0-9.8,1.8-13.6,5l-5.1,4.4l-1.7-6.5c-3.6-13.6-16-23.1-30.1-23.1c-17.2,0-31.2,14-31.2,31.2v0.1
		c0,0.1,0,0.2,0,0.3l0,3.6l-3.6,0.6c-6,1-11.5,4.1-15.5,8.8c-4,4.7-6.3,10.7-6.3,17c0,14.4,11.7,26.1,26.1,26.1
		c2.3,0,4.2,1.9,4.2,4.2C8072.4,8126,8070.5,8127.9,8068.2,8127.9z"/>
	<path class="st0" d="M8115,8099.2c-3.3,0-6.4,1.4-8.5,3.9c-2-2.3-4.8-3.6-7.8-3.8c-0.3,0-0.5,0-0.7,0c-4.1,0-8,2.2-10.1,6.1
		c-0.9,1.5-1.3,3.3-1.3,5v17.4h5.7v-17.9c0-1.4,0.7-2.8,1.8-3.6c4.6-3.2,9.5,0,9.5,4.4v17.1h5.7v-17.9c0-1.4,0.7-2.8,1.8-3.6
		c4.6-3.2,9.5,0,9.5,4.4v17.1h5.7v-17.4c0-1.5-0.3-2.9-0.9-4.3C8123.5,8101.7,8119.5,8099.2,8115,8099.2z"/>
	<path class="st0" d="M8156.4,8103.6c-1.3-1.3-2.8-2.3-4.5-3.1c-1.8-0.7-3.6-1.1-5.5-1.1s-3.8,0.4-5.5,1.1c-1.7,0.7-3.2,1.8-4.5,3.1
		c-1.3,1.3-2.3,2.8-3,4.5c-0.7,1.8-1.1,3.6-1.1,5.5c0,1.9,0.4,3.8,1.1,5.5c0.7,1.7,1.8,3.2,3,4.5c1.3,1.3,2.8,2.3,4.5,3.1
		c1.8,0.7,3.6,1.1,5.5,1.1c2.5,0,5-0.7,7.1-1.9v-4.7c0,0,0,0,0-0.1c-0.7-0.9-1.7-1-2.3-0.5c-0.4,0.3-0.9,0.6-1.4,0.8
		c-7.6,3-14.8-4.7-10.8-12.3c0.7-1.3,1.7-2.3,3-3c6.5-3.4,12.9,1.3,12.9,7.4v14h5.7v-14c0-1.9-0.4-3.8-1.1-5.5
		C8158.8,8106.5,8157.8,8104.9,8156.4,8103.6z"/>
	<path class="st0" d="M8192,8099.4h-5.7v16.5c0,2-1,4-2.8,5c-5.6,3.5-11.5-0.5-11.5-5.8v-15.7h-5.7v15.7c0,1.7,0.3,3.4,1,5
		c0.6,1.5,1.6,2.9,2.8,4.1s2.5,2.1,4.1,2.8c1.6,0.7,3.3,1,5,1c1.7,0,3.4-0.3,5-1c1.5-0.6,2.9-1.6,4.1-2.8s2.1-2.5,2.8-4.1
		c0.7-1.6,1-3.3,1-5V8099.4z"/>
	<path class="st0" d="M8226.1,8099.2c-3.3,0-6.4,1.4-8.5,3.9c-2-2.3-4.8-3.6-7.8-3.8c-0.3,0-0.5,0-0.7,0c-4.1,0-8,2.2-10.1,6.1
		c-0.8,1.5-1.3,3.3-1.3,5v17.4h5.7v-17.9c0-1.4,0.7-2.8,1.8-3.6c4.6-3.2,9.5,0,9.5,4.4v17.1h5.7v-17.9c0-1.4,0.7-2.8,1.8-3.6
		c4.6-3.2,9.5,0,9.5,4.4v17.1h5.7v-17.4c0-1.5-0.3-2.9-0.9-4.2C8234.6,8101.7,8230.6,8099.2,8226.1,8099.2z"/>
	<path class="st0" d="M8247.9,8122.8c-2.9-1.9-6,1.2-4.1,4.1c0.1,0.2,0.3,0.3,0.4,0.4c2.9,1.9,6-1.2,4.1-4.1
		C8248.2,8123.1,8248.1,8122.9,8247.9,8122.8z"/>
	<path class="st0" d="M8292.2,8099.2h-6.3v28.5h6.3V8099.2z"/>
	<path class="st0" d="M8276.1,8103.6c-1.3-1.3-2.8-2.3-4.5-3.1c-1.8-0.7-3.6-1.1-5.5-1.1s-3.8,0.4-5.5,1.1c-1.7,0.7-3.2,1.8-4.5,3.1
		c-1.3,1.3-2.3,2.8-3,4.5c-0.7,1.8-1.1,3.6-1.1,5.5c0,1.9,0.4,3.8,1.1,5.5c0.7,1.7,1.8,3.2,3,4.5s2.8,2.3,4.5,3.1
		c1.8,0.7,3.6,1.1,5.5,1.1c2.5,0,5-0.7,7.1-1.9v-4.7c0,0,0,0,0-0.1c-0.7-0.9-1.7-1-2.3-0.5c-0.4,0.3-0.9,0.6-1.4,0.8
		c-7.6,3-14.8-4.7-10.8-12.3c0.7-1.3,1.7-2.3,3-3c6.5-3.4,12.9,1.3,12.9,7.4v14h5.7l0,0v-14c0-1.9-0.4-3.8-1.1-5.5
		C8278.4,8106.5,8277.4,8104.9,8276.1,8103.6z"/>
	<circle class="st0" cx="8289.1" cy="8087.2" r="7.1"/>
</g>
<path class="st0" d="M34.6,105C15.5,105,0,89.5,0,70.4c0-8.2,2.9-16.2,8.3-22.5c4.5-5.3,10.5-9.1,17.1-10.9
	C26.9,16.6,44.1,0.4,64.9,0.4c16,0,30.2,9.6,36.4,23.9c4.3-2.4,9.2-3.6,14.2-3.6c14.9,0,27.3,11.1,29.3,25.6
	c8.3,1.1,15.8,5.7,20.5,12.8c1.3,1.9,0.8,4.6-1.1,5.9s-4.6,0.8-5.9-1.1c-3.9-5.8-10.5-9.3-17.5-9.3h-4.2v-4.2
	c0-11.6-9.4-21.1-21.1-21.1c-5,0-9.8,1.8-13.6,5l-5.1,4.3L95.1,32C91.4,18.4,79,8.9,64.9,8.9c-17.2,0-31.2,14-31.2,31.2v0.1
	c0,0.1,0,0.2,0,0.3l0,3.6l-3.6,0.6c-6,1-11.5,4.1-15.5,8.8c-4,4.7-6.3,10.7-6.3,17c0,14.4,11.7,26.1,26.1,26.1
	c2.3,0,4.2,1.9,4.2,4.2S36.9,105,34.6,105z"/>
<path class="st0" d="M81.4,76.3c-3.3,0-6.4,1.4-8.6,3.8c-2-2.3-4.8-3.6-7.8-3.8c-0.3,0-0.5,0-0.7,0c-4.1,0-8,2.2-10.1,6.1
	c-0.9,1.5-1.3,3.3-1.3,5v17.4h5.7V86.9c0-1.4,0.7-2.8,1.8-3.6c4.6-3.2,9.5,0,9.5,4.4v17.1h5.7V86.9c0-1.4,0.7-2.8,1.8-3.6
	c4.6-3.2,9.6,0,9.6,4.4v17.1h5.7V87.4c0-1.5-0.3-2.9-0.9-4.3C89.9,78.8,85.8,76.3,81.4,76.3z"/>
<path class="st0" d="M122.8,80.7c-1.3-1.3-2.8-2.3-4.5-3.1c-1.8-0.7-3.6-1.1-5.6-1.1s-3.8,0.4-5.6,1.1c-1.7,0.7-3.2,1.8-4.5,3.1
	s-2.3,2.8-3.1,4.5c-0.7,1.8-1.1,3.6-1.1,5.6c0,1.9,0.4,3.8,1.1,5.6c0.7,1.7,1.8,3.2,3.1,4.5c1.3,1.3,2.8,2.3,4.5,3.1
	c1.8,0.7,3.6,1.1,5.6,1.1c2.5,0,5-0.7,7.1-1.9v-4.7c0,0,0-0.1,0-0.1c-0.7-0.9-1.7-1-2.3-0.5c-0.4,0.3-0.9,0.6-1.4,0.8
	c-7.6,3-14.8-4.7-10.8-12.3c0.7-1.3,1.7-2.3,3-3c6.5-3.3,12.9,1.3,12.9,7.4v14h5.7v-14c0-1.9-0.4-3.8-1.1-5.6
	C125.2,83.6,124.1,82.1,122.8,80.7z"/>
<path class="st0" d="M158.3,76.6h-5.7V93c0,2-1,3.9-2.8,5c-5.6,3.5-11.4-0.5-11.4-5.8V76.6h-5.7v15.7c0,1.7,0.3,3.4,1,5
	c0.6,1.5,1.6,2.9,2.8,4.1s2.6,2.1,4.1,2.8c1.6,0.7,3.3,1,5,1c1.7,0,3.4-0.3,5-1c1.5-0.7,2.9-1.6,4.1-2.8c1.2-1.2,2.1-2.6,2.8-4.1
	c0.7-1.6,1-3.3,1-5L158.3,76.6L158.3,76.6z"/>
<path class="st0" d="M192.5,76.3c-3.3,0-6.4,1.4-8.5,3.8c-2-2.3-4.8-3.6-7.8-3.8c-0.3,0-0.5,0-0.7,0c-4.1,0-8,2.2-10.1,6.1
	c-0.9,1.5-1.3,3.3-1.3,5v17.4h5.7V86.9c0-1.4,0.7-2.8,1.8-3.6c4.6-3.2,9.6,0,9.6,4.4v17.1h5.7V86.9c0-1.4,0.7-2.8,1.8-3.6
	c4.6-3.2,9.5,0,9.5,4.4v17.1h5.7V87.4c0-1.4-0.3-2.9-0.9-4.2C201,78.8,196.9,76.3,192.5,76.3z"/>
<path class="st0" d="M214.3,99.9c-2.9-1.9-6,1.2-4.1,4.1c0.1,0.2,0.3,0.3,0.4,0.4c2.9,1.9,6-1.2,4.1-4.1
	C214.6,100.2,214.5,100.1,214.3,99.9z"/>
<path class="st0" d="M258.6,76.3h-6.3v28.5h6.3V76.3z"/>
<path class="st0" d="M242.5,80.7c-1.3-1.3-2.8-2.3-4.5-3.1c-1.8-0.7-3.6-1.1-5.6-1.1s-3.8,0.4-5.6,1.1c-1.7,0.7-3.2,1.8-4.5,3.1
	s-2.3,2.8-3.1,4.5c-0.7,1.8-1.1,3.6-1.1,5.6c0,1.9,0.4,3.8,1.1,5.6c0.7,1.7,1.8,3.2,3.1,4.5c1.3,1.3,2.8,2.3,4.5,3.1
	c1.8,0.7,3.6,1.1,5.6,1.1c2.5,0,5-0.7,7.1-1.9v-4.7c0,0,0-0.1,0-0.1c-0.7-0.9-1.7-1-2.3-0.5c-0.4,0.3-0.9,0.6-1.4,0.8
	c-7.6,3-14.8-4.7-10.8-12.3c0.7-1.3,1.7-2.3,3-3c6.5-3.3,12.9,1.3,12.9,7.4v14h5.7l0,0v-14c0-1.9-0.4-3.8-1.1-5.6
	C244.8,83.6,243.8,82.1,242.5,80.7z"/>
<circle class="st0" cx="255.5" cy="64.3" r="7.1"/>
</svg>
