<svg xmlns="http://www.w3.org/2000/svg" width="207.04" height="20.5" viewBox="0 0 207.04 20.5">
  <path id="img_text" d="M-89.14-10.04h2.66v-1.88h-2.66V-15.6h-2.28V-5h1.88a.4.4,0,0,0,.4-.4Zm-12.34,2.22c-.14,0-.2-.06-.2-.2v-5.16h4.9v5.16c0,.14-.06.2-.2.2ZM-94.54-15h-9.4v7.74a1.225,1.225,0,0,0,1.22,1.22h6.94a1.229,1.229,0,0,0,1.24-1.22ZM-102.2-3.92v1.88h5.48l-.04.1c-.8,1.96-3.38,3.14-6.36,3.84l1.28,1.6A12.471,12.471,0,0,0-95.56-.02a11.589,11.589,0,0,0,6.1,3.52l1.28-1.6c-2.24-.54-5.36-1.68-6.16-3.86l-.02-.08h5.2a.4.4,0,0,0,.4-.4V-3.92ZM-83.76,2.3a1.172,1.172,0,0,0,1.22,1.2h10.56a1.183,1.183,0,0,0,1.22-1.2V-2.94h-5.4V-4.98h7.46a.38.38,0,0,0,.4-.4V-6.86H-86.32v1.88h7.92v2.04h-5.36Zm5.36-16.98h-5.34v1.8h5.1l-.04.12c-.7,1.88-4.22,2.8-6.22,3.34l1.26,1.6c1.96-.58,5.04-1.6,6.42-3.3,1.28,1.42,3.64,2.42,6.34,3.32l1.24-1.6c-2.12-.52-5.18-1.7-6.14-3.36-.02-.06-.06-.06-.08-.12h5.16v-1.8h-5.4v-1.96h-2.3Zm5.42,13.6V1.44c0,.14-.06.2-.2.2h-8.18c-.14,0-.2-.06-.2-.2V-1.08ZM-51.66.2c0-2.88-3.26-3.68-6.5-3.68-3.26,0-6.5.8-6.5,3.68,0,2.86,3.24,3.66,6.5,3.66C-54.92,3.86-51.66,3.04-51.66.2Zm-6.28-8.12c0-2.4-2.3-3.56-4.76-3.56s-4.72,1.16-4.72,3.56c0,2.38,2.32,3.5,4.72,3.5S-57.94-5.58-57.94-7.92Zm6.16-7.7h-2.3v3.94h-3.34v1.86h3.34v2.18h-3.34v1.88h3.34v1.8h1.9a.4.4,0,0,0,.4-.4ZM-54.04.2c0,1.26-1.94,1.76-4.1,1.76-2.24,0-4.14-.52-4.14-1.76,0-1.28,1.9-1.78,4.14-1.78C-55.94-1.58-54.04-1.08-54.04.2Zm-3.5-14.14h-4.02v-2.1h-2.32v2.1H-67.9v1.8h10.36Zm-2.62,6.02c0,1.18-1.16,1.76-2.54,1.76-1.36,0-2.5-.58-2.5-1.76s1.14-1.82,2.5-1.82C-61.32-9.74-60.16-9.1-60.16-7.92Zm17.98-2.34A3.071,3.071,0,0,1-39.3-13.5a2.973,2.973,0,0,1,2.86,3.24c0,1.84-1.1,3.3-2.86,3.3A3.011,3.011,0,0,1-42.18-10.26Zm-2.3.02A5,5,0,0,0-39.3-5.02a4.99,4.99,0,0,0,5.14-5.22,4.934,4.934,0,0,0-5.14-5.18A4.966,4.966,0,0,0-44.48-10.24Zm14.82,8.38a.4.4,0,0,0,.4-.4V-15.6H-31.5V-1.86Zm.88,3.4H-39.42a.184.184,0,0,1-.18-.2v-4h-2.28V2.22a1.225,1.225,0,0,0,1.22,1.22h11.48a.4.4,0,0,0,.4-.4ZM-11.36-.24c0-2.78-3.02-4.04-6.74-4.04-3.7,0-6.74,1.26-6.74,4.04s3.04,4.02,6.74,4.02C-14.38,3.78-11.36,2.54-11.36-.24Zm-2.56-13.34c.14,0,.2.06.2.2v1.06a19.04,19.04,0,0,1-.94,4.14l2.18.02a10.259,10.259,0,0,0,1.02-4.26v-1.8a1.2,1.2,0,0,0-1.22-1.2H-24.72v1.84ZM-22.46-.24c0-1.44,1.76-2.18,4.36-2.18,2.64,0,4.36.74,4.36,2.18,0,1.46-1.72,2.16-4.36,2.16C-20.7,1.92-22.46,1.22-22.46-.24ZM-9.1-7.16h-8.92v-4.1h-2.26v4.1h-6.84v1.88H-9.5a.4.4,0,0,0,.4-.4Zm3.12-3.1A3.071,3.071,0,0,1-3.1-13.5,2.973,2.973,0,0,1-.24-10.26c0,1.84-1.1,3.3-2.86,3.3A3.011,3.011,0,0,1-5.98-10.26Zm-2.3.02A5,5,0,0,0-3.1-5.02a4.99,4.99,0,0,0,5.14-5.22A4.934,4.934,0,0,0-3.1-15.42,4.966,4.966,0,0,0-8.28-10.24ZM6.54-1.86a.4.4,0,0,0,.4-.4V-15.6H4.7V-1.86Zm.88,3.4H-3.22a.184.184,0,0,1-.18-.2v-4H-5.68V2.22A1.225,1.225,0,0,0-4.46,3.44H7.02a.4.4,0,0,0,.4-.4ZM9.78-13.18h5.98c.14,0,.2.06.2.2v2.12c0,3.04-3.3,4.48-6.92,5.44L10.3-3.94c3.76-.96,7.92-2.72,7.92-6.84v-3.04A1.2,1.2,0,0,0,17-15.02H9.78ZM27.04-10.4H23.96v-5.2H21.7V-1.8h1.86a.4.4,0,0,0,.4-.4V-8.48h3.08ZM24.54,1.54H14.1a.184.184,0,0,1-.18-.2v-4.4H11.66V2.22a1.225,1.225,0,0,0,1.22,1.22H24.14a.4.4,0,0,0,.4-.4ZM47.88-13.24v-1.9H34.44v1.9h5.44l-.06.22C39.18-11.2,36.1-9.3,33.06-8.6l1.48,1.54A12.23,12.23,0,0,0,41.16-11a14.952,14.952,0,0,0,6.66,4L49.3-8.56c-2.72-.64-6.34-2.84-6.82-4.42l-.06-.26Zm-6,16.68a.38.38,0,0,0,.4-.4V-3.38H49.7a.38.38,0,0,0,.4-.4V-5.3h-18v1.92h7.88V3.44Zm8.3-9.56V-4.2h8.3V-.3h1.9a.4.4,0,0,0,.4-.4V-4.2H67.8a.4.4,0,0,0,.4-.4V-6.12ZM55.2-9.6c-.14,0-.2-.06-.2-.2v-3.84h8.5V-9.8c0,.14-.06.2-.2.2Zm10.56-5.84H52.78v6.4A1.225,1.225,0,0,0,54-7.82H64.52a1.229,1.229,0,0,0,1.24-1.22Zm.28,16.98H54.98a.184.184,0,0,1-.18-.2V-2.3H52.52V2.24a1.225,1.225,0,0,0,1.22,1.22h11.9a.4.4,0,0,0,.4-.4Zm4.86-6.8a2.94,2.94,0,0,1,2.94-2.98A2.93,2.93,0,0,1,76.8-5.26a2.9,2.9,0,0,1-2.96,3.08A2.884,2.884,0,0,1,70.9-5.26Zm-2.22,0A4.924,4.924,0,0,0,73.84-.24,4.958,4.958,0,0,0,79-5.26a5.024,5.024,0,0,0-5.16-4.92A4.938,4.938,0,0,0,68.68-5.26Zm11-5.76v-1.9H75.02v-2.7h-2.3v2.7h-4.6v1.9Zm6.64,3.04H83.56v-7.64H81.34V3.44h1.82a.4.4,0,0,0,.4-.4v-9.1h2.76ZM100.86,3.44h1.84a.4.4,0,0,0,.4-.4V-15.6h-2.24ZM88.34.52c3.98-.9,8.7-3.44,8.7-8.18v-5.76a1.191,1.191,0,0,0-1.18-1.22h-8.2v1.92h6.86c.14,0,.22.06.22.2l-.02,5.18c0,3.54-4.58,5.52-7.56,6.24Z" transform="translate(103.94 16.64)" fill="#fff"/>
</svg>
